{"glyphs":{"0":{"ha":1111,"x_min":0,"x_max":972,"o":"m 555 277 l 555 1111 l 416 1111 l 416 277 l 555 277 m 0 0 l 0 1389 l 972 1389 l 972 0 l 0 0 z "},"1":{"ha":833,"x_min":0,"x_max":694,"o":"m 277 0 l 277 972 l 0 972 l 0 1250 l 277 1250 l 277 1389 l 694 1389 l 694 0 l 277 0 z "},"2":{"ha":1111,"x_min":0,"x_max":972,"o":"m 0 0 l 0 833 l 555 833 l 555 1111 l 0 1111 l 0 1389 l 972 1389 l 972 555 l 416 555 l 416 277 l 972 277 l 972 0 l 0 0 z "},"3":{"ha":1111,"x_min":0,"x_max":972,"o":"m 0 0 l 0 277 l 555 277 l 555 555 l 138 555 l 138 833 l 555 833 l 555 1111 l 0 1111 l 0 1389 l 972 1389 l 972 0 l 0 0 z "},"4":{"ha":1389,"x_min":0,"x_max":1250,"o":"m 694 555 l 694 972 l 555 972 l 555 694 l 416 694 l 416 555 l 694 555 m 694 0 l 694 277 l 0 277 l 0 555 l 138 555 l 138 833 l 277 833 l 277 1111 l 416 1111 l 416 1250 l 694 1250 l 694 1389 l 1111 1389 l 1111 555 l 1250 555 l 1250 277 l 1111 277 l 1111 0 l 694 0 z "},"5":{"ha":1111,"x_min":0,"x_max":972,"o":"m 0 0 l 0 277 l 555 277 l 555 555 l 0 555 l 0 1389 l 972 1389 l 972 1111 l 416 1111 l 416 833 l 972 833 l 972 0 l 0 0 z "},"6":{"ha":1111,"x_min":0,"x_max":972,"o":"m 555 277 l 555 555 l 416 555 l 416 277 l 555 277 m 0 0 l 0 1389 l 972 1389 l 972 1111 l 416 1111 l 416 833 l 972 833 l 972 0 l 0 0 z "},"7":{"ha":1111,"x_min":0,"x_max":972,"o":"m 138 0 l 138 277 l 277 277 l 277 555 l 416 555 l 416 833 l 555 833 l 555 1111 l 0 1111 l 0 1389 l 972 1389 l 972 833 l 833 833 l 833 555 l 694 555 l 694 277 l 555 277 l 555 0 l 138 0 z "},"8":{"ha":1111,"x_min":0,"x_max":972,"o":"m 555 277 l 555 555 l 416 555 l 416 277 l 555 277 m 555 833 l 555 1111 l 416 1111 l 416 833 l 555 833 m 0 0 l 0 694 l 138 694 l 138 833 l 0 833 l 0 1389 l 972 1389 l 972 833 l 833 833 l 833 694 l 972 694 l 972 0 l 0 0 z "},"9":{"ha":1111,"x_min":0,"x_max":972,"o":"m 555 833 l 555 1111 l 416 1111 l 416 833 l 555 833 m 0 0 l 0 277 l 555 277 l 555 555 l 0 555 l 0 1389 l 972 1389 l 972 0 l 0 0 z "}," ":{"ha":486,"x_min":0,"x_max":0,"o":""},"!":{"ha":555,"x_min":0,"x_max":416,"o":"m 0 0 l 0 416 l 416 416 l 416 0 l 0 0 m 0 555 l 0 1389 l 416 1389 l 416 555 l 0 555 z "},"\"":{"ha":1111,"x_min":0,"x_max":972,"o":"m 0 694 l 0 1389 l 416 1389 l 416 694 l 0 694 m 555 694 l 555 1389 l 972 1389 l 972 694 l 555 694 z "},"#":{"ha":1389,"x_min":0,"x_max":1250,"o":"m 694 555 l 694 833 l 555 833 l 555 555 l 694 555 m 138 0 l 138 277 l 0 277 l 0 555 l 138 555 l 138 833 l 0 833 l 0 1111 l 138 1111 l 138 1389 l 555 1389 l 555 1111 l 694 1111 l 694 1389 l 1111 1389 l 1111 1111 l 1250 1111 l 1250 833 l 1111 833 l 1111 555 l 1250 555 l 1250 277 l 1111 277 l 1111 0 l 694 0 l 694 277 l 555 277 l 555 0 l 138 0 z "},"$":{"ha":1111,"x_min":0,"x_max":972,"o":"m 277 -138 l 277 138 l 0 138 l 0 416 l 555 416 l 555 555 l 0 555 l 0 1250 l 277 1250 l 277 1527 l 694 1527 l 694 1250 l 972 1250 l 972 972 l 416 972 l 416 833 l 972 833 l 972 138 l 694 138 l 694 -138 l 277 -138 z "},"%":{"ha":1389,"x_min":0,"x_max":1250,"o":"m 833 0 l 833 416 l 1250 416 l 1250 0 l 833 0 m 0 972 l 0 1389 l 416 1389 l 416 972 l 0 972 m 0 0 l 0 416 l 277 416 l 277 694 l 555 694 l 555 1111 l 833 1111 l 833 1389 l 1250 1389 l 1250 972 l 972 972 l 972 694 l 694 694 l 694 277 l 416 277 l 416 0 l 0 0 z "},"&":{"ha":1389,"x_min":0,"x_max":1250,"o":"m 555 277 l 555 555 l 416 555 l 416 277 l 555 277 m 555 833 l 555 1111 l 416 1111 l 416 833 l 555 833 m 0 0 l 0 833 l 138 833 l 138 1389 l 833 1389 l 833 833 l 1111 833 l 1111 555 l 972 555 l 972 277 l 1250 277 l 1250 0 l 0 0 z "},"'":{"ha":555,"x_min":0,"x_max":416,"o":"m 0 694 l 0 1389 l 416 1389 l 416 694 l 0 694 z "},"(":{"ha":1111,"x_min":0,"x_max":972,"o":"m 277 0 l 277 277 l 0 277 l 0 1111 l 277 1111 l 277 1389 l 972 1389 l 972 1111 l 694 1111 l 694 833 l 416 833 l 416 555 l 694 555 l 694 277 l 972 277 l 972 0 l 277 0 z "},")":{"ha":1111,"x_min":0,"x_max":972,"o":"m 0 0 l 0 277 l 277 277 l 277 555 l 555 555 l 555 833 l 277 833 l 277 1111 l 0 1111 l 0 1389 l 694 1389 l 694 1111 l 972 1111 l 972 277 l 694 277 l 694 0 l 0 0 z "},"*":{"ha":972,"x_min":0,"x_max":833,"o":"m 0 555 l 0 833 l 138 833 l 138 1111 l 0 1111 l 0 1389 l 277 1389 l 277 1250 l 555 1250 l 555 1389 l 833 1389 l 833 1111 l 694 1111 l 694 833 l 833 833 l 833 555 l 555 555 l 555 694 l 277 694 l 277 555 l 0 555 z "},"+":{"ha":972,"x_min":0,"x_max":833,"o":"m 277 277 l 277 555 l 0 555 l 0 833 l 277 833 l 277 1111 l 555 1111 l 555 833 l 833 833 l 833 555 l 555 555 l 555 277 l 277 277 z "},",":{"ha":555,"x_min":0,"x_max":416,"o":"m 138 -277 l 138 0 l 0 0 l 0 416 l 416 416 l 416 -277 l 138 -277 z "},"-":{"ha":972,"x_min":0,"x_max":833,"o":"m 0 555 l 0 833 l 833 833 l 833 555 l 0 555 z "},".":{"ha":555,"x_min":0,"x_max":416,"o":"m 0 0 l 0 416 l 416 416 l 416 0 l 0 0 z "},"/":{"ha":1389,"x_min":0,"x_max":1250,"o":"m 0 0 l 0 416 l 277 416 l 277 694 l 555 694 l 555 1111 l 833 1111 l 833 1389 l 1250 1389 l 1250 972 l 972 972 l 972 694 l 694 694 l 694 277 l 416 277 l 416 0 l 0 0 z "},":":{"ha":555,"x_min":0,"x_max":416,"o":"m 0 0 l 0 416 l 416 416 l 416 0 l 0 0 m 0 694 l 0 1111 l 416 1111 l 416 694 l 0 694 z "},";":{"ha":555,"x_min":0,"x_max":416,"o":"m 138 -277 l 138 0 l 0 0 l 0 416 l 416 416 l 416 -277 l 138 -277 m 0 694 l 0 1111 l 416 1111 l 416 694 l 0 694 z "},"<":{"ha":1111,"x_min":0,"x_max":972,"o":"m 555 208 l 555 347 l 277 347 l 277 486 l 0 486 l 0 903 l 277 903 l 277 1042 l 555 1042 l 555 1180 l 972 1180 l 972 903 l 694 903 l 694 764 l 416 764 l 416 625 l 694 625 l 694 486 l 972 486 l 972 208 l 555 208 z "},"=":{"ha":972,"x_min":0,"x_max":833,"o":"m 0 277 l 0 555 l 833 555 l 833 277 l 0 277 m 0 833 l 0 1111 l 833 1111 l 833 833 l 0 833 z "},">":{"ha":1111,"x_min":0,"x_max":972,"o":"m 0 208 l 0 486 l 277 486 l 277 625 l 555 625 l 555 764 l 277 764 l 277 903 l 0 903 l 0 1180 l 416 1180 l 416 1042 l 694 1042 l 694 903 l 972 903 l 972 486 l 694 486 l 694 347 l 416 347 l 416 208 l 0 208 z "},"?":{"ha":1250,"x_min":0,"x_max":1111,"o":"m 416 0 l 416 416 l 833 416 l 833 0 l 416 0 m 416 555 l 416 833 l 555 833 l 555 1111 l 277 1111 l 277 833 l 0 833 l 0 1250 l 138 1250 l 138 1389 l 972 1389 l 972 1250 l 1111 1250 l 1111 694 l 833 694 l 833 555 l 416 555 z "},"@":{"ha":1805,"x_min":0,"x_max":1666,"o":"m 138 -277 l 138 -138 l 0 -138 l 0 1250 l 138 1250 l 138 1389 l 1527 1389 l 1527 1250 l 1666 1250 l 1666 138 l 555 138 l 555 972 l 1111 972 l 1111 694 l 972 694 l 972 416 l 1250 416 l 1250 1111 l 416 1111 l 416 0 l 1111 0 l 1111 -277 l 138 -277 z "},"A":{"ha":1111,"x_min":0,"x_max":972,"o":"m 625 764 l 625 972 l 555 972 l 555 1042 l 694 1042 l 694 1180 l 555 1180 l 555 1042 l 416 1042 l 416 1180 l 277 1180 l 277 1042 l 416 1042 l 416 972 l 347 972 l 347 764 l 416 764 l 416 833 l 555 833 l 555 764 l 625 764 m 0 0 l 0 1389 l 972 1389 l 972 0 l 555 0 l 555 555 l 416 555 l 416 0 l 0 0 z "},"B":{"ha":1111,"x_min":0,"x_max":972,"o":"m 555 277 l 555 555 l 416 555 l 416 277 l 555 277 m 555 833 l 555 1111 l 416 1111 l 416 833 l 555 833 m 0 0 l 0 1389 l 972 1389 l 972 833 l 833 833 l 833 694 l 972 694 l 972 0 l 0 0 z "},"C":{"ha":1111,"x_min":0,"x_max":972,"o":"m 0 0 l 0 1389 l 972 1389 l 972 1111 l 416 1111 l 416 277 l 972 277 l 972 0 l 0 0 z "},"D":{"ha":1111,"x_min":0,"x_max":972,"o":"m 555 277 l 555 1111 l 416 1111 l 416 277 l 555 277 m 0 0 l 0 1389 l 833 1389 l 833 1250 l 972 1250 l 972 138 l 833 138 l 833 0 l 0 0 z "},"E":{"ha":1111,"x_min":0,"x_max":972,"o":"m 0 0 l 0 1389 l 972 1389 l 972 1111 l 416 1111 l 416 833 l 833 833 l 833 555 l 416 555 l 416 277 l 972 277 l 972 0 l 0 0 z "},"F":{"ha":1111,"x_min":0,"x_max":972,"o":"m 0 0 l 0 1389 l 972 1389 l 972 1111 l 416 1111 l 416 833 l 833 833 l 833 555 l 416 555 l 416 0 l 0 0 z "},"G":{"ha":1111,"x_min":0,"x_max":972,"o":"m 0 0 l 0 1389 l 972 1389 l 972 1111 l 416 1111 l 416 277 l 555 277 l 555 833 l 972 833 l 972 0 l 0 0 z "},"H":{"ha":1111,"x_min":0,"x_max":972,"o":"m 0 0 l 0 1389 l 416 1389 l 416 833 l 555 833 l 555 1389 l 972 1389 l 972 0 l 555 0 l 555 555 l 416 555 l 416 0 l 0 0 z "},"I":{"ha":555,"x_min":0,"x_max":416,"o":"m 0 0 l 0 1389 l 416 1389 l 416 0 l 0 0 z "},"J":{"ha":1111,"x_min":0,"x_max":972,"o":"m 0 0 l 0 555 l 416 555 l 416 277 l 555 277 l 555 1389 l 972 1389 l 972 0 l 0 0 z "},"K":{"ha":1111,"x_min":0,"x_max":972,"o":"m 0 0 l 0 1389 l 416 1389 l 416 972 l 555 972 l 555 1389 l 972 1389 l 972 833 l 694 833 l 694 694 l 972 694 l 972 0 l 555 0 l 555 416 l 416 416 l 416 0 l 0 0 z "},"L":{"ha":1111,"x_min":0,"x_max":972,"o":"m 0 0 l 0 1389 l 416 1389 l 416 277 l 972 277 l 972 0 l 0 0 z "},"M":{"ha":1527,"x_min":0,"x_max":1389,"o":"m 0 0 l 0 1389 l 416 1389 l 416 1111 l 555 1111 l 555 833 l 833 833 l 833 1111 l 972 1111 l 972 1389 l 1389 1389 l 1389 0 l 972 0 l 972 555 l 833 555 l 833 277 l 555 277 l 555 555 l 416 555 l 416 0 l 0 0 z "},"N":{"ha":1250,"x_min":0,"x_max":1111,"o":"m 0 0 l 0 1389 l 416 1389 l 416 1111 l 555 1111 l 555 833 l 694 833 l 694 1389 l 1111 1389 l 1111 0 l 694 0 l 694 277 l 555 277 l 555 555 l 416 555 l 416 0 l 0 0 z "},"O":{"ha":1111,"x_min":0,"x_max":972,"o":"m 555 277 l 555 1111 l 416 1111 l 416 277 l 555 277 m 0 0 l 0 1389 l 972 1389 l 972 0 l 0 0 z "},"P":{"ha":1111,"x_min":0,"x_max":972,"o":"m 555 833 l 555 1111 l 416 1111 l 416 833 l 555 833 m 0 0 l 0 1389 l 972 1389 l 972 555 l 416 555 l 416 0 l 0 0 z "},"Q":{"ha":1250,"x_min":0,"x_max":1111,"o":"m 555 277 l 555 1111 l 416 1111 l 416 277 l 555 277 m 0 0 l 0 1389 l 972 1389 l 972 277 l 1111 277 l 1111 0 l 0 0 z "},"R":{"ha":1111,"x_min":0,"x_max":972,"o":"m 555 833 l 555 1111 l 416 1111 l 416 833 l 555 833 m 0 0 l 0 1389 l 972 1389 l 972 833 l 833 833 l 833 694 l 972 694 l 972 0 l 555 0 l 555 555 l 416 555 l 416 0 l 0 0 z "},"S":{"ha":1111,"x_min":0,"x_max":972,"o":"m 0 0 l 0 277 l 555 277 l 555 555 l 0 555 l 0 1389 l 972 1389 l 972 1111 l 416 1111 l 416 833 l 972 833 l 972 0 l 0 0 z "},"T":{"ha":1111,"x_min":0,"x_max":972,"o":"m 277 0 l 277 1111 l 0 1111 l 0 1389 l 972 1389 l 972 1111 l 694 1111 l 694 0 l 277 0 z "},"U":{"ha":1111,"x_min":0,"x_max":972,"o":"m 0 0 l 0 1389 l 416 1389 l 416 277 l 555 277 l 555 1389 l 972 1389 l 972 0 l 0 0 z "},"V":{"ha":1111,"x_min":0,"x_max":972,"o":"m 277 0 l 277 277 l 138 277 l 138 555 l 0 555 l 0 1389 l 416 1389 l 416 694 l 555 694 l 555 1389 l 972 1389 l 972 555 l 833 555 l 833 277 l 694 277 l 694 0 l 277 0 z "},"W":{"ha":1527,"x_min":0,"x_max":1389,"o":"m 138 0 l 138 277 l 0 277 l 0 1389 l 416 1389 l 416 694 l 555 694 l 555 972 l 833 972 l 833 694 l 972 694 l 972 1389 l 1389 1389 l 1389 277 l 1250 277 l 1250 0 l 833 0 l 833 416 l 555 416 l 555 0 l 138 0 z "},"X":{"ha":1111,"x_min":0,"x_max":972,"o":"m 0 0 l 0 694 l 277 694 l 277 833 l 0 833 l 0 1389 l 416 1389 l 416 972 l 555 972 l 555 1389 l 972 1389 l 972 833 l 694 833 l 694 694 l 972 694 l 972 0 l 555 0 l 555 416 l 416 416 l 416 0 l 0 0 z "},"Y":{"ha":1111,"x_min":0,"x_max":972,"o":"m 277 0 l 277 694 l 0 694 l 0 1389 l 416 1389 l 416 972 l 555 972 l 555 1389 l 972 1389 l 972 694 l 694 694 l 694 0 l 277 0 z "},"Z":{"ha":1111,"x_min":0,"x_max":972,"o":"m 0 0 l 0 694 l 277 694 l 277 833 l 555 833 l 555 1111 l 0 1111 l 0 1389 l 972 1389 l 972 694 l 694 694 l 694 555 l 416 555 l 416 277 l 972 277 l 972 0 l 0 0 z "},"[":{"ha":833,"x_min":0,"x_max":694,"o":"m 0 0 l 0 1389 l 694 1389 l 694 1111 l 416 1111 l 416 277 l 694 277 l 694 0 l 0 0 z "},"\\":{"ha":1389,"x_min":0,"x_max":1250,"o":"m 833 0 l 833 277 l 555 277 l 555 694 l 277 694 l 277 972 l 0 972 l 0 1389 l 416 1389 l 416 1111 l 694 1111 l 694 694 l 972 694 l 972 416 l 1250 416 l 1250 0 l 833 0 z "},"]":{"ha":833,"x_min":0,"x_max":694,"o":"m 0 0 l 0 277 l 277 277 l 277 1111 l 0 1111 l 0 1389 l 694 1389 l 694 0 l 0 0 z "},"^":{"ha":833,"x_min":0,"x_max":694,"o":"m 0 972 l 0 1250 l 138 1250 l 138 1389 l 555 1389 l 555 1250 l 694 1250 l 694 972 l 416 972 l 416 1111 l 277 1111 l 277 972 l 0 972 z "},"_":{"ha":1805,"x_min":0,"x_max":1666,"o":"m 0 -277 l 0 0 l 1666 0 l 1666 -277 l 0 -277 z "},"`":{"ha":555,"x_min":0,"x_max":416,"o":"m 138 1389 l 138 1527 l 0 1527 l 0 1805 l 277 1805 l 277 1666 l 416 1666 l 416 1389 l 138 1389 z "},"a":{"ha":1111,"x_min":0,"x_max":972,"o":"m 555 833 l 555 1111 l 416 1111 l 416 833 l 555 833 m 0 0 l 0 1389 l 972 1389 l 972 0 l 555 0 l 555 555 l 416 555 l 416 0 l 0 0 z "},"b":{"ha":1111,"x_min":0,"x_max":972,"o":"m 555 277 l 555 555 l 416 555 l 416 277 l 555 277 m 555 833 l 555 1111 l 416 1111 l 416 833 l 555 833 m 0 0 l 0 1389 l 972 1389 l 972 833 l 833 833 l 833 694 l 972 694 l 972 0 l 0 0 z "},"c":{"ha":1111,"x_min":0,"x_max":972,"o":"m 0 0 l 0 1389 l 972 1389 l 972 1111 l 416 1111 l 416 277 l 972 277 l 972 0 l 0 0 z "},"d":{"ha":1111,"x_min":0,"x_max":972,"o":"m 555 277 l 555 1111 l 416 1111 l 416 277 l 555 277 m 0 0 l 0 1389 l 833 1389 l 833 1250 l 972 1250 l 972 138 l 833 138 l 833 0 l 0 0 z "},"e":{"ha":1111,"x_min":0,"x_max":972,"o":"m 0 0 l 0 1389 l 972 1389 l 972 1111 l 416 1111 l 416 833 l 833 833 l 833 555 l 416 555 l 416 277 l 972 277 l 972 0 l 0 0 z "},"f":{"ha":1111,"x_min":0,"x_max":972,"o":"m 0 0 l 0 1389 l 972 1389 l 972 1111 l 416 1111 l 416 833 l 833 833 l 833 555 l 416 555 l 416 0 l 0 0 z "},"g":{"ha":1111,"x_min":0,"x_max":972,"o":"m 0 0 l 0 1389 l 972 1389 l 972 1111 l 416 1111 l 416 277 l 555 277 l 555 833 l 972 833 l 972 0 l 0 0 z "},"h":{"ha":1111,"x_min":0,"x_max":972,"o":"m 0 0 l 0 1389 l 416 1389 l 416 833 l 555 833 l 555 1389 l 972 1389 l 972 0 l 555 0 l 555 555 l 416 555 l 416 0 l 0 0 z "},"i":{"ha":555,"x_min":0,"x_max":416,"o":"m 0 0 l 0 1389 l 416 1389 l 416 0 l 0 0 z "},"j":{"ha":1111,"x_min":0,"x_max":972,"o":"m 0 0 l 0 555 l 416 555 l 416 277 l 555 277 l 555 1389 l 972 1389 l 972 0 l 0 0 z "},"k":{"ha":1111,"x_min":0,"x_max":972,"o":"m 0 0 l 0 1389 l 416 1389 l 416 972 l 555 972 l 555 1389 l 972 1389 l 972 833 l 694 833 l 694 694 l 972 694 l 972 0 l 555 0 l 555 416 l 416 416 l 416 0 l 0 0 z "},"l":{"ha":1111,"x_min":0,"x_max":972,"o":"m 0 0 l 0 1389 l 416 1389 l 416 277 l 972 277 l 972 0 l 0 0 z "},"m":{"ha":1527,"x_min":0,"x_max":1389,"o":"m 0 0 l 0 1389 l 416 1389 l 416 1111 l 555 1111 l 555 833 l 833 833 l 833 1111 l 972 1111 l 972 1389 l 1389 1389 l 1389 0 l 972 0 l 972 555 l 833 555 l 833 277 l 555 277 l 555 555 l 416 555 l 416 0 l 0 0 z "},"n":{"ha":1250,"x_min":0,"x_max":1111,"o":"m 0 0 l 0 1389 l 416 1389 l 416 1111 l 555 1111 l 555 833 l 694 833 l 694 1389 l 1111 1389 l 1111 0 l 694 0 l 694 277 l 555 277 l 555 555 l 416 555 l 416 0 l 0 0 z "},"o":{"ha":1111,"x_min":0,"x_max":972,"o":"m 555 277 l 555 1111 l 416 1111 l 416 277 l 555 277 m 0 0 l 0 1389 l 972 1389 l 972 0 l 0 0 z "},"p":{"ha":1111,"x_min":0,"x_max":972,"o":"m 555 833 l 555 1111 l 416 1111 l 416 833 l 555 833 m 0 0 l 0 1389 l 972 1389 l 972 555 l 416 555 l 416 0 l 0 0 z "},"q":{"ha":1250,"x_min":0,"x_max":1111,"o":"m 555 277 l 555 1111 l 416 1111 l 416 277 l 555 277 m 0 0 l 0 1389 l 972 1389 l 972 277 l 1111 277 l 1111 0 l 0 0 z "},"r":{"ha":1111,"x_min":0,"x_max":972,"o":"m 555 833 l 555 1111 l 416 1111 l 416 833 l 555 833 m 0 0 l 0 1389 l 972 1389 l 972 833 l 833 833 l 833 694 l 972 694 l 972 0 l 555 0 l 555 555 l 416 555 l 416 0 l 0 0 z "},"s":{"ha":1111,"x_min":0,"x_max":972,"o":"m 0 0 l 0 277 l 555 277 l 555 555 l 0 555 l 0 1389 l 972 1389 l 972 1111 l 416 1111 l 416 833 l 972 833 l 972 0 l 0 0 z "},"t":{"ha":1111,"x_min":0,"x_max":972,"o":"m 277 0 l 277 1111 l 0 1111 l 0 1389 l 972 1389 l 972 1111 l 694 1111 l 694 0 l 277 0 z "},"u":{"ha":1111,"x_min":0,"x_max":972,"o":"m 0 0 l 0 1389 l 416 1389 l 416 277 l 555 277 l 555 1389 l 972 1389 l 972 0 l 0 0 z "},"v":{"ha":1111,"x_min":0,"x_max":972,"o":"m 277 0 l 277 277 l 138 277 l 138 555 l 0 555 l 0 1389 l 416 1389 l 416 694 l 555 694 l 555 1389 l 972 1389 l 972 555 l 833 555 l 833 277 l 694 277 l 694 0 l 277 0 z "},"w":{"ha":1527,"x_min":0,"x_max":1389,"o":"m 138 0 l 138 277 l 0 277 l 0 1389 l 416 1389 l 416 694 l 555 694 l 555 972 l 833 972 l 833 694 l 972 694 l 972 1389 l 1389 1389 l 1389 277 l 1250 277 l 1250 0 l 833 0 l 833 416 l 555 416 l 555 0 l 138 0 z "},"x":{"ha":1111,"x_min":0,"x_max":972,"o":"m 0 0 l 0 694 l 277 694 l 277 833 l 0 833 l 0 1389 l 416 1389 l 416 972 l 555 972 l 555 1389 l 972 1389 l 972 833 l 694 833 l 694 694 l 972 694 l 972 0 l 555 0 l 555 416 l 416 416 l 416 0 l 0 0 z "},"y":{"ha":1111,"x_min":0,"x_max":972,"o":"m 277 0 l 277 694 l 0 694 l 0 1389 l 416 1389 l 416 972 l 555 972 l 555 1389 l 972 1389 l 972 694 l 694 694 l 694 0 l 277 0 z "},"z":{"ha":1111,"x_min":0,"x_max":972,"o":"m 0 0 l 0 694 l 277 694 l 277 833 l 555 833 l 555 1111 l 0 1111 l 0 1389 l 972 1389 l 972 694 l 694 694 l 694 555 l 416 555 l 416 277 l 972 277 l 972 0 l 0 0 z "},"{":{"ha":972,"x_min":0,"x_max":833,"o":"m 138 0 l 138 555 l 0 555 l 0 833 l 138 833 l 138 1389 l 833 1389 l 833 1111 l 555 1111 l 555 833 l 416 833 l 416 555 l 555 555 l 555 277 l 833 277 l 833 0 l 138 0 z "},"|":{"ha":555,"x_min":0,"x_max":416,"o":"m 0 -694 l 0 1389 l 416 1389 l 416 -694 l 0 -694 z "},"}":{"ha":972,"x_min":0,"x_max":833,"o":"m 0 0 l 0 277 l 277 277 l 277 555 l 416 555 l 416 833 l 277 833 l 277 1111 l 0 1111 l 0 1389 l 694 1389 l 694 833 l 833 833 l 833 555 l 694 555 l 694 0 l 0 0 z "},"~":{"ha":972,"x_min":0,"x_max":833,"o":"m 0 972 l 0 1250 l 138 1250 l 138 1389 l 416 1389 l 416 1250 l 555 1250 l 555 1389 l 833 1389 l 833 1111 l 694 1111 l 694 972 l 416 972 l 416 1111 l 277 1111 l 277 972 l 0 972 z "},"¡":{"ha":555,"x_min":0,"x_max":416,"o":"m 0 0 l 0 833 l 416 833 l 416 0 l 0 0 m 0 972 l 0 1389 l 416 1389 l 416 972 l 0 972 z "},"¢":{"ha":972,"x_min":0,"x_max":833,"o":"m 277 0 l 277 277 l 0 277 l 0 1111 l 277 1111 l 277 1389 l 555 1389 l 555 1111 l 833 1111 l 833 833 l 416 833 l 416 555 l 833 555 l 833 277 l 555 277 l 555 0 l 277 0 z "},"£":{"ha":1111,"x_min":0,"x_max":972,"o":"m 0 0 l 0 277 l 138 277 l 138 555 l 0 555 l 0 833 l 138 833 l 138 1250 l 277 1250 l 277 1389 l 972 1389 l 972 1111 l 555 1111 l 555 833 l 972 833 l 972 555 l 555 555 l 555 277 l 972 277 l 972 0 l 0 0 z "},"¥":{"ha":1111,"x_min":0,"x_max":972,"o":"m 277 0 l 277 277 l 0 277 l 0 555 l 277 555 l 277 694 l 0 694 l 0 1389 l 416 1389 l 416 972 l 555 972 l 555 1389 l 972 1389 l 972 694 l 694 694 l 694 555 l 972 555 l 972 277 l 694 277 l 694 0 l 277 0 z "},"¦":{"ha":555,"x_min":0,"x_max":416,"o":"m 0 -555 l 0 277 l 416 277 l 416 -555 l 0 -555 m 0 555 l 0 1389 l 416 1389 l 416 555 l 0 555 z "},"©":{"ha":1527,"x_min":0,"x_max":1389,"o":"m 555 277 l 555 416 l 416 416 l 416 972 l 555 972 l 555 1111 l 833 1111 l 833 972 l 972 972 l 972 833 l 694 833 l 694 555 l 972 555 l 972 416 l 833 416 l 833 277 l 555 277 m 972 138 l 972 277 l 1111 277 l 1111 1111 l 972 1111 l 972 1250 l 416 1250 l 416 1111 l 277 1111 l 277 277 l 416 277 l 416 138 l 972 138 m 277 0 l 277 138 l 138 138 l 138 277 l 0 277 l 0 1111 l 138 1111 l 138 1250 l 277 1250 l 277 1389 l 1111 1389 l 1111 1250 l 1250 1250 l 1250 1111 l 1389 1111 l 1389 277 l 1250 277 l 1250 138 l 1111 138 l 1111 0 l 277 0 z "},"«":{"ha":2083,"x_min":0,"x_max":1944,"o":"m 555 208 l 555 347 l 277 347 l 277 486 l 0 486 l 0 903 l 277 903 l 277 1042 l 555 1042 l 555 1180 l 972 1180 l 972 903 l 694 903 l 694 764 l 416 764 l 416 625 l 694 625 l 694 486 l 972 486 l 972 208 l 555 208 m 1527 208 l 1527 347 l 1250 347 l 1250 486 l 972 486 l 972 903 l 1250 903 l 1250 1042 l 1527 1042 l 1527 1180 l 1944 1180 l 1944 903 l 1666 903 l 1666 764 l 1389 764 l 1389 625 l 1666 625 l 1666 486 l 1944 486 l 1944 208 l 1527 208 z "},"¬":{"ha":972,"x_min":0,"x_max":833,"o":"m 555 277 l 555 555 l 0 555 l 0 833 l 833 833 l 833 277 l 555 277 z "},"®":{"ha":1250,"x_min":0,"x_max":1111,"o":"m 277 277 l 277 416 l 833 416 l 833 277 l 277 277 m 138 416 l 138 555 l 277 555 l 277 416 l 138 416 m 833 416 l 833 555 l 972 555 l 972 416 l 833 416 m 694 833 l 694 972 l 555 972 l 555 833 l 694 833 m 0 555 l 0 1111 l 138 1111 l 138 555 l 0 555 m 277 555 l 277 1111 l 833 1111 l 833 833 l 764 833 l 764 694 l 833 694 l 833 555 l 694 555 l 694 694 l 555 694 l 555 555 l 277 555 m 972 555 l 972 1111 l 1111 1111 l 1111 555 l 972 555 m 138 1111 l 138 1250 l 277 1250 l 277 1111 l 138 1111 m 833 1111 l 833 1250 l 972 1250 l 972 1111 l 833 1111 m 277 1250 l 277 1389 l 833 1389 l 833 1250 l 277 1250 z "},"¯":{"ha":972,"x_min":0,"x_max":833,"o":"m 0 1389 l 0 1666 l 833 1666 l 833 1389 l 0 1389 z "},"°":{"ha":972,"x_min":0,"x_max":833,"o":"m 555 833 l 555 1111 l 277 1111 l 277 833 l 555 833 m 138 555 l 138 694 l 0 694 l 0 1250 l 138 1250 l 138 1389 l 694 1389 l 694 1250 l 833 1250 l 833 694 l 694 694 l 694 555 l 138 555 z "},"±":{"ha":972,"x_min":0,"x_max":833,"o":"m 0 0 l 0 277 l 833 277 l 833 0 l 0 0 m 277 555 l 277 833 l 0 833 l 0 1111 l 277 1111 l 277 1389 l 555 1389 l 555 1111 l 833 1111 l 833 833 l 555 833 l 555 555 l 277 555 z "},"´":{"ha":555,"x_min":0,"x_max":416,"o":"m 0 1389 l 0 1666 l 138 1666 l 138 1805 l 416 1805 l 416 1527 l 277 1527 l 277 1389 l 0 1389 z "},"¶":{"ha":1527,"x_min":0,"x_max":1389,"o":"m 972 833 l 972 1111 l 833 1111 l 833 833 l 972 833 m 416 0 l 416 555 l 138 555 l 138 833 l 0 833 l 0 1111 l 138 1111 l 138 1389 l 1389 1389 l 1389 0 l 972 0 l 972 555 l 833 555 l 833 0 l 416 0 z "},"·":{"ha":555,"x_min":0,"x_max":416,"o":"m 0 486 l 0 903 l 416 903 l 416 486 l 0 486 z "},"¸":{"ha":555,"x_min":0,"x_max":416,"o":"m 0 -555 l 0 -277 l 138 -277 l 138 0 l 416 0 l 416 -555 l 0 -555 z "},"»":{"ha":2083,"x_min":0,"x_max":1944,"o":"m 0 208 l 0 486 l 277 486 l 277 625 l 555 625 l 555 764 l 277 764 l 277 903 l 0 903 l 0 1180 l 416 1180 l 416 1042 l 694 1042 l 694 903 l 972 903 l 972 486 l 694 486 l 694 347 l 416 347 l 416 208 l 0 208 m 972 208 l 972 486 l 1250 486 l 1250 625 l 1527 625 l 1527 764 l 1250 764 l 1250 903 l 972 903 l 972 1180 l 1389 1180 l 1389 1042 l 1666 1042 l 1666 903 l 1944 903 l 1944 486 l 1666 486 l 1666 347 l 1389 347 l 1389 208 l 972 208 z "},"¿":{"ha":1250,"x_min":0,"x_max":1111,"o":"m 138 0 l 138 138 l 0 138 l 0 694 l 277 694 l 277 833 l 694 833 l 694 555 l 555 555 l 555 277 l 833 277 l 833 555 l 1111 555 l 1111 138 l 972 138 l 972 0 l 138 0 m 277 972 l 277 1389 l 694 1389 l 694 972 l 277 972 z "},"À":{"ha":1111,"x_min":0,"x_max":972,"o":"m 625 764 l 625 972 l 555 972 l 555 1042 l 694 1042 l 694 1180 l 555 1180 l 555 1042 l 416 1042 l 416 1180 l 277 1180 l 277 1042 l 416 1042 l 416 972 l 347 972 l 347 764 l 416 764 l 416 833 l 555 833 l 555 764 l 625 764 m 0 0 l 0 1389 l 972 1389 l 972 0 l 555 0 l 555 555 l 416 555 l 416 0 l 0 0 m 277 1527 l 277 1805 l 416 1805 l 416 1944 l 694 1944 l 694 1666 l 555 1666 l 555 1527 l 277 1527 z "},"Á":{"ha":1111,"x_min":0,"x_max":972,"o":"m 625 764 l 625 972 l 555 972 l 555 1042 l 694 1042 l 694 1180 l 555 1180 l 555 1042 l 416 1042 l 416 1180 l 277 1180 l 277 1042 l 416 1042 l 416 972 l 347 972 l 347 764 l 416 764 l 416 833 l 555 833 l 555 764 l 625 764 m 0 0 l 0 1389 l 972 1389 l 972 0 l 555 0 l 555 555 l 416 555 l 416 0 l 0 0 m 416 1527 l 416 1666 l 277 1666 l 277 1944 l 555 1944 l 555 1805 l 694 1805 l 694 1527 l 416 1527 z "},"Â":{"ha":1111,"x_min":0,"x_max":972,"o":"m 625 764 l 625 972 l 555 972 l 555 1042 l 694 1042 l 694 1180 l 555 1180 l 555 1042 l 416 1042 l 416 1180 l 277 1180 l 277 1042 l 416 1042 l 416 972 l 347 972 l 347 764 l 416 764 l 416 833 l 555 833 l 555 764 l 625 764 m 0 0 l 0 1389 l 972 1389 l 972 0 l 555 0 l 555 555 l 416 555 l 416 0 l 0 0 m 138 1527 l 138 1805 l 277 1805 l 277 1944 l 694 1944 l 694 1805 l 833 1805 l 833 1527 l 555 1527 l 555 1666 l 416 1666 l 416 1527 l 138 1527 z "},"Ã":{"ha":1111,"x_min":0,"x_max":972,"o":"m 625 764 l 625 972 l 555 972 l 555 1042 l 694 1042 l 694 1180 l 555 1180 l 555 1042 l 416 1042 l 416 1180 l 277 1180 l 277 1042 l 416 1042 l 416 972 l 347 972 l 347 764 l 416 764 l 416 833 l 555 833 l 555 764 l 625 764 m 0 0 l 0 1389 l 972 1389 l 972 0 l 555 0 l 555 555 l 416 555 l 416 0 l 0 0 m 69 1527 l 69 1805 l 208 1805 l 208 1944 l 486 1944 l 486 1805 l 625 1805 l 625 1944 l 903 1944 l 903 1666 l 764 1666 l 764 1527 l 486 1527 l 486 1666 l 347 1666 l 347 1527 l 69 1527 z "},"Ä":{"ha":1111,"x_min":0,"x_max":972,"o":"m 625 764 l 625 972 l 555 972 l 555 1042 l 694 1042 l 694 1180 l 555 1180 l 555 1042 l 416 1042 l 416 1180 l 277 1180 l 277 1042 l 416 1042 l 416 972 l 347 972 l 347 764 l 416 764 l 416 833 l 555 833 l 555 764 l 625 764 m 0 0 l 0 1389 l 972 1389 l 972 0 l 555 0 l 555 555 l 416 555 l 416 0 l 0 0 m 138 1527 l 138 1805 l 416 1805 l 416 1527 l 138 1527 m 555 1527 l 555 1805 l 833 1805 l 833 1527 l 555 1527 z "},"Å":{"ha":1111,"x_min":0,"x_max":972,"o":"m 625 764 l 625 972 l 555 972 l 555 1042 l 694 1042 l 694 1180 l 555 1180 l 555 1042 l 416 1042 l 416 1180 l 277 1180 l 277 1042 l 416 1042 l 416 972 l 347 972 l 347 764 l 416 764 l 416 833 l 555 833 l 555 764 l 625 764 m 555 1666 l 555 1805 l 416 1805 l 416 1666 l 555 1666 m 0 0 l 0 1389 l 277 1389 l 277 1527 l 138 1527 l 138 1944 l 277 1944 l 277 2083 l 694 2083 l 694 1944 l 833 1944 l 833 1527 l 694 1527 l 694 1389 l 972 1389 l 972 0 l 555 0 l 555 555 l 416 555 l 416 0 l 0 0 z "},"Æ":{"ha":1666,"x_min":0,"x_max":1527,"o":"m 625 764 l 625 972 l 555 972 l 555 1042 l 694 1042 l 694 1180 l 555 1180 l 555 1042 l 416 1042 l 416 1180 l 277 1180 l 277 1042 l 416 1042 l 416 972 l 347 972 l 347 764 l 416 764 l 416 833 l 555 833 l 555 764 l 625 764 m 0 0 l 0 1389 l 1527 1389 l 1527 1111 l 972 1111 l 972 833 l 1389 833 l 1389 555 l 972 555 l 972 277 l 1527 277 l 1527 0 l 555 0 l 555 555 l 416 555 l 416 0 l 0 0 z "},"Ç":{"ha":1111,"x_min":0,"x_max":972,"o":"m 277 -555 l 277 -277 l 416 -277 l 416 0 l 0 0 l 0 1389 l 972 1389 l 972 1111 l 416 1111 l 416 277 l 972 277 l 972 0 l 694 0 l 694 -555 l 277 -555 z "},"È":{"ha":1111,"x_min":0,"x_max":972,"o":"m 0 0 l 0 1389 l 972 1389 l 972 1111 l 416 1111 l 416 833 l 833 833 l 833 555 l 416 555 l 416 277 l 972 277 l 972 0 l 0 0 m 416 1527 l 416 1666 l 277 1666 l 277 1944 l 555 1944 l 555 1805 l 694 1805 l 694 1527 l 416 1527 z "},"É":{"ha":1111,"x_min":0,"x_max":972,"o":"m 0 0 l 0 1389 l 972 1389 l 972 1111 l 416 1111 l 416 833 l 833 833 l 833 555 l 416 555 l 416 277 l 972 277 l 972 0 l 0 0 m 277 1527 l 277 1805 l 416 1805 l 416 1944 l 694 1944 l 694 1666 l 555 1666 l 555 1527 l 277 1527 z "},"Ê":{"ha":1111,"x_min":0,"x_max":972,"o":"m 0 0 l 0 1389 l 972 1389 l 972 1111 l 416 1111 l 416 833 l 833 833 l 833 555 l 416 555 l 416 277 l 972 277 l 972 0 l 0 0 m 138 1527 l 138 1805 l 277 1805 l 277 1944 l 694 1944 l 694 1805 l 833 1805 l 833 1527 l 555 1527 l 555 1666 l 416 1666 l 416 1527 l 138 1527 z "},"Ë":{"ha":1111,"x_min":0,"x_max":972,"o":"m 0 0 l 0 1389 l 972 1389 l 972 1111 l 416 1111 l 416 833 l 833 833 l 833 555 l 416 555 l 416 277 l 972 277 l 972 0 l 0 0 m 138 1527 l 138 1805 l 416 1805 l 416 1527 l 138 1527 m 555 1527 l 555 1805 l 833 1805 l 833 1527 l 555 1527 z "},"Ì":{"ha":555,"x_min":0,"x_max":416,"o":"m 0 0 l 0 1389 l 416 1389 l 416 0 l 0 0 m 138 1527 l 138 1666 l 0 1666 l 0 1944 l 277 1944 l 277 1805 l 416 1805 l 416 1527 l 138 1527 z "},"Í":{"ha":555,"x_min":0,"x_max":416,"o":"m 0 0 l 0 1389 l 416 1389 l 416 0 l 0 0 m 0 1527 l 0 1805 l 138 1805 l 138 1944 l 416 1944 l 416 1666 l 277 1666 l 277 1527 l 0 1527 z "},"Î":{"ha":555,"x_min":-138,"x_max":555,"o":"m 0 0 l 0 1389 l 416 1389 l 416 0 l 0 0 m -138 1527 l -138 1805 l 0 1805 l 0 1944 l 416 1944 l 416 1805 l 555 1805 l 555 1527 l 277 1527 l 277 1666 l 138 1666 l 138 1527 l -138 1527 z "},"Ï":{"ha":555,"x_min":-138,"x_max":555,"o":"m 0 0 l 0 1389 l 416 1389 l 416 0 l 0 0 m -138 1527 l -138 1805 l 138 1805 l 138 1527 l -138 1527 m 277 1527 l 277 1805 l 555 1805 l 555 1527 l 277 1527 z "},"Ð":{"ha":1389,"x_min":0,"x_max":1250,"o":"m 833 277 l 833 1111 l 555 1111 l 555 833 l 694 833 l 694 555 l 555 555 l 555 277 l 833 277 m 138 0 l 138 555 l 0 555 l 0 833 l 138 833 l 138 1389 l 1111 1389 l 1111 1250 l 1250 1250 l 1250 138 l 1111 138 l 1111 0 l 138 0 z "},"Ñ":{"ha":1250,"x_min":0,"x_max":1111,"o":"m 0 0 l 0 1389 l 416 1389 l 416 1111 l 555 1111 l 555 833 l 694 833 l 694 1389 l 1111 1389 l 1111 0 l 694 0 l 694 277 l 555 277 l 555 555 l 416 555 l 416 0 l 0 0 m 138 1527 l 138 1805 l 277 1805 l 277 1944 l 555 1944 l 555 1805 l 694 1805 l 694 1944 l 972 1944 l 972 1666 l 833 1666 l 833 1527 l 555 1527 l 555 1666 l 416 1666 l 416 1527 l 138 1527 z "},"Ò":{"ha":1111,"x_min":0,"x_max":972,"o":"m 555 277 l 555 1111 l 416 1111 l 416 277 l 555 277 m 0 0 l 0 1389 l 972 1389 l 972 0 l 0 0 m 416 1527 l 416 1666 l 277 1666 l 277 1944 l 555 1944 l 555 1805 l 694 1805 l 694 1527 l 416 1527 z "},"Ó":{"ha":1111,"x_min":0,"x_max":972,"o":"m 555 277 l 555 1111 l 416 1111 l 416 277 l 555 277 m 0 0 l 0 1389 l 972 1389 l 972 0 l 0 0 m 277 1527 l 277 1805 l 416 1805 l 416 1944 l 694 1944 l 694 1666 l 555 1666 l 555 1527 l 277 1527 z "},"Ô":{"ha":1111,"x_min":0,"x_max":972,"o":"m 555 277 l 555 1111 l 416 1111 l 416 277 l 555 277 m 0 0 l 0 1389 l 972 1389 l 972 0 l 0 0 m 138 1527 l 138 1805 l 277 1805 l 277 1944 l 694 1944 l 694 1805 l 833 1805 l 833 1527 l 555 1527 l 555 1666 l 416 1666 l 416 1527 l 138 1527 z "},"Õ":{"ha":1111,"x_min":0,"x_max":972,"o":"m 555 277 l 555 1111 l 416 1111 l 416 277 l 555 277 m 0 0 l 0 1389 l 972 1389 l 972 0 l 0 0 m 69 1527 l 69 1805 l 208 1805 l 208 1944 l 486 1944 l 486 1805 l 625 1805 l 625 1944 l 903 1944 l 903 1666 l 764 1666 l 764 1527 l 486 1527 l 486 1666 l 347 1666 l 347 1527 l 69 1527 z "},"Ö":{"ha":1111,"x_min":0,"x_max":972,"o":"m 555 277 l 555 1111 l 416 1111 l 416 277 l 555 277 m 0 0 l 0 1389 l 972 1389 l 972 0 l 0 0 m 138 1527 l 138 1805 l 416 1805 l 416 1527 l 138 1527 m 555 1527 l 555 1805 l 833 1805 l 833 1527 l 555 1527 z "},"×":{"ha":1111,"x_min":0,"x_max":972,"o":"m 0 208 l 0 486 l 138 486 l 138 625 l 277 625 l 277 764 l 138 764 l 138 903 l 0 903 l 0 1180 l 277 1180 l 277 1042 l 416 1042 l 416 903 l 555 903 l 555 1042 l 694 1042 l 694 1180 l 972 1180 l 972 903 l 833 903 l 833 764 l 694 764 l 694 625 l 833 625 l 833 486 l 972 486 l 972 208 l 694 208 l 694 347 l 555 347 l 555 486 l 416 486 l 416 347 l 277 347 l 277 208 l 0 208 z "},"Ø":{"ha":1111,"x_min":0,"x_max":972,"o":"m 555 277 l 555 555 l 416 555 l 416 277 l 555 277 m 555 833 l 555 1111 l 416 1111 l 416 833 l 555 833 m 138 -277 l 138 0 l 0 0 l 0 1389 l 555 1389 l 555 1666 l 833 1666 l 833 1389 l 972 1389 l 972 0 l 416 0 l 416 -277 l 138 -277 z "},"Ù":{"ha":1111,"x_min":0,"x_max":972,"o":"m 0 0 l 0 1389 l 416 1389 l 416 277 l 555 277 l 555 1389 l 972 1389 l 972 0 l 0 0 m 416 1527 l 416 1666 l 277 1666 l 277 1944 l 555 1944 l 555 1805 l 694 1805 l 694 1527 l 416 1527 z "},"Ú":{"ha":1111,"x_min":0,"x_max":972,"o":"m 0 0 l 0 1389 l 416 1389 l 416 277 l 555 277 l 555 1389 l 972 1389 l 972 0 l 0 0 m 277 1527 l 277 1805 l 416 1805 l 416 1944 l 694 1944 l 694 1666 l 555 1666 l 555 1527 l 277 1527 z "},"Û":{"ha":1111,"x_min":0,"x_max":972,"o":"m 0 0 l 0 1389 l 416 1389 l 416 277 l 555 277 l 555 1389 l 972 1389 l 972 0 l 0 0 m 138 1527 l 138 1805 l 277 1805 l 277 1944 l 694 1944 l 694 1805 l 833 1805 l 833 1527 l 555 1527 l 555 1666 l 416 1666 l 416 1527 l 138 1527 z "},"Ü":{"ha":1111,"x_min":0,"x_max":972,"o":"m 0 0 l 0 1389 l 416 1389 l 416 277 l 555 277 l 555 1389 l 972 1389 l 972 0 l 0 0 m 138 1527 l 138 1805 l 416 1805 l 416 1527 l 138 1527 m 555 1527 l 555 1805 l 833 1805 l 833 1527 l 555 1527 z "},"Ý":{"ha":1111,"x_min":0,"x_max":972,"o":"m 277 0 l 277 694 l 0 694 l 0 1389 l 416 1389 l 416 972 l 555 972 l 555 1389 l 972 1389 l 972 694 l 694 694 l 694 0 l 277 0 m 277 1527 l 277 1805 l 416 1805 l 416 1944 l 694 1944 l 694 1666 l 555 1666 l 555 1527 l 277 1527 z "},"Þ":{"ha":1111,"x_min":0,"x_max":972,"o":"m 555 555 l 555 833 l 416 833 l 416 555 l 555 555 m 0 0 l 0 1389 l 416 1389 l 416 1111 l 972 1111 l 972 277 l 416 277 l 416 0 l 0 0 z "},"ß":{"ha":1111,"x_min":0,"x_max":972,"o":"m 0 0 l 0 1250 l 138 1250 l 138 1389 l 972 1389 l 972 694 l 833 694 l 833 555 l 972 555 l 972 138 l 833 138 l 833 0 l 555 0 l 555 1111 l 416 1111 l 416 0 l 0 0 z "},"à":{"ha":1111,"x_min":0,"x_max":972,"o":"m 555 833 l 555 1111 l 416 1111 l 416 833 l 555 833 m 0 0 l 0 1389 l 972 1389 l 972 0 l 555 0 l 555 555 l 416 555 l 416 0 l 0 0 m 416 1527 l 416 1666 l 277 1666 l 277 1944 l 555 1944 l 555 1805 l 694 1805 l 694 1527 l 416 1527 z "},"á":{"ha":1111,"x_min":0,"x_max":972,"o":"m 555 833 l 555 1111 l 416 1111 l 416 833 l 555 833 m 0 0 l 0 1389 l 972 1389 l 972 0 l 555 0 l 555 555 l 416 555 l 416 0 l 0 0 m 277 1527 l 277 1805 l 416 1805 l 416 1944 l 694 1944 l 694 1666 l 555 1666 l 555 1527 l 277 1527 z "},"â":{"ha":1111,"x_min":0,"x_max":972,"o":"m 555 833 l 555 1111 l 416 1111 l 416 833 l 555 833 m 0 0 l 0 1389 l 972 1389 l 972 0 l 555 0 l 555 555 l 416 555 l 416 0 l 0 0 m 138 1527 l 138 1805 l 277 1805 l 277 1944 l 694 1944 l 694 1805 l 833 1805 l 833 1527 l 555 1527 l 555 1666 l 416 1666 l 416 1527 l 138 1527 z "},"ã":{"ha":1111,"x_min":0,"x_max":972,"o":"m 555 833 l 555 1111 l 416 1111 l 416 833 l 555 833 m 0 0 l 0 1389 l 972 1389 l 972 0 l 555 0 l 555 555 l 416 555 l 416 0 l 0 0 m 69 1527 l 69 1805 l 208 1805 l 208 1944 l 486 1944 l 486 1805 l 625 1805 l 625 1944 l 903 1944 l 903 1666 l 764 1666 l 764 1527 l 486 1527 l 486 1666 l 347 1666 l 347 1527 l 69 1527 z "},"ä":{"ha":1111,"x_min":0,"x_max":972,"o":"m 555 833 l 555 1111 l 416 1111 l 416 833 l 555 833 m 0 0 l 0 1389 l 972 1389 l 972 0 l 555 0 l 555 555 l 416 555 l 416 0 l 0 0 m 138 1527 l 138 1805 l 416 1805 l 416 1527 l 138 1527 m 555 1527 l 555 1805 l 833 1805 l 833 1527 l 555 1527 z "},"å":{"ha":1111,"x_min":0,"x_max":972,"o":"m 555 833 l 555 1111 l 416 1111 l 416 833 l 555 833 m 555 1666 l 555 1805 l 416 1805 l 416 1666 l 555 1666 m 0 0 l 0 1389 l 277 1389 l 277 1527 l 138 1527 l 138 1944 l 277 1944 l 277 2083 l 694 2083 l 694 1944 l 833 1944 l 833 1527 l 694 1527 l 694 1389 l 972 1389 l 972 0 l 555 0 l 555 555 l 416 555 l 416 0 l 0 0 z "},"æ":{"ha":1666,"x_min":0,"x_max":1527,"o":"m 555 833 l 555 1111 l 416 1111 l 416 833 l 555 833 m 0 0 l 0 1389 l 1527 1389 l 1527 1111 l 972 1111 l 972 833 l 1389 833 l 1389 555 l 972 555 l 972 277 l 1527 277 l 1527 0 l 555 0 l 555 555 l 416 555 l 416 0 l 0 0 z "},"ç":{"ha":1111,"x_min":0,"x_max":972,"o":"m 277 -555 l 277 -277 l 416 -277 l 416 0 l 0 0 l 0 1389 l 972 1389 l 972 1111 l 416 1111 l 416 277 l 972 277 l 972 0 l 694 0 l 694 -555 l 277 -555 z "},"è":{"ha":1111,"x_min":0,"x_max":972,"o":"m 0 0 l 0 1389 l 972 1389 l 972 1111 l 416 1111 l 416 833 l 833 833 l 833 555 l 416 555 l 416 277 l 972 277 l 972 0 l 0 0 m 416 1527 l 416 1666 l 277 1666 l 277 1944 l 555 1944 l 555 1805 l 694 1805 l 694 1527 l 416 1527 z "},"é":{"ha":1111,"x_min":0,"x_max":972,"o":"m 0 0 l 0 1389 l 972 1389 l 972 1111 l 416 1111 l 416 833 l 833 833 l 833 555 l 416 555 l 416 277 l 972 277 l 972 0 l 0 0 m 277 1527 l 277 1805 l 416 1805 l 416 1944 l 694 1944 l 694 1666 l 555 1666 l 555 1527 l 277 1527 z "},"ê":{"ha":1111,"x_min":0,"x_max":972,"o":"m 0 0 l 0 1389 l 972 1389 l 972 1111 l 416 1111 l 416 833 l 833 833 l 833 555 l 416 555 l 416 277 l 972 277 l 972 0 l 0 0 m 138 1527 l 138 1805 l 277 1805 l 277 1944 l 694 1944 l 694 1805 l 833 1805 l 833 1527 l 555 1527 l 555 1666 l 416 1666 l 416 1527 l 138 1527 z "},"ë":{"ha":1111,"x_min":0,"x_max":972,"o":"m 0 0 l 0 1389 l 972 1389 l 972 1111 l 416 1111 l 416 833 l 833 833 l 833 555 l 416 555 l 416 277 l 972 277 l 972 0 l 0 0 m 138 1527 l 138 1805 l 416 1805 l 416 1527 l 138 1527 m 555 1527 l 555 1805 l 833 1805 l 833 1527 l 555 1527 z "},"ì":{"ha":555,"x_min":0,"x_max":416,"o":"m 0 0 l 0 1389 l 416 1389 l 416 0 l 0 0 m 138 1527 l 138 1666 l 0 1666 l 0 1944 l 277 1944 l 277 1805 l 416 1805 l 416 1527 l 138 1527 z "},"í":{"ha":555,"x_min":0,"x_max":416,"o":"m 0 0 l 0 1389 l 416 1389 l 416 0 l 0 0 m 0 1527 l 0 1805 l 138 1805 l 138 1944 l 416 1944 l 416 1666 l 277 1666 l 277 1527 l 0 1527 z "},"î":{"ha":555,"x_min":-138,"x_max":555,"o":"m 0 0 l 0 1389 l 416 1389 l 416 0 l 0 0 m -138 1527 l -138 1805 l 0 1805 l 0 1944 l 416 1944 l 416 1805 l 555 1805 l 555 1527 l 277 1527 l 277 1666 l 138 1666 l 138 1527 l -138 1527 z "},"ï":{"ha":555,"x_min":-138,"x_max":555,"o":"m 0 0 l 0 1389 l 416 1389 l 416 0 l 0 0 m -138 1527 l -138 1805 l 138 1805 l 138 1527 l -138 1527 m 277 1527 l 277 1805 l 555 1805 l 555 1527 l 277 1527 z "},"ð":{"ha":1389,"x_min":0,"x_max":1250,"o":"m 833 277 l 833 1111 l 555 1111 l 555 833 l 694 833 l 694 555 l 555 555 l 555 277 l 833 277 m 138 0 l 138 555 l 0 555 l 0 833 l 138 833 l 138 1389 l 1111 1389 l 1111 1250 l 1250 1250 l 1250 138 l 1111 138 l 1111 0 l 138 0 z "},"ñ":{"ha":1250,"x_min":0,"x_max":1111,"o":"m 0 0 l 0 1389 l 416 1389 l 416 1111 l 555 1111 l 555 833 l 694 833 l 694 1389 l 1111 1389 l 1111 0 l 694 0 l 694 277 l 555 277 l 555 555 l 416 555 l 416 0 l 0 0 m 138 1527 l 138 1805 l 277 1805 l 277 1944 l 555 1944 l 555 1805 l 694 1805 l 694 1944 l 972 1944 l 972 1666 l 833 1666 l 833 1527 l 555 1527 l 555 1666 l 416 1666 l 416 1527 l 138 1527 z "},"ò":{"ha":1111,"x_min":0,"x_max":972,"o":"m 555 277 l 555 1111 l 416 1111 l 416 277 l 555 277 m 0 0 l 0 1389 l 972 1389 l 972 0 l 0 0 m 416 1527 l 416 1666 l 277 1666 l 277 1944 l 555 1944 l 555 1805 l 694 1805 l 694 1527 l 416 1527 z "},"ó":{"ha":1111,"x_min":0,"x_max":972,"o":"m 555 277 l 555 1111 l 416 1111 l 416 277 l 555 277 m 0 0 l 0 1389 l 972 1389 l 972 0 l 0 0 m 277 1527 l 277 1805 l 416 1805 l 416 1944 l 694 1944 l 694 1666 l 555 1666 l 555 1527 l 277 1527 z "},"ô":{"ha":1111,"x_min":0,"x_max":972,"o":"m 555 277 l 555 1111 l 416 1111 l 416 277 l 555 277 m 0 0 l 0 1389 l 972 1389 l 972 0 l 0 0 m 138 1527 l 138 1805 l 277 1805 l 277 1944 l 694 1944 l 694 1805 l 833 1805 l 833 1527 l 555 1527 l 555 1666 l 416 1666 l 416 1527 l 138 1527 z "},"õ":{"ha":1111,"x_min":0,"x_max":972,"o":"m 555 277 l 555 1111 l 416 1111 l 416 277 l 555 277 m 0 0 l 0 1389 l 972 1389 l 972 0 l 0 0 m 69 1527 l 69 1805 l 208 1805 l 208 1944 l 486 1944 l 486 1805 l 625 1805 l 625 1944 l 903 1944 l 903 1666 l 764 1666 l 764 1527 l 486 1527 l 486 1666 l 347 1666 l 347 1527 l 69 1527 z "},"ö":{"ha":1111,"x_min":0,"x_max":972,"o":"m 555 277 l 555 1111 l 416 1111 l 416 277 l 555 277 m 0 0 l 0 1389 l 972 1389 l 972 0 l 0 0 m 138 1527 l 138 1805 l 416 1805 l 416 1527 l 138 1527 m 555 1527 l 555 1805 l 833 1805 l 833 1527 l 555 1527 z "},"÷":{"ha":1250,"x_min":0,"x_max":1111,"o":"m 416 138 l 416 416 l 694 416 l 694 138 l 416 138 m 0 555 l 0 833 l 1111 833 l 1111 555 l 0 555 m 416 972 l 416 1250 l 694 1250 l 694 972 l 416 972 z "},"ø":{"ha":1111,"x_min":0,"x_max":972,"o":"m 555 277 l 555 555 l 416 555 l 416 277 l 555 277 m 555 833 l 555 1111 l 416 1111 l 416 833 l 555 833 m 138 -277 l 138 0 l 0 0 l 0 1389 l 555 1389 l 555 1666 l 833 1666 l 833 1389 l 972 1389 l 972 0 l 416 0 l 416 -277 l 138 -277 z "},"ù":{"ha":1111,"x_min":0,"x_max":972,"o":"m 0 0 l 0 1389 l 416 1389 l 416 277 l 555 277 l 555 1389 l 972 1389 l 972 0 l 0 0 m 416 1527 l 416 1666 l 277 1666 l 277 1944 l 555 1944 l 555 1805 l 694 1805 l 694 1527 l 416 1527 z "},"ú":{"ha":1111,"x_min":0,"x_max":972,"o":"m 0 0 l 0 1389 l 416 1389 l 416 277 l 555 277 l 555 1389 l 972 1389 l 972 0 l 0 0 m 277 1527 l 277 1805 l 416 1805 l 416 1944 l 694 1944 l 694 1666 l 555 1666 l 555 1527 l 277 1527 z "},"û":{"ha":1111,"x_min":0,"x_max":972,"o":"m 0 0 l 0 1389 l 416 1389 l 416 277 l 555 277 l 555 1389 l 972 1389 l 972 0 l 0 0 m 138 1527 l 138 1805 l 277 1805 l 277 1944 l 694 1944 l 694 1805 l 833 1805 l 833 1527 l 555 1527 l 555 1666 l 416 1666 l 416 1527 l 138 1527 z "},"ü":{"ha":1111,"x_min":0,"x_max":972,"o":"m 0 0 l 0 1389 l 416 1389 l 416 277 l 555 277 l 555 1389 l 972 1389 l 972 0 l 0 0 m 138 1527 l 138 1805 l 416 1805 l 416 1527 l 138 1527 m 555 1527 l 555 1805 l 833 1805 l 833 1527 l 555 1527 z "},"ý":{"ha":1111,"x_min":0,"x_max":972,"o":"m 277 0 l 277 694 l 0 694 l 0 1389 l 416 1389 l 416 972 l 555 972 l 555 1389 l 972 1389 l 972 694 l 694 694 l 694 0 l 277 0 m 277 1527 l 277 1805 l 416 1805 l 416 1944 l 694 1944 l 694 1666 l 555 1666 l 555 1527 l 277 1527 z "},"þ":{"ha":1111,"x_min":0,"x_max":972,"o":"m 555 555 l 555 833 l 416 833 l 416 555 l 555 555 m 0 0 l 0 1389 l 416 1389 l 416 1111 l 972 1111 l 972 277 l 416 277 l 416 0 l 0 0 z "},"ÿ":{"ha":1111,"x_min":0,"x_max":972,"o":"m 277 0 l 277 694 l 0 694 l 0 1389 l 416 1389 l 416 972 l 555 972 l 555 1389 l 972 1389 l 972 694 l 694 694 l 694 0 l 277 0 m 138 1527 l 138 1805 l 416 1805 l 416 1527 l 138 1527 m 555 1527 l 555 1805 l 833 1805 l 833 1527 l 555 1527 z "},"Ā":{"ha":1111,"x_min":0,"x_max":972,"o":"m 625 764 l 625 972 l 555 972 l 555 1042 l 694 1042 l 694 1180 l 555 1180 l 555 1042 l 416 1042 l 416 1180 l 277 1180 l 277 1042 l 416 1042 l 416 972 l 347 972 l 347 764 l 416 764 l 416 833 l 555 833 l 555 764 l 625 764 m 0 0 l 0 1389 l 972 1389 l 972 0 l 555 0 l 555 555 l 416 555 l 416 0 l 0 0 m 138 1527 l 138 1805 l 833 1805 l 833 1527 l 138 1527 z "},"ā":{"ha":1111,"x_min":0,"x_max":972,"o":"m 555 833 l 555 1111 l 416 1111 l 416 833 l 555 833 m 0 0 l 0 1389 l 972 1389 l 972 0 l 555 0 l 555 555 l 416 555 l 416 0 l 0 0 m 138 1527 l 138 1805 l 833 1805 l 833 1527 l 138 1527 z "},"Ă":{"ha":1111,"x_min":0,"x_max":972,"o":"m 625 764 l 625 972 l 555 972 l 555 1042 l 694 1042 l 694 1180 l 555 1180 l 555 1042 l 416 1042 l 416 1180 l 277 1180 l 277 1042 l 416 1042 l 416 972 l 347 972 l 347 764 l 416 764 l 416 833 l 555 833 l 555 764 l 625 764 m 0 0 l 0 1389 l 972 1389 l 972 0 l 555 0 l 555 555 l 416 555 l 416 0 l 0 0 m 0 1527 l 0 1944 l 277 1944 l 277 1805 l 694 1805 l 694 1944 l 972 1944 l 972 1527 l 0 1527 z "},"ă":{"ha":1111,"x_min":0,"x_max":972,"o":"m 555 833 l 555 1111 l 416 1111 l 416 833 l 555 833 m 0 0 l 0 1389 l 972 1389 l 972 0 l 555 0 l 555 555 l 416 555 l 416 0 l 0 0 m 0 1527 l 0 1944 l 277 1944 l 277 1805 l 694 1805 l 694 1944 l 972 1944 l 972 1527 l 0 1527 z "},"Ą":{"ha":1111,"x_min":0,"x_max":972,"o":"m 625 764 l 625 972 l 555 972 l 555 1042 l 694 1042 l 694 1180 l 555 1180 l 555 1042 l 416 1042 l 416 1180 l 277 1180 l 277 1042 l 416 1042 l 416 972 l 347 972 l 347 764 l 416 764 l 416 833 l 555 833 l 555 764 l 625 764 m 555 -555 l 555 555 l 416 555 l 416 0 l 0 0 l 0 1389 l 972 1389 l 972 0 l 833 0 l 833 -277 l 972 -277 l 972 -555 l 555 -555 z "},"ą":{"ha":1111,"x_min":0,"x_max":972,"o":"m 555 833 l 555 1111 l 416 1111 l 416 833 l 555 833 m 555 -555 l 555 555 l 416 555 l 416 0 l 0 0 l 0 1389 l 972 1389 l 972 0 l 833 0 l 833 -277 l 972 -277 l 972 -555 l 555 -555 z "},"Ć":{"ha":1111,"x_min":0,"x_max":972,"o":"m 0 0 l 0 1389 l 972 1389 l 972 1111 l 416 1111 l 416 277 l 972 277 l 972 0 l 0 0 m 277 1527 l 277 1805 l 416 1805 l 416 1944 l 694 1944 l 694 1666 l 555 1666 l 555 1527 l 277 1527 z "},"ć":{"ha":1111,"x_min":0,"x_max":972,"o":"m 0 0 l 0 1389 l 972 1389 l 972 1111 l 416 1111 l 416 277 l 972 277 l 972 0 l 0 0 m 277 1527 l 277 1805 l 416 1805 l 416 1944 l 694 1944 l 694 1666 l 555 1666 l 555 1527 l 277 1527 z "},"Ĉ":{"ha":1111,"x_min":0,"x_max":972,"o":"m 0 0 l 0 1389 l 972 1389 l 972 1111 l 416 1111 l 416 277 l 972 277 l 972 0 l 0 0 m 138 1527 l 138 1805 l 277 1805 l 277 1944 l 694 1944 l 694 1805 l 833 1805 l 833 1527 l 555 1527 l 555 1666 l 416 1666 l 416 1527 l 138 1527 z "},"ĉ":{"ha":1111,"x_min":0,"x_max":972,"o":"m 0 0 l 0 1389 l 972 1389 l 972 1111 l 416 1111 l 416 277 l 972 277 l 972 0 l 0 0 m 138 1527 l 138 1805 l 277 1805 l 277 1944 l 694 1944 l 694 1805 l 833 1805 l 833 1527 l 555 1527 l 555 1666 l 416 1666 l 416 1527 l 138 1527 z "},"Ċ":{"ha":1111,"x_min":0,"x_max":972,"o":"m 0 0 l 0 1389 l 972 1389 l 972 1111 l 416 1111 l 416 277 l 972 277 l 972 0 l 0 0 m 347 1527 l 347 1805 l 625 1805 l 625 1527 l 347 1527 z "},"ċ":{"ha":1111,"x_min":0,"x_max":972,"o":"m 0 0 l 0 1389 l 972 1389 l 972 1111 l 416 1111 l 416 277 l 972 277 l 972 0 l 0 0 m 347 1527 l 347 1805 l 625 1805 l 625 1527 l 347 1527 z "},"Č":{"ha":1111,"x_min":0,"x_max":972,"o":"m 0 0 l 0 1389 l 972 1389 l 972 1111 l 416 1111 l 416 277 l 972 277 l 972 0 l 0 0 m 277 1527 l 277 1666 l 138 1666 l 138 1944 l 416 1944 l 416 1805 l 555 1805 l 555 1944 l 833 1944 l 833 1666 l 694 1666 l 694 1527 l 277 1527 z "},"č":{"ha":1111,"x_min":0,"x_max":972,"o":"m 0 0 l 0 1389 l 972 1389 l 972 1111 l 416 1111 l 416 277 l 972 277 l 972 0 l 0 0 m 277 1527 l 277 1666 l 138 1666 l 138 1944 l 416 1944 l 416 1805 l 555 1805 l 555 1944 l 833 1944 l 833 1666 l 694 1666 l 694 1527 l 277 1527 z "},"Ď":{"ha":1111,"x_min":0,"x_max":972,"o":"m 555 277 l 555 1111 l 416 1111 l 416 277 l 555 277 m 0 0 l 0 1389 l 833 1389 l 833 1250 l 972 1250 l 972 138 l 833 138 l 833 0 l 0 0 m 277 1527 l 277 1666 l 138 1666 l 138 1944 l 416 1944 l 416 1805 l 555 1805 l 555 1944 l 833 1944 l 833 1666 l 694 1666 l 694 1527 l 277 1527 z "},"ď":{"ha":1111,"x_min":0,"x_max":972,"o":"m 555 277 l 555 1111 l 416 1111 l 416 277 l 555 277 m 0 0 l 0 1389 l 833 1389 l 833 1250 l 972 1250 l 972 138 l 833 138 l 833 0 l 0 0 m 277 1527 l 277 1666 l 138 1666 l 138 1944 l 416 1944 l 416 1805 l 555 1805 l 555 1944 l 833 1944 l 833 1666 l 694 1666 l 694 1527 l 277 1527 z "},"Đ":{"ha":1389,"x_min":0,"x_max":1250,"o":"m 833 277 l 833 1111 l 555 1111 l 555 833 l 694 833 l 694 555 l 555 555 l 555 277 l 833 277 m 138 0 l 138 555 l 0 555 l 0 833 l 138 833 l 138 1389 l 1111 1389 l 1111 1250 l 1250 1250 l 1250 138 l 1111 138 l 1111 0 l 138 0 z "},"đ":{"ha":1389,"x_min":0,"x_max":1250,"o":"m 833 277 l 833 1111 l 555 1111 l 555 833 l 694 833 l 694 555 l 555 555 l 555 277 l 833 277 m 138 0 l 138 555 l 0 555 l 0 833 l 138 833 l 138 1389 l 1111 1389 l 1111 1250 l 1250 1250 l 1250 138 l 1111 138 l 1111 0 l 138 0 z "},"Ē":{"ha":1111,"x_min":0,"x_max":972,"o":"m 0 0 l 0 1389 l 972 1389 l 972 1111 l 416 1111 l 416 833 l 833 833 l 833 555 l 416 555 l 416 277 l 972 277 l 972 0 l 0 0 m 138 1527 l 138 1805 l 833 1805 l 833 1527 l 138 1527 z "},"ē":{"ha":1111,"x_min":0,"x_max":972,"o":"m 0 0 l 0 1389 l 972 1389 l 972 1111 l 416 1111 l 416 833 l 833 833 l 833 555 l 416 555 l 416 277 l 972 277 l 972 0 l 0 0 m 138 1527 l 138 1805 l 833 1805 l 833 1527 l 138 1527 z "},"Ĕ":{"ha":1111,"x_min":0,"x_max":972,"o":"m 0 0 l 0 1389 l 972 1389 l 972 1111 l 416 1111 l 416 833 l 833 833 l 833 555 l 416 555 l 416 277 l 972 277 l 972 0 l 0 0 m 0 1527 l 0 1944 l 277 1944 l 277 1805 l 694 1805 l 694 1944 l 972 1944 l 972 1527 l 0 1527 z "},"ĕ":{"ha":1111,"x_min":0,"x_max":972,"o":"m 0 0 l 0 1389 l 972 1389 l 972 1111 l 416 1111 l 416 833 l 833 833 l 833 555 l 416 555 l 416 277 l 972 277 l 972 0 l 0 0 m 0 1527 l 0 1944 l 277 1944 l 277 1805 l 694 1805 l 694 1944 l 972 1944 l 972 1527 l 0 1527 z "},"Ė":{"ha":1111,"x_min":0,"x_max":972,"o":"m 0 0 l 0 1389 l 972 1389 l 972 1111 l 416 1111 l 416 833 l 833 833 l 833 555 l 416 555 l 416 277 l 972 277 l 972 0 l 0 0 m 347 1527 l 347 1805 l 625 1805 l 625 1527 l 347 1527 z "},"ė":{"ha":1111,"x_min":0,"x_max":972,"o":"m 0 0 l 0 1389 l 972 1389 l 972 1111 l 416 1111 l 416 833 l 833 833 l 833 555 l 416 555 l 416 277 l 972 277 l 972 0 l 0 0 m 347 1527 l 347 1805 l 625 1805 l 625 1527 l 347 1527 z "},"Ę":{"ha":1111,"x_min":0,"x_max":972,"o":"m 277 -555 l 277 0 l 0 0 l 0 1389 l 972 1389 l 972 1111 l 416 1111 l 416 833 l 833 833 l 833 555 l 416 555 l 416 277 l 972 277 l 972 0 l 555 0 l 555 -277 l 694 -277 l 694 -555 l 277 -555 z "},"ę":{"ha":1111,"x_min":0,"x_max":972,"o":"m 277 -555 l 277 0 l 0 0 l 0 1389 l 972 1389 l 972 1111 l 416 1111 l 416 833 l 833 833 l 833 555 l 416 555 l 416 277 l 972 277 l 972 0 l 555 0 l 555 -277 l 694 -277 l 694 -555 l 277 -555 z "},"Ě":{"ha":1111,"x_min":0,"x_max":972,"o":"m 0 0 l 0 1389 l 972 1389 l 972 1111 l 416 1111 l 416 833 l 833 833 l 833 555 l 416 555 l 416 277 l 972 277 l 972 0 l 0 0 m 277 1527 l 277 1666 l 138 1666 l 138 1944 l 416 1944 l 416 1805 l 555 1805 l 555 1944 l 833 1944 l 833 1666 l 694 1666 l 694 1527 l 277 1527 z "},"ě":{"ha":1111,"x_min":0,"x_max":972,"o":"m 0 0 l 0 1389 l 972 1389 l 972 1111 l 416 1111 l 416 833 l 833 833 l 833 555 l 416 555 l 416 277 l 972 277 l 972 0 l 0 0 m 277 1527 l 277 1666 l 138 1666 l 138 1944 l 416 1944 l 416 1805 l 555 1805 l 555 1944 l 833 1944 l 833 1666 l 694 1666 l 694 1527 l 277 1527 z "},"Ĝ":{"ha":1111,"x_min":0,"x_max":972,"o":"m 0 0 l 0 1389 l 972 1389 l 972 1111 l 416 1111 l 416 277 l 555 277 l 555 833 l 972 833 l 972 0 l 0 0 m 138 1527 l 138 1805 l 277 1805 l 277 1944 l 694 1944 l 694 1805 l 833 1805 l 833 1527 l 555 1527 l 555 1666 l 416 1666 l 416 1527 l 138 1527 z "},"ĝ":{"ha":1111,"x_min":0,"x_max":972,"o":"m 0 0 l 0 1389 l 972 1389 l 972 1111 l 416 1111 l 416 277 l 555 277 l 555 833 l 972 833 l 972 0 l 0 0 m 138 1527 l 138 1805 l 277 1805 l 277 1944 l 694 1944 l 694 1805 l 833 1805 l 833 1527 l 555 1527 l 555 1666 l 416 1666 l 416 1527 l 138 1527 z "},"Ğ":{"ha":1111,"x_min":0,"x_max":972,"o":"m 0 0 l 0 1389 l 972 1389 l 972 1111 l 416 1111 l 416 277 l 555 277 l 555 833 l 972 833 l 972 0 l 0 0 m 0 1527 l 0 1944 l 277 1944 l 277 1805 l 694 1805 l 694 1944 l 972 1944 l 972 1527 l 0 1527 z "},"ğ":{"ha":1111,"x_min":0,"x_max":972,"o":"m 0 0 l 0 1389 l 972 1389 l 972 1111 l 416 1111 l 416 277 l 555 277 l 555 833 l 972 833 l 972 0 l 0 0 m 0 1527 l 0 1944 l 277 1944 l 277 1805 l 694 1805 l 694 1944 l 972 1944 l 972 1527 l 0 1527 z "},"Ġ":{"ha":1111,"x_min":0,"x_max":972,"o":"m 0 0 l 0 1389 l 972 1389 l 972 1111 l 416 1111 l 416 277 l 555 277 l 555 833 l 972 833 l 972 0 l 0 0 m 347 1527 l 347 1805 l 625 1805 l 625 1527 l 347 1527 z "},"ġ":{"ha":1111,"x_min":0,"x_max":972,"o":"m 0 0 l 0 1389 l 972 1389 l 972 1111 l 416 1111 l 416 277 l 555 277 l 555 833 l 972 833 l 972 0 l 0 0 m 347 1527 l 347 1805 l 625 1805 l 625 1527 l 347 1527 z "},"Ģ":{"ha":1111,"x_min":0,"x_max":972,"o":"m 416 -555 l 416 -416 l 277 -416 l 277 -138 l 694 -138 l 694 -555 l 416 -555 m 0 0 l 0 1389 l 972 1389 l 972 1111 l 416 1111 l 416 277 l 555 277 l 555 833 l 972 833 l 972 0 l 0 0 z "},"ģ":{"ha":1111,"x_min":0,"x_max":972,"o":"m 416 -555 l 416 -416 l 277 -416 l 277 -138 l 694 -138 l 694 -555 l 416 -555 m 0 0 l 0 1389 l 972 1389 l 972 1111 l 416 1111 l 416 277 l 555 277 l 555 833 l 972 833 l 972 0 l 0 0 z "},"Ĥ":{"ha":1111,"x_min":0,"x_max":972,"o":"m 0 0 l 0 1389 l 416 1389 l 416 833 l 555 833 l 555 1389 l 972 1389 l 972 0 l 555 0 l 555 555 l 416 555 l 416 0 l 0 0 m 138 1527 l 138 1805 l 277 1805 l 277 1944 l 694 1944 l 694 1805 l 833 1805 l 833 1527 l 555 1527 l 555 1666 l 416 1666 l 416 1527 l 138 1527 z "},"ĥ":{"ha":1111,"x_min":0,"x_max":972,"o":"m 0 0 l 0 1389 l 416 1389 l 416 833 l 555 833 l 555 1389 l 972 1389 l 972 0 l 555 0 l 555 555 l 416 555 l 416 0 l 0 0 m 138 1527 l 138 1805 l 277 1805 l 277 1944 l 694 1944 l 694 1805 l 833 1805 l 833 1527 l 555 1527 l 555 1666 l 416 1666 l 416 1527 l 138 1527 z "},"Ħ":{"ha":1389,"x_min":0,"x_max":1250,"o":"m 694 833 l 694 972 l 555 972 l 555 833 l 694 833 m 138 0 l 138 972 l 0 972 l 0 1250 l 138 1250 l 138 1389 l 555 1389 l 555 1250 l 694 1250 l 694 1389 l 1111 1389 l 1111 1250 l 1250 1250 l 1250 972 l 1111 972 l 1111 0 l 694 0 l 694 555 l 555 555 l 555 0 l 138 0 z "},"ħ":{"ha":1389,"x_min":0,"x_max":1250,"o":"m 694 833 l 694 972 l 555 972 l 555 833 l 694 833 m 138 0 l 138 972 l 0 972 l 0 1250 l 138 1250 l 138 1389 l 555 1389 l 555 1250 l 694 1250 l 694 1389 l 1111 1389 l 1111 1250 l 1250 1250 l 1250 972 l 1111 972 l 1111 0 l 694 0 l 694 555 l 555 555 l 555 0 l 138 0 z "},"Ĩ":{"ha":1111,"x_min":69,"x_max":903,"o":"m 277 0 l 277 1389 l 694 1389 l 694 0 l 277 0 m 69 1527 l 69 1805 l 208 1805 l 208 1944 l 486 1944 l 486 1805 l 625 1805 l 625 1944 l 903 1944 l 903 1666 l 764 1666 l 764 1527 l 486 1527 l 486 1666 l 347 1666 l 347 1527 l 69 1527 z "},"ĩ":{"ha":1111,"x_min":69,"x_max":903,"o":"m 277 0 l 277 1389 l 694 1389 l 694 0 l 277 0 m 69 1527 l 69 1805 l 208 1805 l 208 1944 l 486 1944 l 486 1805 l 625 1805 l 625 1944 l 903 1944 l 903 1666 l 764 1666 l 764 1527 l 486 1527 l 486 1666 l 347 1666 l 347 1527 l 69 1527 z "},"Ī":{"ha":833,"x_min":0,"x_max":694,"o":"m 138 0 l 138 1389 l 555 1389 l 555 0 l 138 0 m 0 1527 l 0 1805 l 694 1805 l 694 1527 l 0 1527 z "},"ī":{"ha":833,"x_min":0,"x_max":694,"o":"m 138 0 l 138 1389 l 555 1389 l 555 0 l 138 0 m 0 1527 l 0 1805 l 694 1805 l 694 1527 l 0 1527 z "},"Ĭ":{"ha":833,"x_min":0,"x_max":694,"o":"m 138 0 l 138 1389 l 555 1389 l 555 0 l 138 0 m 0 1527 l 0 1944 l 277 1944 l 277 1805 l 416 1805 l 416 1944 l 694 1944 l 694 1527 l 0 1527 z "},"ĭ":{"ha":833,"x_min":0,"x_max":694,"o":"m 138 0 l 138 1389 l 555 1389 l 555 0 l 138 0 m 0 1527 l 0 1944 l 277 1944 l 277 1805 l 416 1805 l 416 1944 l 694 1944 l 694 1527 l 0 1527 z "},"Į":{"ha":555,"x_min":0,"x_max":416,"o":"m 0 -555 l 0 1389 l 416 1389 l 416 0 l 277 0 l 277 -277 l 416 -277 l 416 -555 l 0 -555 z "},"į":{"ha":555,"x_min":0,"x_max":416,"o":"m 0 -555 l 0 1389 l 416 1389 l 416 0 l 277 0 l 277 -277 l 416 -277 l 416 -555 l 0 -555 z "},"İ":{"ha":555,"x_min":0,"x_max":416,"o":"m 0 0 l 0 1389 l 416 1389 l 416 0 l 0 0 m 69 1527 l 69 1805 l 347 1805 l 347 1527 l 69 1527 z "},"ı":{"ha":555,"x_min":0,"x_max":416,"o":"m 0 0 l 0 1389 l 416 1389 l 416 0 l 0 0 z "},"Ĳ":{"ha":1666,"x_min":0,"x_max":1527,"o":"m 0 0 l 0 1389 l 416 1389 l 416 0 l 0 0 m 555 0 l 555 555 l 972 555 l 972 277 l 1111 277 l 1111 1389 l 1527 1389 l 1527 0 l 555 0 z "},"ĳ":{"ha":1666,"x_min":0,"x_max":1527,"o":"m 0 0 l 0 1389 l 416 1389 l 416 0 l 0 0 m 555 0 l 555 555 l 972 555 l 972 277 l 1111 277 l 1111 1389 l 1527 1389 l 1527 0 l 555 0 z "},"Ĵ":{"ha":1111,"x_min":0,"x_max":972,"o":"m 0 0 l 0 555 l 416 555 l 416 277 l 555 277 l 555 1389 l 972 1389 l 972 0 l 0 0 m 138 1527 l 138 1805 l 277 1805 l 277 1944 l 694 1944 l 694 1805 l 833 1805 l 833 1527 l 555 1527 l 555 1666 l 416 1666 l 416 1527 l 138 1527 z "},"ĵ":{"ha":1111,"x_min":0,"x_max":972,"o":"m 0 0 l 0 555 l 416 555 l 416 277 l 555 277 l 555 1389 l 972 1389 l 972 0 l 0 0 m 138 1527 l 138 1805 l 277 1805 l 277 1944 l 694 1944 l 694 1805 l 833 1805 l 833 1527 l 555 1527 l 555 1666 l 416 1666 l 416 1527 l 138 1527 z "},"Ķ":{"ha":1111,"x_min":0,"x_max":972,"o":"m 416 -555 l 416 -416 l 277 -416 l 277 -138 l 694 -138 l 694 -555 l 416 -555 m 0 0 l 0 1389 l 416 1389 l 416 972 l 555 972 l 555 1389 l 972 1389 l 972 833 l 694 833 l 694 694 l 972 694 l 972 0 l 555 0 l 555 416 l 416 416 l 416 0 l 0 0 z "},"ķ":{"ha":1111,"x_min":0,"x_max":972,"o":"m 416 -555 l 416 -416 l 277 -416 l 277 -138 l 694 -138 l 694 -555 l 416 -555 m 0 0 l 0 1389 l 416 1389 l 416 972 l 555 972 l 555 1389 l 972 1389 l 972 833 l 694 833 l 694 694 l 972 694 l 972 0 l 555 0 l 555 416 l 416 416 l 416 0 l 0 0 z "},"ĸ":{"ha":1111,"x_min":0,"x_max":972,"o":"m 0 0 l 0 1389 l 416 1389 l 416 972 l 555 972 l 555 1389 l 972 1389 l 972 833 l 694 833 l 694 694 l 972 694 l 972 0 l 555 0 l 555 416 l 416 416 l 416 0 l 0 0 z "},"Ĺ":{"ha":1111,"x_min":0,"x_max":972,"o":"m 0 0 l 0 1389 l 416 1389 l 416 277 l 972 277 l 972 0 l 0 0 m 277 1527 l 277 1805 l 416 1805 l 416 1944 l 694 1944 l 694 1666 l 555 1666 l 555 1527 l 277 1527 z "},"ĺ":{"ha":1111,"x_min":0,"x_max":972,"o":"m 0 0 l 0 1389 l 416 1389 l 416 277 l 972 277 l 972 0 l 0 0 m 277 1527 l 277 1805 l 416 1805 l 416 1944 l 694 1944 l 694 1666 l 555 1666 l 555 1527 l 277 1527 z "},"Ļ":{"ha":1111,"x_min":0,"x_max":972,"o":"m 0 0 l 0 1389 l 416 1389 l 416 277 l 972 277 l 972 0 l 0 0 z "},"ļ":{"ha":1111,"x_min":0,"x_max":972,"o":"m 0 0 l 0 1389 l 416 1389 l 416 277 l 972 277 l 972 0 l 0 0 z "},"Ľ":{"ha":1111,"x_min":0,"x_max":972,"o":"m 0 0 l 0 1389 l 416 1389 l 416 277 l 972 277 l 972 0 l 0 0 m 694 694 l 694 972 l 555 972 l 555 1389 l 972 1389 l 972 694 l 694 694 z "},"ľ":{"ha":1111,"x_min":0,"x_max":972,"o":"m 0 0 l 0 1389 l 416 1389 l 416 277 l 972 277 l 972 0 l 0 0 m 694 694 l 694 972 l 555 972 l 555 1389 l 972 1389 l 972 694 l 694 694 z "},"Ŀ":{"ha":1111,"x_min":0,"x_max":972,"o":"m 555 694 l 555 972 l 833 972 l 833 694 l 555 694 m 0 0 l 0 1389 l 416 1389 l 416 277 l 972 277 l 972 0 l 0 0 z "},"ŀ":{"ha":1111,"x_min":0,"x_max":972,"o":"m 555 694 l 555 972 l 833 972 l 833 694 l 555 694 m 0 0 l 0 1389 l 416 1389 l 416 277 l 972 277 l 972 0 l 0 0 z "},"Ł":{"ha":1250,"x_min":0,"x_max":1111,"o":"m 138 0 l 138 555 l 0 555 l 0 833 l 138 833 l 138 1389 l 555 1389 l 555 972 l 694 972 l 694 694 l 555 694 l 555 277 l 1111 277 l 1111 0 l 138 0 z "},"ł":{"ha":1389,"x_min":138,"x_max":1250,"o":"m 277 0 l 277 555 l 138 555 l 138 833 l 277 833 l 277 1389 l 694 1389 l 694 972 l 833 972 l 833 694 l 694 694 l 694 277 l 1250 277 l 1250 0 l 277 0 z "},"Ń":{"ha":1250,"x_min":0,"x_max":1111,"o":"m 0 0 l 0 1389 l 416 1389 l 416 1111 l 555 1111 l 555 833 l 694 833 l 694 1389 l 1111 1389 l 1111 0 l 694 0 l 694 277 l 555 277 l 555 555 l 416 555 l 416 0 l 0 0 m 347 1527 l 347 1805 l 486 1805 l 486 1944 l 764 1944 l 764 1666 l 625 1666 l 625 1527 l 347 1527 z "},"ń":{"ha":1250,"x_min":0,"x_max":1111,"o":"m 0 0 l 0 1389 l 416 1389 l 416 1111 l 555 1111 l 555 833 l 694 833 l 694 1389 l 1111 1389 l 1111 0 l 694 0 l 694 277 l 555 277 l 555 555 l 416 555 l 416 0 l 0 0 m 347 1527 l 347 1805 l 486 1805 l 486 1944 l 764 1944 l 764 1666 l 625 1666 l 625 1527 l 347 1527 z "},"Ņ":{"ha":1250,"x_min":0,"x_max":1111,"o":"m 486 -555 l 486 -416 l 347 -416 l 347 -138 l 764 -138 l 764 -555 l 486 -555 m 0 0 l 0 1389 l 416 1389 l 416 1111 l 555 1111 l 555 833 l 694 833 l 694 1389 l 1111 1389 l 1111 0 l 694 0 l 694 277 l 555 277 l 555 555 l 416 555 l 416 0 l 0 0 z "},"ņ":{"ha":1250,"x_min":0,"x_max":1111,"o":"m 486 -555 l 486 -416 l 347 -416 l 347 -138 l 764 -138 l 764 -555 l 486 -555 m 0 0 l 0 1389 l 416 1389 l 416 1111 l 555 1111 l 555 833 l 694 833 l 694 1389 l 1111 1389 l 1111 0 l 694 0 l 694 277 l 555 277 l 555 555 l 416 555 l 416 0 l 0 0 z "},"Ň":{"ha":1250,"x_min":0,"x_max":1111,"o":"m 0 0 l 0 1389 l 416 1389 l 416 1111 l 555 1111 l 555 833 l 694 833 l 694 1389 l 1111 1389 l 1111 0 l 694 0 l 694 277 l 555 277 l 555 555 l 416 555 l 416 0 l 0 0 m 347 1527 l 347 1666 l 208 1666 l 208 1944 l 486 1944 l 486 1805 l 625 1805 l 625 1944 l 903 1944 l 903 1666 l 764 1666 l 764 1527 l 347 1527 z "},"ň":{"ha":1250,"x_min":0,"x_max":1111,"o":"m 0 0 l 0 1389 l 416 1389 l 416 1111 l 555 1111 l 555 833 l 694 833 l 694 1389 l 1111 1389 l 1111 0 l 694 0 l 694 277 l 555 277 l 555 555 l 416 555 l 416 0 l 0 0 m 347 1527 l 347 1666 l 208 1666 l 208 1944 l 486 1944 l 486 1805 l 625 1805 l 625 1944 l 903 1944 l 903 1666 l 764 1666 l 764 1527 l 347 1527 z "},"ŉ":{"ha":1805,"x_min":0,"x_max":1666,"o":"m 138 694 l 138 972 l 0 972 l 0 1389 l 416 1389 l 416 694 l 138 694 m 555 0 l 555 1389 l 972 1389 l 972 1111 l 1111 1111 l 1111 833 l 1250 833 l 1250 1389 l 1666 1389 l 1666 0 l 1250 0 l 1250 277 l 1111 277 l 1111 555 l 972 555 l 972 0 l 555 0 z "},"Ŋ":{"ha":1250,"x_min":0,"x_max":1111,"o":"m 555 -277 l 555 0 l 694 0 l 694 277 l 555 277 l 555 555 l 416 555 l 416 0 l 0 0 l 0 1389 l 416 1389 l 416 1111 l 555 1111 l 555 833 l 694 833 l 694 1389 l 1111 1389 l 1111 -138 l 972 -138 l 972 -277 l 555 -277 z "},"ŋ":{"ha":1250,"x_min":0,"x_max":1111,"o":"m 555 -277 l 555 0 l 694 0 l 694 277 l 555 277 l 555 555 l 416 555 l 416 0 l 0 0 l 0 1389 l 416 1389 l 416 1111 l 555 1111 l 555 833 l 694 833 l 694 1389 l 1111 1389 l 1111 -138 l 972 -138 l 972 -277 l 555 -277 z "},"Ō":{"ha":1111,"x_min":0,"x_max":972,"o":"m 555 277 l 555 1111 l 416 1111 l 416 277 l 555 277 m 0 0 l 0 1389 l 972 1389 l 972 0 l 0 0 m 138 1527 l 138 1805 l 833 1805 l 833 1527 l 138 1527 z "},"ō":{"ha":1111,"x_min":0,"x_max":972,"o":"m 555 277 l 555 1111 l 416 1111 l 416 277 l 555 277 m 0 0 l 0 1389 l 972 1389 l 972 0 l 0 0 m 138 1527 l 138 1805 l 833 1805 l 833 1527 l 138 1527 z "},"Ŏ":{"ha":1111,"x_min":0,"x_max":972,"o":"m 555 277 l 555 1111 l 416 1111 l 416 277 l 555 277 m 0 0 l 0 1389 l 972 1389 l 972 0 l 0 0 m 0 1527 l 0 1944 l 277 1944 l 277 1805 l 694 1805 l 694 1944 l 972 1944 l 972 1527 l 0 1527 z "},"ŏ":{"ha":1111,"x_min":0,"x_max":972,"o":"m 555 277 l 555 1111 l 416 1111 l 416 277 l 555 277 m 0 0 l 0 1389 l 972 1389 l 972 0 l 0 0 m 0 1527 l 0 1944 l 277 1944 l 277 1805 l 694 1805 l 694 1944 l 972 1944 l 972 1527 l 0 1527 z "},"Ő":{"ha":1111,"x_min":0,"x_max":972,"o":"m 555 277 l 555 1111 l 416 1111 l 416 277 l 555 277 m 0 0 l 0 1389 l 972 1389 l 972 0 l 0 0 m 0 1527 l 0 1805 l 138 1805 l 138 1944 l 416 1944 l 416 1666 l 277 1666 l 277 1527 l 0 1527 m 555 1527 l 555 1805 l 694 1805 l 694 1944 l 972 1944 l 972 1666 l 833 1666 l 833 1527 l 555 1527 z "},"ő":{"ha":1111,"x_min":0,"x_max":972,"o":"m 555 277 l 555 1111 l 416 1111 l 416 277 l 555 277 m 0 0 l 0 1389 l 972 1389 l 972 0 l 0 0 m 0 1527 l 0 1805 l 138 1805 l 138 1944 l 416 1944 l 416 1666 l 277 1666 l 277 1527 l 0 1527 m 555 1527 l 555 1805 l 694 1805 l 694 1944 l 972 1944 l 972 1666 l 833 1666 l 833 1527 l 555 1527 z "},"Œ":{"ha":1666,"x_min":0,"x_max":1527,"o":"m 555 277 l 555 1111 l 416 1111 l 416 277 l 555 277 m 0 0 l 0 1389 l 1527 1389 l 1527 1111 l 972 1111 l 972 833 l 1389 833 l 1389 555 l 972 555 l 972 277 l 1527 277 l 1527 0 l 0 0 z "},"œ":{"ha":1666,"x_min":0,"x_max":1527,"o":"m 555 277 l 555 1111 l 416 1111 l 416 277 l 555 277 m 0 0 l 0 1389 l 1527 1389 l 1527 1111 l 972 1111 l 972 833 l 1389 833 l 1389 555 l 972 555 l 972 277 l 1527 277 l 1527 0 l 0 0 z "},"Ŕ":{"ha":1111,"x_min":0,"x_max":972,"o":"m 555 833 l 555 1111 l 416 1111 l 416 833 l 555 833 m 0 0 l 0 1389 l 972 1389 l 972 833 l 833 833 l 833 694 l 972 694 l 972 0 l 555 0 l 555 555 l 416 555 l 416 0 l 0 0 m 277 1527 l 277 1805 l 416 1805 l 416 1944 l 694 1944 l 694 1666 l 555 1666 l 555 1527 l 277 1527 z "},"ŕ":{"ha":1111,"x_min":0,"x_max":972,"o":"m 555 833 l 555 1111 l 416 1111 l 416 833 l 555 833 m 0 0 l 0 1389 l 972 1389 l 972 833 l 833 833 l 833 694 l 972 694 l 972 0 l 555 0 l 555 555 l 416 555 l 416 0 l 0 0 m 277 1527 l 277 1805 l 416 1805 l 416 1944 l 694 1944 l 694 1666 l 555 1666 l 555 1527 l 277 1527 z "},"Ŗ":{"ha":1111,"x_min":0,"x_max":972,"o":"m 416 -555 l 416 -416 l 277 -416 l 277 -138 l 694 -138 l 694 -555 l 416 -555 m 555 833 l 555 1111 l 416 1111 l 416 833 l 555 833 m 0 0 l 0 1389 l 972 1389 l 972 833 l 833 833 l 833 694 l 972 694 l 972 0 l 555 0 l 555 555 l 416 555 l 416 0 l 0 0 z "},"ŗ":{"ha":1111,"x_min":0,"x_max":972,"o":"m 416 -555 l 416 -416 l 277 -416 l 277 -138 l 694 -138 l 694 -555 l 416 -555 m 555 833 l 555 1111 l 416 1111 l 416 833 l 555 833 m 0 0 l 0 1389 l 972 1389 l 972 833 l 833 833 l 833 694 l 972 694 l 972 0 l 555 0 l 555 555 l 416 555 l 416 0 l 0 0 z "},"Ř":{"ha":1111,"x_min":0,"x_max":972,"o":"m 555 833 l 555 1111 l 416 1111 l 416 833 l 555 833 m 0 0 l 0 1389 l 972 1389 l 972 833 l 833 833 l 833 694 l 972 694 l 972 0 l 555 0 l 555 555 l 416 555 l 416 0 l 0 0 m 277 1527 l 277 1666 l 138 1666 l 138 1944 l 416 1944 l 416 1805 l 555 1805 l 555 1944 l 833 1944 l 833 1666 l 694 1666 l 694 1527 l 277 1527 z "},"ř":{"ha":1111,"x_min":0,"x_max":972,"o":"m 555 833 l 555 1111 l 416 1111 l 416 833 l 555 833 m 0 0 l 0 1389 l 972 1389 l 972 833 l 833 833 l 833 694 l 972 694 l 972 0 l 555 0 l 555 555 l 416 555 l 416 0 l 0 0 m 277 1527 l 277 1666 l 138 1666 l 138 1944 l 416 1944 l 416 1805 l 555 1805 l 555 1944 l 833 1944 l 833 1666 l 694 1666 l 694 1527 l 277 1527 z "},"Ś":{"ha":1111,"x_min":0,"x_max":972,"o":"m 0 0 l 0 277 l 555 277 l 555 555 l 0 555 l 0 1389 l 972 1389 l 972 1111 l 416 1111 l 416 833 l 972 833 l 972 0 l 0 0 m 277 1527 l 277 1805 l 416 1805 l 416 1944 l 694 1944 l 694 1666 l 555 1666 l 555 1527 l 277 1527 z "},"ś":{"ha":1111,"x_min":0,"x_max":972,"o":"m 0 0 l 0 277 l 555 277 l 555 555 l 0 555 l 0 1389 l 972 1389 l 972 1111 l 416 1111 l 416 833 l 972 833 l 972 0 l 0 0 m 277 1527 l 277 1805 l 416 1805 l 416 1944 l 694 1944 l 694 1666 l 555 1666 l 555 1527 l 277 1527 z "},"Ŝ":{"ha":1111,"x_min":0,"x_max":972,"o":"m 0 0 l 0 277 l 555 277 l 555 555 l 0 555 l 0 1389 l 972 1389 l 972 1111 l 416 1111 l 416 833 l 972 833 l 972 0 l 0 0 m 138 1527 l 138 1805 l 277 1805 l 277 1944 l 694 1944 l 694 1805 l 833 1805 l 833 1527 l 555 1527 l 555 1666 l 416 1666 l 416 1527 l 138 1527 z "},"ŝ":{"ha":1111,"x_min":0,"x_max":972,"o":"m 0 0 l 0 277 l 555 277 l 555 555 l 0 555 l 0 1389 l 972 1389 l 972 1111 l 416 1111 l 416 833 l 972 833 l 972 0 l 0 0 m 138 1527 l 138 1805 l 277 1805 l 277 1944 l 694 1944 l 694 1805 l 833 1805 l 833 1527 l 555 1527 l 555 1666 l 416 1666 l 416 1527 l 138 1527 z "},"Ş":{"ha":1111,"x_min":0,"x_max":972,"o":"m 277 -555 l 277 -277 l 416 -277 l 416 0 l 0 0 l 0 277 l 555 277 l 555 555 l 0 555 l 0 1389 l 972 1389 l 972 1111 l 416 1111 l 416 833 l 972 833 l 972 0 l 694 0 l 694 -555 l 277 -555 z "},"ş":{"ha":1111,"x_min":0,"x_max":972,"o":"m 277 -555 l 277 -277 l 416 -277 l 416 0 l 0 0 l 0 277 l 555 277 l 555 555 l 0 555 l 0 1389 l 972 1389 l 972 1111 l 416 1111 l 416 833 l 972 833 l 972 0 l 694 0 l 694 -555 l 277 -555 z "},"Š":{"ha":1111,"x_min":0,"x_max":972,"o":"m 0 0 l 0 277 l 555 277 l 555 555 l 0 555 l 0 1389 l 972 1389 l 972 1111 l 416 1111 l 416 833 l 972 833 l 972 0 l 0 0 m 277 1527 l 277 1666 l 138 1666 l 138 1944 l 416 1944 l 416 1805 l 555 1805 l 555 1944 l 833 1944 l 833 1666 l 694 1666 l 694 1527 l 277 1527 z "},"š":{"ha":1111,"x_min":0,"x_max":972,"o":"m 0 0 l 0 277 l 555 277 l 555 555 l 0 555 l 0 1389 l 972 1389 l 972 1111 l 416 1111 l 416 833 l 972 833 l 972 0 l 0 0 m 277 1527 l 277 1666 l 138 1666 l 138 1944 l 416 1944 l 416 1805 l 555 1805 l 555 1944 l 833 1944 l 833 1666 l 694 1666 l 694 1527 l 277 1527 z "},"Ţ":{"ha":1111,"x_min":0,"x_max":972,"o":"m 277 -555 l 277 -277 l 416 -277 l 416 0 l 277 0 l 277 1111 l 0 1111 l 0 1389 l 972 1389 l 972 1111 l 694 1111 l 694 -555 l 277 -555 z "},"ţ":{"ha":1111,"x_min":0,"x_max":972,"o":"m 277 -555 l 277 -277 l 416 -277 l 416 0 l 277 0 l 277 1111 l 0 1111 l 0 1389 l 972 1389 l 972 1111 l 694 1111 l 694 -555 l 277 -555 z "},"Ť":{"ha":1111,"x_min":0,"x_max":972,"o":"m 277 0 l 277 1111 l 0 1111 l 0 1389 l 972 1389 l 972 1111 l 694 1111 l 694 0 l 277 0 m 277 1527 l 277 1666 l 138 1666 l 138 1944 l 416 1944 l 416 1805 l 555 1805 l 555 1944 l 833 1944 l 833 1666 l 694 1666 l 694 1527 l 277 1527 z "},"ť":{"ha":1666,"x_min":0,"x_max":1527,"o":"m 277 0 l 277 1111 l 0 1111 l 0 1389 l 972 1389 l 972 1111 l 694 1111 l 694 0 l 277 0 m 1250 694 l 1250 972 l 1111 972 l 1111 1389 l 1527 1389 l 1527 694 l 1250 694 z "},"Ŧ":{"ha":1111,"x_min":0,"x_max":972,"o":"m 277 0 l 277 555 l 138 555 l 138 833 l 277 833 l 277 1111 l 0 1111 l 0 1389 l 972 1389 l 972 1111 l 694 1111 l 694 833 l 833 833 l 833 555 l 694 555 l 694 0 l 277 0 z "},"ŧ":{"ha":1111,"x_min":0,"x_max":972,"o":"m 277 0 l 277 555 l 138 555 l 138 833 l 277 833 l 277 1111 l 0 1111 l 0 1389 l 972 1389 l 972 1111 l 694 1111 l 694 833 l 833 833 l 833 555 l 694 555 l 694 0 l 277 0 z "},"Ũ":{"ha":1111,"x_min":0,"x_max":972,"o":"m 0 0 l 0 1389 l 416 1389 l 416 277 l 555 277 l 555 1389 l 972 1389 l 972 0 l 0 0 m 69 1527 l 69 1805 l 208 1805 l 208 1944 l 486 1944 l 486 1805 l 625 1805 l 625 1944 l 903 1944 l 903 1666 l 764 1666 l 764 1527 l 486 1527 l 486 1666 l 347 1666 l 347 1527 l 69 1527 z "},"ũ":{"ha":1111,"x_min":0,"x_max":972,"o":"m 0 0 l 0 1389 l 416 1389 l 416 277 l 555 277 l 555 1389 l 972 1389 l 972 0 l 0 0 m 69 1527 l 69 1805 l 208 1805 l 208 1944 l 486 1944 l 486 1805 l 625 1805 l 625 1944 l 903 1944 l 903 1666 l 764 1666 l 764 1527 l 486 1527 l 486 1666 l 347 1666 l 347 1527 l 69 1527 z "},"Ū":{"ha":1111,"x_min":0,"x_max":972,"o":"m 0 0 l 0 1389 l 416 1389 l 416 277 l 555 277 l 555 1389 l 972 1389 l 972 0 l 0 0 m 138 1527 l 138 1805 l 833 1805 l 833 1527 l 138 1527 z "},"ū":{"ha":1111,"x_min":0,"x_max":972,"o":"m 0 0 l 0 1389 l 416 1389 l 416 277 l 555 277 l 555 1389 l 972 1389 l 972 0 l 0 0 m 138 1527 l 138 1805 l 833 1805 l 833 1527 l 138 1527 z "},"Ŭ":{"ha":1111,"x_min":0,"x_max":972,"o":"m 0 0 l 0 1389 l 416 1389 l 416 277 l 555 277 l 555 1389 l 972 1389 l 972 0 l 0 0 m 0 1527 l 0 1944 l 277 1944 l 277 1805 l 694 1805 l 694 1944 l 972 1944 l 972 1527 l 0 1527 z "},"ŭ":{"ha":1111,"x_min":0,"x_max":972,"o":"m 0 0 l 0 1389 l 416 1389 l 416 277 l 555 277 l 555 1389 l 972 1389 l 972 0 l 0 0 m 0 1527 l 0 1944 l 277 1944 l 277 1805 l 694 1805 l 694 1944 l 972 1944 l 972 1527 l 0 1527 z "},"Ů":{"ha":1111,"x_min":0,"x_max":972,"o":"m 555 277 l 555 1389 l 416 1389 l 416 277 l 555 277 m 555 1666 l 555 1805 l 416 1805 l 416 1666 l 555 1666 m 0 0 l 0 1389 l 277 1389 l 277 1527 l 138 1527 l 138 1944 l 277 1944 l 277 2083 l 694 2083 l 694 1944 l 833 1944 l 833 1527 l 694 1527 l 694 1389 l 972 1389 l 972 0 l 0 0 z "},"ů":{"ha":1111,"x_min":0,"x_max":972,"o":"m 555 277 l 555 1389 l 416 1389 l 416 277 l 555 277 m 555 1666 l 555 1805 l 416 1805 l 416 1666 l 555 1666 m 0 0 l 0 1389 l 277 1389 l 277 1527 l 138 1527 l 138 1944 l 277 1944 l 277 2083 l 694 2083 l 694 1944 l 833 1944 l 833 1527 l 694 1527 l 694 1389 l 972 1389 l 972 0 l 0 0 z "},"Ű":{"ha":1111,"x_min":0,"x_max":972,"o":"m 0 0 l 0 1389 l 416 1389 l 416 277 l 555 277 l 555 1389 l 972 1389 l 972 0 l 0 0 m 0 1527 l 0 1805 l 138 1805 l 138 1944 l 416 1944 l 416 1666 l 277 1666 l 277 1527 l 0 1527 m 555 1527 l 555 1805 l 694 1805 l 694 1944 l 972 1944 l 972 1666 l 833 1666 l 833 1527 l 555 1527 z "},"ű":{"ha":1111,"x_min":0,"x_max":972,"o":"m 0 0 l 0 1389 l 416 1389 l 416 277 l 555 277 l 555 1389 l 972 1389 l 972 0 l 0 0 m 0 1527 l 0 1805 l 138 1805 l 138 1944 l 416 1944 l 416 1666 l 277 1666 l 277 1527 l 0 1527 m 555 1527 l 555 1805 l 694 1805 l 694 1944 l 972 1944 l 972 1666 l 833 1666 l 833 1527 l 555 1527 z "},"Ų":{"ha":1111,"x_min":0,"x_max":972,"o":"m 277 -555 l 277 -277 l 416 -277 l 416 0 l 0 0 l 0 1389 l 416 1389 l 416 277 l 555 277 l 555 1389 l 972 1389 l 972 0 l 694 0 l 694 -555 l 277 -555 z "},"ų":{"ha":1111,"x_min":0,"x_max":972,"o":"m 277 -555 l 277 -277 l 416 -277 l 416 0 l 0 0 l 0 1389 l 416 1389 l 416 277 l 555 277 l 555 1389 l 972 1389 l 972 0 l 694 0 l 694 -555 l 277 -555 z "},"Ŵ":{"ha":1527,"x_min":0,"x_max":1389,"o":"m 138 0 l 138 277 l 0 277 l 0 1389 l 416 1389 l 416 694 l 555 694 l 555 972 l 833 972 l 833 694 l 972 694 l 972 1389 l 1389 1389 l 1389 277 l 1250 277 l 1250 0 l 833 0 l 833 416 l 555 416 l 555 0 l 138 0 m 347 1527 l 347 1805 l 486 1805 l 486 1944 l 903 1944 l 903 1805 l 1042 1805 l 1042 1527 l 764 1527 l 764 1666 l 625 1666 l 625 1527 l 347 1527 z "},"ŵ":{"ha":1527,"x_min":0,"x_max":1389,"o":"m 138 0 l 138 277 l 0 277 l 0 1389 l 416 1389 l 416 694 l 555 694 l 555 972 l 833 972 l 833 694 l 972 694 l 972 1389 l 1389 1389 l 1389 277 l 1250 277 l 1250 0 l 833 0 l 833 416 l 555 416 l 555 0 l 138 0 m 347 1527 l 347 1805 l 486 1805 l 486 1944 l 903 1944 l 903 1805 l 1042 1805 l 1042 1527 l 764 1527 l 764 1666 l 625 1666 l 625 1527 l 347 1527 z "},"Ŷ":{"ha":1111,"x_min":0,"x_max":972,"o":"m 277 0 l 277 694 l 0 694 l 0 1389 l 416 1389 l 416 972 l 555 972 l 555 1389 l 972 1389 l 972 694 l 694 694 l 694 0 l 277 0 m 138 1527 l 138 1805 l 277 1805 l 277 1944 l 694 1944 l 694 1805 l 833 1805 l 833 1527 l 555 1527 l 555 1666 l 416 1666 l 416 1527 l 138 1527 z "},"ŷ":{"ha":1111,"x_min":0,"x_max":972,"o":"m 277 0 l 277 694 l 0 694 l 0 1389 l 416 1389 l 416 972 l 555 972 l 555 1389 l 972 1389 l 972 694 l 694 694 l 694 0 l 277 0 m 138 1527 l 138 1805 l 277 1805 l 277 1944 l 694 1944 l 694 1805 l 833 1805 l 833 1527 l 555 1527 l 555 1666 l 416 1666 l 416 1527 l 138 1527 z "},"Ÿ":{"ha":1111,"x_min":0,"x_max":972,"o":"m 277 0 l 277 694 l 0 694 l 0 1389 l 416 1389 l 416 972 l 555 972 l 555 1389 l 972 1389 l 972 694 l 694 694 l 694 0 l 277 0 m 138 1527 l 138 1805 l 416 1805 l 416 1527 l 138 1527 m 555 1527 l 555 1805 l 833 1805 l 833 1527 l 555 1527 z "},"Ź":{"ha":1111,"x_min":0,"x_max":972,"o":"m 0 0 l 0 694 l 277 694 l 277 833 l 555 833 l 555 1111 l 0 1111 l 0 1389 l 972 1389 l 972 694 l 694 694 l 694 555 l 416 555 l 416 277 l 972 277 l 972 0 l 0 0 m 277 1527 l 277 1805 l 416 1805 l 416 1944 l 694 1944 l 694 1666 l 555 1666 l 555 1527 l 277 1527 z "},"ź":{"ha":1111,"x_min":0,"x_max":972,"o":"m 0 0 l 0 694 l 277 694 l 277 833 l 555 833 l 555 1111 l 0 1111 l 0 1389 l 972 1389 l 972 694 l 694 694 l 694 555 l 416 555 l 416 277 l 972 277 l 972 0 l 0 0 m 277 1527 l 277 1805 l 416 1805 l 416 1944 l 694 1944 l 694 1666 l 555 1666 l 555 1527 l 277 1527 z "},"Ż":{"ha":1111,"x_min":0,"x_max":972,"o":"m 0 0 l 0 694 l 277 694 l 277 833 l 555 833 l 555 1111 l 0 1111 l 0 1389 l 972 1389 l 972 694 l 694 694 l 694 555 l 416 555 l 416 277 l 972 277 l 972 0 l 0 0 m 347 1527 l 347 1805 l 625 1805 l 625 1527 l 347 1527 z "},"ż":{"ha":1111,"x_min":0,"x_max":972,"o":"m 0 0 l 0 694 l 277 694 l 277 833 l 555 833 l 555 1111 l 0 1111 l 0 1389 l 972 1389 l 972 694 l 694 694 l 694 555 l 416 555 l 416 277 l 972 277 l 972 0 l 0 0 m 347 1527 l 347 1805 l 625 1805 l 625 1527 l 347 1527 z "},"Ž":{"ha":1111,"x_min":0,"x_max":972,"o":"m 0 0 l 0 694 l 277 694 l 277 833 l 555 833 l 555 1111 l 0 1111 l 0 1389 l 972 1389 l 972 694 l 694 694 l 694 555 l 416 555 l 416 277 l 972 277 l 972 0 l 0 0 m 277 1527 l 277 1666 l 138 1666 l 138 1944 l 416 1944 l 416 1805 l 555 1805 l 555 1944 l 833 1944 l 833 1666 l 694 1666 l 694 1527 l 277 1527 z "},"ž":{"ha":1111,"x_min":0,"x_max":972,"o":"m 0 0 l 0 694 l 277 694 l 277 833 l 555 833 l 555 1111 l 0 1111 l 0 1389 l 972 1389 l 972 694 l 694 694 l 694 555 l 416 555 l 416 277 l 972 277 l 972 0 l 0 0 m 277 1527 l 277 1666 l 138 1666 l 138 1944 l 416 1944 l 416 1805 l 555 1805 l 555 1944 l 833 1944 l 833 1666 l 694 1666 l 694 1527 l 277 1527 z "},"ſ":{"ha":694,"x_min":0,"x_max":555,"o":"m 0 0 l 0 1250 l 138 1250 l 138 1389 l 555 1389 l 555 1111 l 416 1111 l 416 0 l 0 0 z "},"ˆ":{"ha":833,"x_min":0,"x_max":694,"o":"m 0 1527 l 0 1805 l 138 1805 l 138 1944 l 555 1944 l 555 1805 l 694 1805 l 694 1527 l 416 1527 l 416 1666 l 277 1666 l 277 1527 l 0 1527 z "},"˚":{"ha":833,"x_min":0,"x_max":694,"o":"m 416 1805 l 416 1944 l 277 1944 l 277 1805 l 416 1805 m 138 1527 l 138 1666 l 0 1666 l 0 2083 l 138 2083 l 138 2222 l 555 2222 l 555 2083 l 694 2083 l 694 1666 l 555 1666 l 555 1527 l 138 1527 z "},"˜":{"ha":1111,"x_min":0,"x_max":972,"o":"m 0 1527 l 0 1805 l 138 1805 l 138 1944 l 555 1944 l 555 1805 l 694 1805 l 694 1944 l 972 1944 l 972 1666 l 833 1666 l 833 1527 l 416 1527 l 416 1666 l 277 1666 l 277 1527 l 0 1527 z "},"Ѐ":{"ha":1111,"x_min":0,"x_max":972,"o":"m 0 0 l 0 1389 l 972 1389 l 972 1111 l 416 1111 l 416 833 l 833 833 l 833 555 l 416 555 l 416 277 l 972 277 l 972 0 l 0 0 m 416 1527 l 416 1666 l 277 1666 l 277 1944 l 555 1944 l 555 1805 l 694 1805 l 694 1527 l 416 1527 z "},"Ё":{"ha":1111,"x_min":0,"x_max":972,"o":"m 0 0 l 0 1389 l 972 1389 l 972 1111 l 416 1111 l 416 833 l 833 833 l 833 555 l 416 555 l 416 277 l 972 277 l 972 0 l 0 0 m 138 1527 l 138 1805 l 416 1805 l 416 1527 l 138 1527 m 555 1527 l 555 1805 l 833 1805 l 833 1527 l 555 1527 z "},"Ђ":{"ha":1527,"x_min":0,"x_max":1389,"o":"m 277 0 l 277 1111 l 0 1111 l 0 1389 l 972 1389 l 972 1111 l 694 1111 l 694 833 l 1389 833 l 1389 138 l 1250 138 l 1250 0 l 833 0 l 833 277 l 972 277 l 972 555 l 694 555 l 694 0 l 277 0 z "},"Ѓ":{"ha":1111,"x_min":0,"x_max":972,"o":"m 0 0 l 0 1389 l 972 1389 l 972 1111 l 416 1111 l 416 0 l 0 0 m 277 1527 l 277 1805 l 416 1805 l 416 1944 l 694 1944 l 694 1666 l 555 1666 l 555 1527 l 277 1527 z "},"Є":{"ha":1111,"x_min":0,"x_max":972,"o":"m 138 0 l 138 138 l 0 138 l 0 1250 l 138 1250 l 138 1389 l 972 1389 l 972 1111 l 416 1111 l 416 833 l 833 833 l 833 555 l 416 555 l 416 277 l 972 277 l 972 0 l 138 0 z "},"Ѕ":{"ha":1111,"x_min":0,"x_max":972,"o":"m 0 0 l 0 277 l 555 277 l 555 555 l 0 555 l 0 1389 l 972 1389 l 972 1111 l 416 1111 l 416 833 l 972 833 l 972 0 l 0 0 z "},"І":{"ha":555,"x_min":0,"x_max":416,"o":"m 0 0 l 0 1389 l 416 1389 l 416 0 l 0 0 z "},"Ї":{"ha":833,"x_min":0,"x_max":694,"o":"m 138 0 l 138 1389 l 555 1389 l 555 0 l 138 0 m 0 1527 l 0 1805 l 277 1805 l 277 1527 l 0 1527 m 416 1527 l 416 1805 l 694 1805 l 694 1527 l 416 1527 z "},"Ј":{"ha":1111,"x_min":0,"x_max":972,"o":"m 0 0 l 0 555 l 416 555 l 416 277 l 555 277 l 555 1389 l 972 1389 l 972 0 l 0 0 z "},"Љ":{"ha":1805,"x_min":0,"x_max":1666,"o":"m 1250 277 l 1250 555 l 1111 555 l 1111 277 l 1250 277 m 0 0 l 0 416 l 138 416 l 138 1389 l 1111 1389 l 1111 833 l 1666 833 l 1666 0 l 694 0 l 694 1111 l 555 1111 l 555 277 l 416 277 l 416 0 l 0 0 z "},"Њ":{"ha":1666,"x_min":0,"x_max":1527,"o":"m 1111 277 l 1111 555 l 972 555 l 972 277 l 1111 277 m 0 0 l 0 1389 l 416 1389 l 416 833 l 555 833 l 555 1389 l 972 1389 l 972 833 l 1527 833 l 1527 0 l 555 0 l 555 555 l 416 555 l 416 0 l 0 0 z "},"Ћ":{"ha":1389,"x_min":0,"x_max":1250,"o":"m 277 0 l 277 1111 l 0 1111 l 0 1389 l 972 1389 l 972 1111 l 694 1111 l 694 833 l 1250 833 l 1250 0 l 833 0 l 833 555 l 694 555 l 694 0 l 277 0 z "},"Ќ":{"ha":1111,"x_min":0,"x_max":972,"o":"m 0 0 l 0 1389 l 416 1389 l 416 972 l 555 972 l 555 1389 l 972 1389 l 972 833 l 694 833 l 694 694 l 972 694 l 972 0 l 555 0 l 555 416 l 416 416 l 416 0 l 0 0 m 277 1527 l 277 1805 l 416 1805 l 416 1944 l 694 1944 l 694 1666 l 555 1666 l 555 1527 l 277 1527 z "},"Ѝ":{"ha":1250,"x_min":0,"x_max":1111,"o":"m 0 0 l 0 1389 l 416 1389 l 416 833 l 555 833 l 555 1111 l 694 1111 l 694 1389 l 1111 1389 l 1111 0 l 694 0 l 694 555 l 555 555 l 555 277 l 416 277 l 416 0 l 0 0 m 486 1527 l 486 1666 l 347 1666 l 347 1944 l 625 1944 l 625 1805 l 764 1805 l 764 1527 l 486 1527 z "},"Ў":{"ha":1111,"x_min":0,"x_max":972,"o":"m 0 0 l 0 277 l 277 277 l 277 555 l 138 555 l 138 833 l 0 833 l 0 1389 l 416 1389 l 416 833 l 555 833 l 555 1389 l 972 1389 l 972 833 l 833 833 l 833 555 l 694 555 l 694 277 l 555 277 l 555 0 l 0 0 m 0 1527 l 0 1944 l 277 1944 l 277 1805 l 694 1805 l 694 1944 l 972 1944 l 972 1527 l 0 1527 z "},"Џ":{"ha":1111,"x_min":0,"x_max":972,"o":"m 347 -277 l 347 0 l 0 0 l 0 1389 l 416 1389 l 416 277 l 555 277 l 555 1389 l 972 1389 l 972 0 l 625 0 l 625 -277 l 347 -277 z "},"А":{"ha":1111,"x_min":0,"x_max":972,"o":"m 625 764 l 625 972 l 555 972 l 555 1042 l 694 1042 l 694 1180 l 555 1180 l 555 1042 l 416 1042 l 416 1180 l 277 1180 l 277 1042 l 416 1042 l 416 972 l 347 972 l 347 764 l 416 764 l 416 833 l 555 833 l 555 764 l 625 764 m 0 0 l 0 1389 l 972 1389 l 972 0 l 555 0 l 555 555 l 416 555 l 416 0 l 0 0 z "},"Б":{"ha":1111,"x_min":0,"x_max":972,"o":"m 555 277 l 555 555 l 416 555 l 416 277 l 555 277 m 0 0 l 0 1389 l 972 1389 l 972 1111 l 416 1111 l 416 833 l 972 833 l 972 0 l 0 0 z "},"В":{"ha":1111,"x_min":0,"x_max":972,"o":"m 555 277 l 555 555 l 416 555 l 416 277 l 555 277 m 555 833 l 555 1111 l 416 1111 l 416 833 l 555 833 m 0 0 l 0 1389 l 972 1389 l 972 833 l 833 833 l 833 694 l 972 694 l 972 0 l 0 0 z "},"Г":{"ha":1111,"x_min":0,"x_max":972,"o":"m 0 0 l 0 1389 l 972 1389 l 972 1111 l 416 1111 l 416 0 l 0 0 z "},"Д":{"ha":1527,"x_min":0,"x_max":1389,"o":"m 833 277 l 833 1111 l 694 1111 l 694 416 l 555 416 l 555 277 l 833 277 m 0 -277 l 0 277 l 138 277 l 138 555 l 277 555 l 277 1389 l 1250 1389 l 1250 277 l 1389 277 l 1389 -277 l 1111 -277 l 1111 0 l 277 0 l 277 -277 l 0 -277 z "},"Е":{"ha":1111,"x_min":0,"x_max":972,"o":"m 0 0 l 0 1389 l 972 1389 l 972 1111 l 416 1111 l 416 833 l 833 833 l 833 555 l 416 555 l 416 277 l 972 277 l 972 0 l 0 0 z "},"Ж":{"ha":1666,"x_min":0,"x_max":1527,"o":"m 0 0 l 0 694 l 277 694 l 277 833 l 0 833 l 0 1389 l 416 1389 l 416 972 l 555 972 l 555 1389 l 972 1389 l 972 972 l 1111 972 l 1111 1389 l 1527 1389 l 1527 833 l 1250 833 l 1250 694 l 1527 694 l 1527 0 l 1111 0 l 1111 416 l 972 416 l 972 0 l 555 0 l 555 416 l 416 416 l 416 0 l 0 0 z "},"З":{"ha":1111,"x_min":0,"x_max":972,"o":"m 0 0 l 0 277 l 555 277 l 555 555 l 138 555 l 138 833 l 555 833 l 555 1111 l 0 1111 l 0 1389 l 972 1389 l 972 833 l 833 833 l 833 694 l 972 694 l 972 0 l 0 0 z "},"И":{"ha":1250,"x_min":0,"x_max":1111,"o":"m 0 0 l 0 1389 l 416 1389 l 416 833 l 555 833 l 555 1111 l 694 1111 l 694 1389 l 1111 1389 l 1111 0 l 694 0 l 694 555 l 555 555 l 555 277 l 416 277 l 416 0 l 0 0 z "},"Й":{"ha":1250,"x_min":0,"x_max":1111,"o":"m 0 0 l 0 1389 l 416 1389 l 416 833 l 555 833 l 555 1111 l 694 1111 l 694 1389 l 1111 1389 l 1111 0 l 694 0 l 694 555 l 555 555 l 555 277 l 416 277 l 416 0 l 0 0 m 0 1527 l 0 1944 l 277 1944 l 277 1805 l 833 1805 l 833 1944 l 1111 1944 l 1111 1527 l 0 1527 z "},"К":{"ha":1111,"x_min":0,"x_max":972,"o":"m 0 0 l 0 1389 l 416 1389 l 416 972 l 555 972 l 555 1389 l 972 1389 l 972 833 l 694 833 l 694 694 l 972 694 l 972 0 l 555 0 l 555 416 l 416 416 l 416 0 l 0 0 z "},"Л":{"ha":1250,"x_min":0,"x_max":1111,"o":"m 0 0 l 0 416 l 138 416 l 138 1389 l 1111 1389 l 1111 0 l 694 0 l 694 1111 l 555 1111 l 555 277 l 416 277 l 416 0 l 0 0 z "},"М":{"ha":1527,"x_min":0,"x_max":1389,"o":"m 0 0 l 0 1389 l 416 1389 l 416 1111 l 555 1111 l 555 833 l 833 833 l 833 1111 l 972 1111 l 972 1389 l 1389 1389 l 1389 0 l 972 0 l 972 555 l 833 555 l 833 277 l 555 277 l 555 555 l 416 555 l 416 0 l 0 0 z "},"Н":{"ha":1111,"x_min":0,"x_max":972,"o":"m 0 0 l 0 1389 l 416 1389 l 416 833 l 555 833 l 555 1389 l 972 1389 l 972 0 l 555 0 l 555 555 l 416 555 l 416 0 l 0 0 z "},"О":{"ha":1111,"x_min":0,"x_max":972,"o":"m 555 277 l 555 1111 l 416 1111 l 416 277 l 555 277 m 0 0 l 0 1389 l 972 1389 l 972 0 l 0 0 z "},"П":{"ha":1111,"x_min":0,"x_max":972,"o":"m 0 0 l 0 1389 l 972 1389 l 972 0 l 555 0 l 555 1111 l 416 1111 l 416 0 l 0 0 z "},"Р":{"ha":1111,"x_min":0,"x_max":972,"o":"m 555 833 l 555 1111 l 416 1111 l 416 833 l 555 833 m 0 0 l 0 1389 l 972 1389 l 972 555 l 416 555 l 416 0 l 0 0 z "},"С":{"ha":1111,"x_min":0,"x_max":972,"o":"m 0 0 l 0 1389 l 972 1389 l 972 1111 l 416 1111 l 416 277 l 972 277 l 972 0 l 0 0 z "},"Т":{"ha":1111,"x_min":0,"x_max":972,"o":"m 277 0 l 277 1111 l 0 1111 l 0 1389 l 972 1389 l 972 1111 l 694 1111 l 694 0 l 277 0 z "},"У":{"ha":1111,"x_min":0,"x_max":972,"o":"m 0 0 l 0 277 l 277 277 l 277 555 l 138 555 l 138 833 l 0 833 l 0 1389 l 416 1389 l 416 833 l 555 833 l 555 1389 l 972 1389 l 972 833 l 833 833 l 833 555 l 694 555 l 694 277 l 555 277 l 555 0 l 0 0 z "},"Ф":{"ha":1666,"x_min":0,"x_max":1527,"o":"m 555 555 l 555 833 l 416 833 l 416 555 l 555 555 m 1111 555 l 1111 833 l 972 833 l 972 555 l 1111 555 m 555 0 l 555 277 l 0 277 l 0 1111 l 555 1111 l 555 1389 l 972 1389 l 972 1111 l 1527 1111 l 1527 277 l 972 277 l 972 0 l 555 0 z "},"Х":{"ha":1111,"x_min":0,"x_max":972,"o":"m 0 0 l 0 694 l 277 694 l 277 833 l 0 833 l 0 1389 l 416 1389 l 416 972 l 555 972 l 555 1389 l 972 1389 l 972 833 l 694 833 l 694 694 l 972 694 l 972 0 l 555 0 l 555 416 l 416 416 l 416 0 l 0 0 z "},"Ц":{"ha":1250,"x_min":0,"x_max":1111,"o":"m 833 -277 l 833 0 l 0 0 l 0 1389 l 416 1389 l 416 277 l 555 277 l 555 1389 l 972 1389 l 972 277 l 1111 277 l 1111 -277 l 833 -277 z "},"Ч":{"ha":1111,"x_min":0,"x_max":972,"o":"m 555 0 l 555 555 l 0 555 l 0 1389 l 416 1389 l 416 833 l 555 833 l 555 1389 l 972 1389 l 972 0 l 555 0 z "},"Ш":{"ha":1666,"x_min":0,"x_max":1527,"o":"m 0 0 l 0 1389 l 416 1389 l 416 277 l 555 277 l 555 1389 l 972 1389 l 972 277 l 1111 277 l 1111 1389 l 1527 1389 l 1527 0 l 0 0 z "},"Щ":{"ha":1805,"x_min":0,"x_max":1666,"o":"m 1389 -277 l 1389 0 l 0 0 l 0 1389 l 416 1389 l 416 277 l 555 277 l 555 1389 l 972 1389 l 972 277 l 1111 277 l 1111 1389 l 1527 1389 l 1527 277 l 1666 277 l 1666 -277 l 1389 -277 z "},"Ъ":{"ha":1389,"x_min":0,"x_max":1250,"o":"m 833 277 l 833 555 l 694 555 l 694 277 l 833 277 m 277 0 l 277 1111 l 0 1111 l 0 1389 l 694 1389 l 694 833 l 1250 833 l 1250 0 l 277 0 z "},"Ы":{"ha":1666,"x_min":0,"x_max":1527,"o":"m 555 277 l 555 555 l 416 555 l 416 277 l 555 277 m 0 0 l 0 1389 l 416 1389 l 416 833 l 972 833 l 972 0 l 0 0 m 1111 0 l 1111 1389 l 1527 1389 l 1527 0 l 1111 0 z "},"Ь":{"ha":1111,"x_min":0,"x_max":972,"o":"m 555 277 l 555 555 l 416 555 l 416 277 l 555 277 m 0 0 l 0 1389 l 416 1389 l 416 833 l 972 833 l 972 0 l 0 0 z "},"Э":{"ha":1111,"x_min":0,"x_max":972,"o":"m 0 0 l 0 277 l 555 277 l 555 555 l 138 555 l 138 833 l 555 833 l 555 1111 l 0 1111 l 0 1389 l 833 1389 l 833 1250 l 972 1250 l 972 138 l 833 138 l 833 0 l 0 0 z "},"Ю":{"ha":1666,"x_min":0,"x_max":1527,"o":"m 1111 277 l 1111 1111 l 972 1111 l 972 277 l 1111 277 m 0 0 l 0 1389 l 416 1389 l 416 833 l 555 833 l 555 1389 l 1527 1389 l 1527 0 l 555 0 l 555 555 l 416 555 l 416 0 l 0 0 z "},"Я":{"ha":1111,"x_min":0,"x_max":972,"o":"m 555 833 l 555 1111 l 416 1111 l 416 833 l 555 833 m 0 0 l 0 694 l 138 694 l 138 833 l 0 833 l 0 1389 l 972 1389 l 972 0 l 555 0 l 555 555 l 416 555 l 416 0 l 0 0 z "},"а":{"ha":1111,"x_min":0,"x_max":972,"o":"m 555 833 l 555 1111 l 416 1111 l 416 833 l 555 833 m 0 0 l 0 1389 l 972 1389 l 972 0 l 555 0 l 555 555 l 416 555 l 416 0 l 0 0 z "},"б":{"ha":1111,"x_min":0,"x_max":972,"o":"m 555 277 l 555 555 l 416 555 l 416 277 l 555 277 m 0 0 l 0 1389 l 972 1389 l 972 1111 l 416 1111 l 416 833 l 972 833 l 972 0 l 0 0 z "},"в":{"ha":1111,"x_min":0,"x_max":972,"o":"m 555 277 l 555 555 l 416 555 l 416 277 l 555 277 m 555 833 l 555 1111 l 416 1111 l 416 833 l 555 833 m 0 0 l 0 1389 l 972 1389 l 972 833 l 833 833 l 833 694 l 972 694 l 972 0 l 0 0 z "},"г":{"ha":1111,"x_min":0,"x_max":972,"o":"m 0 0 l 0 1389 l 972 1389 l 972 1111 l 416 1111 l 416 0 l 0 0 z "},"д":{"ha":1527,"x_min":0,"x_max":1389,"o":"m 833 277 l 833 1111 l 694 1111 l 694 555 l 555 555 l 555 277 l 833 277 m 0 -277 l 0 277 l 138 277 l 138 555 l 277 555 l 277 1389 l 1250 1389 l 1250 277 l 1389 277 l 1389 -277 l 1111 -277 l 1111 0 l 277 0 l 277 -277 l 0 -277 z "},"е":{"ha":1111,"x_min":0,"x_max":972,"o":"m 0 0 l 0 1389 l 972 1389 l 972 1111 l 416 1111 l 416 833 l 833 833 l 833 555 l 416 555 l 416 277 l 972 277 l 972 0 l 0 0 z "},"ж":{"ha":1666,"x_min":0,"x_max":1527,"o":"m 0 0 l 0 694 l 277 694 l 277 833 l 0 833 l 0 1389 l 416 1389 l 416 972 l 555 972 l 555 1389 l 972 1389 l 972 972 l 1111 972 l 1111 1389 l 1527 1389 l 1527 833 l 1250 833 l 1250 694 l 1527 694 l 1527 0 l 1111 0 l 1111 416 l 972 416 l 972 0 l 555 0 l 555 416 l 416 416 l 416 0 l 0 0 z "},"з":{"ha":1111,"x_min":0,"x_max":972,"o":"m 0 0 l 0 277 l 555 277 l 555 555 l 138 555 l 138 833 l 555 833 l 555 1111 l 0 1111 l 0 1389 l 972 1389 l 972 833 l 833 833 l 833 694 l 972 694 l 972 0 l 0 0 z "},"и":{"ha":1250,"x_min":0,"x_max":1111,"o":"m 0 0 l 0 1389 l 416 1389 l 416 833 l 555 833 l 555 1111 l 694 1111 l 694 1389 l 1111 1389 l 1111 0 l 694 0 l 694 555 l 555 555 l 555 277 l 416 277 l 416 0 l 0 0 z "},"й":{"ha":1250,"x_min":0,"x_max":1111,"o":"m 0 0 l 0 1389 l 416 1389 l 416 833 l 555 833 l 555 1111 l 694 1111 l 694 1389 l 1111 1389 l 1111 0 l 694 0 l 694 555 l 555 555 l 555 277 l 416 277 l 416 0 l 0 0 m 0 1527 l 0 1944 l 277 1944 l 277 1805 l 833 1805 l 833 1944 l 1111 1944 l 1111 1527 l 0 1527 z "},"к":{"ha":1111,"x_min":0,"x_max":972,"o":"m 0 0 l 0 1389 l 416 1389 l 416 972 l 555 972 l 555 1389 l 972 1389 l 972 833 l 694 833 l 694 694 l 972 694 l 972 0 l 555 0 l 555 416 l 416 416 l 416 0 l 0 0 z "},"л":{"ha":1250,"x_min":0,"x_max":1111,"o":"m 0 0 l 0 416 l 138 416 l 138 1389 l 1111 1389 l 1111 0 l 694 0 l 694 1111 l 555 1111 l 555 277 l 416 277 l 416 0 l 0 0 z "},"м":{"ha":1527,"x_min":0,"x_max":1389,"o":"m 0 0 l 0 1389 l 416 1389 l 416 1111 l 555 1111 l 555 833 l 833 833 l 833 1111 l 972 1111 l 972 1389 l 1389 1389 l 1389 0 l 972 0 l 972 555 l 833 555 l 833 277 l 555 277 l 555 555 l 416 555 l 416 0 l 0 0 z "},"н":{"ha":1111,"x_min":0,"x_max":972,"o":"m 0 0 l 0 1389 l 416 1389 l 416 833 l 555 833 l 555 1389 l 972 1389 l 972 0 l 555 0 l 555 555 l 416 555 l 416 0 l 0 0 z "},"о":{"ha":1111,"x_min":0,"x_max":972,"o":"m 555 277 l 555 1111 l 416 1111 l 416 277 l 555 277 m 0 0 l 0 1389 l 972 1389 l 972 0 l 0 0 z "},"п":{"ha":1111,"x_min":0,"x_max":972,"o":"m 0 0 l 0 1389 l 972 1389 l 972 0 l 555 0 l 555 1111 l 416 1111 l 416 0 l 0 0 z "},"р":{"ha":1111,"x_min":0,"x_max":972,"o":"m 555 833 l 555 1111 l 416 1111 l 416 833 l 555 833 m 0 0 l 0 1389 l 972 1389 l 972 555 l 416 555 l 416 0 l 0 0 z "},"с":{"ha":1111,"x_min":0,"x_max":972,"o":"m 0 0 l 0 1389 l 972 1389 l 972 1111 l 416 1111 l 416 277 l 972 277 l 972 0 l 0 0 z "},"т":{"ha":1111,"x_min":0,"x_max":972,"o":"m 277 0 l 277 1111 l 0 1111 l 0 1389 l 972 1389 l 972 1111 l 694 1111 l 694 0 l 277 0 z "},"у":{"ha":1111,"x_min":0,"x_max":972,"o":"m 0 0 l 0 277 l 277 277 l 277 555 l 138 555 l 138 833 l 0 833 l 0 1389 l 416 1389 l 416 833 l 555 833 l 555 1389 l 972 1389 l 972 833 l 833 833 l 833 555 l 694 555 l 694 277 l 555 277 l 555 0 l 0 0 z "},"ф":{"ha":1666,"x_min":0,"x_max":1527,"o":"m 555 555 l 555 833 l 416 833 l 416 555 l 555 555 m 1111 555 l 1111 833 l 972 833 l 972 555 l 1111 555 m 555 0 l 555 277 l 0 277 l 0 1111 l 555 1111 l 555 1389 l 972 1389 l 972 1111 l 1527 1111 l 1527 277 l 972 277 l 972 0 l 555 0 z "},"х":{"ha":1111,"x_min":0,"x_max":972,"o":"m 0 0 l 0 694 l 277 694 l 277 833 l 0 833 l 0 1389 l 416 1389 l 416 972 l 555 972 l 555 1389 l 972 1389 l 972 833 l 694 833 l 694 694 l 972 694 l 972 0 l 555 0 l 555 416 l 416 416 l 416 0 l 0 0 z "},"ц":{"ha":1250,"x_min":0,"x_max":1111,"o":"m 833 -277 l 833 0 l 0 0 l 0 1389 l 416 1389 l 416 277 l 555 277 l 555 1389 l 972 1389 l 972 277 l 1111 277 l 1111 -277 l 833 -277 z "},"ч":{"ha":1111,"x_min":0,"x_max":972,"o":"m 555 0 l 555 555 l 0 555 l 0 1389 l 416 1389 l 416 833 l 555 833 l 555 1389 l 972 1389 l 972 0 l 555 0 z "},"ш":{"ha":1666,"x_min":0,"x_max":1527,"o":"m 0 0 l 0 1389 l 416 1389 l 416 277 l 555 277 l 555 1389 l 972 1389 l 972 277 l 1111 277 l 1111 1389 l 1527 1389 l 1527 0 l 0 0 z "},"щ":{"ha":1805,"x_min":0,"x_max":1666,"o":"m 1389 -277 l 1389 0 l 0 0 l 0 1389 l 416 1389 l 416 277 l 555 277 l 555 1389 l 972 1389 l 972 277 l 1111 277 l 1111 1389 l 1527 1389 l 1527 277 l 1666 277 l 1666 -277 l 1389 -277 z "},"ъ":{"ha":1389,"x_min":0,"x_max":1250,"o":"m 833 277 l 833 555 l 694 555 l 694 277 l 833 277 m 277 0 l 277 1111 l 0 1111 l 0 1389 l 694 1389 l 694 833 l 1250 833 l 1250 0 l 277 0 z "},"ы":{"ha":1666,"x_min":0,"x_max":1527,"o":"m 555 277 l 555 555 l 416 555 l 416 277 l 555 277 m 0 0 l 0 1389 l 416 1389 l 416 833 l 972 833 l 972 0 l 0 0 m 1111 0 l 1111 1389 l 1527 1389 l 1527 0 l 1111 0 z "},"ь":{"ha":1111,"x_min":0,"x_max":972,"o":"m 555 277 l 555 555 l 416 555 l 416 277 l 555 277 m 0 0 l 0 1389 l 416 1389 l 416 833 l 972 833 l 972 0 l 0 0 z "},"э":{"ha":1111,"x_min":0,"x_max":972,"o":"m 0 0 l 0 277 l 555 277 l 555 555 l 138 555 l 138 833 l 555 833 l 555 1111 l 0 1111 l 0 1389 l 833 1389 l 833 1250 l 972 1250 l 972 138 l 833 138 l 833 0 l 0 0 z "},"ю":{"ha":1666,"x_min":0,"x_max":1527,"o":"m 1111 277 l 1111 1111 l 972 1111 l 972 277 l 1111 277 m 0 0 l 0 1389 l 416 1389 l 416 833 l 555 833 l 555 1389 l 1527 1389 l 1527 0 l 555 0 l 555 555 l 416 555 l 416 0 l 0 0 z "},"я":{"ha":1111,"x_min":0,"x_max":972,"o":"m 555 833 l 555 1111 l 416 1111 l 416 833 l 555 833 m 0 0 l 0 694 l 138 694 l 138 833 l 0 833 l 0 1389 l 972 1389 l 972 0 l 555 0 l 555 555 l 416 555 l 416 0 l 0 0 z "},"ѐ":{"ha":1111,"x_min":0,"x_max":972,"o":"m 0 0 l 0 1389 l 972 1389 l 972 1111 l 416 1111 l 416 833 l 833 833 l 833 555 l 416 555 l 416 277 l 972 277 l 972 0 l 0 0 m 416 1527 l 416 1666 l 277 1666 l 277 1944 l 555 1944 l 555 1805 l 694 1805 l 694 1527 l 416 1527 z "},"ё":{"ha":1111,"x_min":0,"x_max":972,"o":"m 0 0 l 0 1389 l 972 1389 l 972 1111 l 416 1111 l 416 833 l 833 833 l 833 555 l 416 555 l 416 277 l 972 277 l 972 0 l 0 0 m 138 1527 l 138 1805 l 416 1805 l 416 1527 l 138 1527 m 555 1527 l 555 1805 l 833 1805 l 833 1527 l 555 1527 z "},"ђ":{"ha":1527,"x_min":0,"x_max":1389,"o":"m 277 0 l 277 1111 l 0 1111 l 0 1389 l 972 1389 l 972 1111 l 694 1111 l 694 833 l 1389 833 l 1389 138 l 1250 138 l 1250 0 l 833 0 l 833 277 l 972 277 l 972 555 l 694 555 l 694 0 l 277 0 z "},"ѓ":{"ha":1111,"x_min":0,"x_max":972,"o":"m 0 0 l 0 1389 l 972 1389 l 972 1111 l 416 1111 l 416 0 l 0 0 m 277 1527 l 277 1805 l 416 1805 l 416 1944 l 694 1944 l 694 1666 l 555 1666 l 555 1527 l 277 1527 z "},"є":{"ha":1111,"x_min":0,"x_max":972,"o":"m 138 0 l 138 138 l 0 138 l 0 1250 l 138 1250 l 138 1389 l 972 1389 l 972 1111 l 416 1111 l 416 833 l 833 833 l 833 555 l 416 555 l 416 277 l 972 277 l 972 0 l 138 0 z "},"ѕ":{"ha":1111,"x_min":0,"x_max":972,"o":"m 0 0 l 0 277 l 555 277 l 555 555 l 0 555 l 0 1389 l 972 1389 l 972 1111 l 416 1111 l 416 833 l 972 833 l 972 0 l 0 0 z "},"і":{"ha":555,"x_min":0,"x_max":416,"o":"m 0 0 l 0 1389 l 416 1389 l 416 0 l 0 0 m 69 1527 l 69 1805 l 347 1805 l 347 1527 l 69 1527 z "},"ї":{"ha":833,"x_min":0,"x_max":694,"o":"m 138 0 l 138 1389 l 555 1389 l 555 0 l 138 0 m 0 1527 l 0 1805 l 277 1805 l 277 1527 l 0 1527 m 416 1527 l 416 1805 l 694 1805 l 694 1527 l 416 1527 z "},"ј":{"ha":1111,"x_min":0,"x_max":972,"o":"m 0 0 l 0 555 l 416 555 l 416 277 l 555 277 l 555 1389 l 972 1389 l 972 0 l 0 0 z "},"љ":{"ha":1805,"x_min":0,"x_max":1666,"o":"m 1250 277 l 1250 555 l 1111 555 l 1111 277 l 1250 277 m 0 0 l 0 416 l 138 416 l 138 1389 l 1111 1389 l 1111 833 l 1666 833 l 1666 0 l 694 0 l 694 1111 l 555 1111 l 555 277 l 416 277 l 416 0 l 0 0 z "},"њ":{"ha":1666,"x_min":0,"x_max":1527,"o":"m 1111 277 l 1111 555 l 972 555 l 972 277 l 1111 277 m 0 0 l 0 1389 l 416 1389 l 416 833 l 555 833 l 555 1389 l 972 1389 l 972 833 l 1527 833 l 1527 0 l 555 0 l 555 555 l 416 555 l 416 0 l 0 0 z "},"ћ":{"ha":1389,"x_min":0,"x_max":1250,"o":"m 277 0 l 277 1111 l 0 1111 l 0 1389 l 972 1389 l 972 1111 l 694 1111 l 694 833 l 1250 833 l 1250 0 l 833 0 l 833 555 l 694 555 l 694 0 l 277 0 z "},"ќ":{"ha":1111,"x_min":0,"x_max":972,"o":"m 0 0 l 0 1389 l 416 1389 l 416 972 l 555 972 l 555 1389 l 972 1389 l 972 833 l 694 833 l 694 694 l 972 694 l 972 0 l 555 0 l 555 416 l 416 416 l 416 0 l 0 0 m 277 1527 l 277 1805 l 416 1805 l 416 1944 l 694 1944 l 694 1666 l 555 1666 l 555 1527 l 277 1527 z "},"ѝ":{"ha":1250,"x_min":0,"x_max":1111,"o":"m 0 0 l 0 1389 l 416 1389 l 416 833 l 555 833 l 555 1111 l 694 1111 l 694 1389 l 1111 1389 l 1111 0 l 694 0 l 694 555 l 555 555 l 555 277 l 416 277 l 416 0 l 0 0 m 486 1527 l 486 1666 l 347 1666 l 347 1944 l 625 1944 l 625 1805 l 764 1805 l 764 1527 l 486 1527 z "},"ў":{"ha":1111,"x_min":0,"x_max":972,"o":"m 0 0 l 0 277 l 277 277 l 277 555 l 138 555 l 138 833 l 0 833 l 0 1389 l 416 1389 l 416 833 l 555 833 l 555 1389 l 972 1389 l 972 833 l 833 833 l 833 555 l 694 555 l 694 277 l 555 277 l 555 0 l 0 0 m 0 1527 l 0 1944 l 277 1944 l 277 1805 l 694 1805 l 694 1944 l 972 1944 l 972 1527 l 0 1527 z "},"џ":{"ha":1111,"x_min":0,"x_max":972,"o":"m 347 -277 l 347 0 l 0 0 l 0 1389 l 416 1389 l 416 277 l 555 277 l 555 1389 l 972 1389 l 972 0 l 625 0 l 625 -277 l 347 -277 z "},"Ѣ":{"ha":1389,"x_min":0,"x_max":1250,"o":"m 833 277 l 833 555 l 694 555 l 694 277 l 833 277 m 277 0 l 277 972 l 0 972 l 0 1250 l 277 1250 l 277 1389 l 694 1389 l 694 1250 l 972 1250 l 972 972 l 694 972 l 694 833 l 1250 833 l 1250 0 l 277 0 z "},"ѣ":{"ha":1389,"x_min":0,"x_max":1250,"o":"m 833 277 l 833 555 l 694 555 l 694 277 l 833 277 m 277 0 l 277 972 l 0 972 l 0 1250 l 277 1250 l 277 1389 l 694 1389 l 694 1250 l 972 1250 l 972 972 l 694 972 l 694 833 l 1250 833 l 1250 0 l 277 0 z "},"Ѥ":{"ha":1666,"x_min":0,"x_max":1527,"o":"m 0 0 l 0 1389 l 416 1389 l 416 833 l 555 833 l 555 1250 l 694 1250 l 694 1389 l 1527 1389 l 1527 1111 l 972 1111 l 972 833 l 1389 833 l 1389 555 l 972 555 l 972 277 l 1527 277 l 1527 0 l 694 0 l 694 138 l 555 138 l 555 555 l 416 555 l 416 0 l 0 0 z "},"ѥ":{"ha":1666,"x_min":0,"x_max":1527,"o":"m 0 0 l 0 1389 l 416 1389 l 416 833 l 555 833 l 555 1250 l 694 1250 l 694 1389 l 1527 1389 l 1527 1111 l 972 1111 l 972 833 l 1389 833 l 1389 555 l 972 555 l 972 277 l 1527 277 l 1527 0 l 694 0 l 694 138 l 555 138 l 555 555 l 416 555 l 416 0 l 0 0 z "},"Ѱ":{"ha":1666,"x_min":0,"x_max":1527,"o":"m 555 0 l 555 555 l 0 555 l 0 1389 l 416 1389 l 416 833 l 555 833 l 555 1389 l 972 1389 l 972 833 l 1111 833 l 1111 1389 l 1527 1389 l 1527 555 l 972 555 l 972 0 l 555 0 z "},"ѱ":{"ha":1666,"x_min":0,"x_max":1527,"o":"m 555 0 l 555 555 l 0 555 l 0 1389 l 416 1389 l 416 833 l 555 833 l 555 1389 l 972 1389 l 972 833 l 1111 833 l 1111 1389 l 1527 1389 l 1527 555 l 972 555 l 972 0 l 555 0 z "},"Ѵ":{"ha":1111,"x_min":0,"x_max":972,"o":"m 277 0 l 277 277 l 138 277 l 138 555 l 0 555 l 0 1389 l 416 1389 l 416 833 l 555 833 l 555 1389 l 972 1389 l 972 555 l 833 555 l 833 277 l 694 277 l 694 0 l 277 0 z "},"ѵ":{"ha":1111,"x_min":0,"x_max":972,"o":"m 277 0 l 277 277 l 138 277 l 138 555 l 0 555 l 0 1389 l 416 1389 l 416 833 l 555 833 l 555 1389 l 972 1389 l 972 555 l 833 555 l 833 277 l 694 277 l 694 0 l 277 0 z "},"Ѷ":{"ha":1111,"x_min":0,"x_max":972,"o":"m 277 0 l 277 277 l 138 277 l 138 555 l 0 555 l 0 1389 l 416 1389 l 416 833 l 555 833 l 555 1389 l 972 1389 l 972 555 l 833 555 l 833 277 l 694 277 l 694 0 l 277 0 m 138 1527 l 138 1666 l 0 1666 l 0 1944 l 277 1944 l 277 1805 l 416 1805 l 416 1527 l 138 1527 m 694 1527 l 694 1666 l 555 1666 l 555 1944 l 833 1944 l 833 1805 l 972 1805 l 972 1527 l 694 1527 z "},"ѷ":{"ha":1111,"x_min":0,"x_max":972,"o":"m 277 0 l 277 277 l 138 277 l 138 555 l 0 555 l 0 1389 l 416 1389 l 416 833 l 555 833 l 555 1389 l 972 1389 l 972 555 l 833 555 l 833 277 l 694 277 l 694 0 l 277 0 m 138 1527 l 138 1666 l 0 1666 l 0 1944 l 277 1944 l 277 1805 l 416 1805 l 416 1527 l 138 1527 m 694 1527 l 694 1666 l 555 1666 l 555 1944 l 833 1944 l 833 1805 l 972 1805 l 972 1527 l 694 1527 z "},"Ѹ":{"ha":2222,"x_min":0,"x_max":2083,"o":"m 555 277 l 555 1111 l 416 1111 l 416 277 l 555 277 m 0 0 l 0 1389 l 972 1389 l 972 0 l 0 0 m 1111 0 l 1111 277 l 1389 277 l 1389 555 l 1250 555 l 1250 833 l 1111 833 l 1111 1389 l 1527 1389 l 1527 833 l 1666 833 l 1666 1389 l 2083 1389 l 2083 833 l 1944 833 l 1944 555 l 1805 555 l 1805 277 l 1666 277 l 1666 0 l 1111 0 z "},"ѹ":{"ha":2222,"x_min":0,"x_max":2083,"o":"m 555 277 l 555 1111 l 416 1111 l 416 277 l 555 277 m 0 0 l 0 1389 l 972 1389 l 972 0 l 0 0 m 1111 0 l 1111 277 l 1389 277 l 1389 555 l 1250 555 l 1250 833 l 1111 833 l 1111 1389 l 1527 1389 l 1527 833 l 1666 833 l 1666 1389 l 2083 1389 l 2083 833 l 1944 833 l 1944 555 l 1805 555 l 1805 277 l 1666 277 l 1666 0 l 1111 0 z "},"҅":{"ha":555,"x_min":0,"x_max":416,"o":"m 0 694 l 0 1389 l 416 1389 l 416 972 l 277 972 l 277 694 l 0 694 z "},"҆":{"ha":555,"x_min":0,"x_max":416,"o":"m 138 694 l 138 972 l 0 972 l 0 1389 l 416 1389 l 416 694 l 138 694 z "},"Ҋ":{"ha":1389,"x_min":0,"x_max":1250,"o":"m 972 -277 l 972 0 l 694 0 l 694 555 l 555 555 l 555 277 l 416 277 l 416 0 l 0 0 l 0 1389 l 416 1389 l 416 833 l 555 833 l 555 1111 l 694 1111 l 694 1389 l 1111 1389 l 1111 277 l 1250 277 l 1250 -277 l 972 -277 m 0 1527 l 0 1944 l 277 1944 l 277 1805 l 833 1805 l 833 1944 l 1111 1944 l 1111 1527 l 0 1527 z "},"ҋ":{"ha":1389,"x_min":0,"x_max":1250,"o":"m 972 -277 l 972 0 l 694 0 l 694 555 l 555 555 l 555 277 l 416 277 l 416 0 l 0 0 l 0 1389 l 416 1389 l 416 833 l 555 833 l 555 1111 l 694 1111 l 694 1389 l 1111 1389 l 1111 277 l 1250 277 l 1250 -277 l 972 -277 m 0 1527 l 0 1944 l 277 1944 l 277 1805 l 833 1805 l 833 1944 l 1111 1944 l 1111 1527 l 0 1527 z "},"Ҍ":{"ha":1250,"x_min":0,"x_max":1111,"o":"m 694 277 l 694 555 l 555 555 l 555 277 l 694 277 m 138 0 l 138 972 l 0 972 l 0 1250 l 138 1250 l 138 1389 l 555 1389 l 555 1250 l 694 1250 l 694 972 l 555 972 l 555 833 l 1111 833 l 1111 0 l 138 0 z "},"ҍ":{"ha":1250,"x_min":0,"x_max":1111,"o":"m 694 277 l 694 555 l 555 555 l 555 277 l 694 277 m 138 0 l 138 972 l 0 972 l 0 1250 l 138 1250 l 138 1389 l 555 1389 l 555 1250 l 694 1250 l 694 972 l 555 972 l 555 833 l 1111 833 l 1111 0 l 138 0 z "},"Ґ":{"ha":1111,"x_min":0,"x_max":972,"o":"m 0 0 l 0 1389 l 694 1389 l 694 1666 l 972 1666 l 972 1111 l 416 1111 l 416 0 l 0 0 z "},"ґ":{"ha":1111,"x_min":0,"x_max":972,"o":"m 0 0 l 0 1389 l 694 1389 l 694 1666 l 972 1666 l 972 1111 l 416 1111 l 416 0 l 0 0 z "},"Ғ":{"ha":1250,"x_min":0,"x_max":1111,"o":"m 138 0 l 138 416 l 0 416 l 0 694 l 138 694 l 138 1389 l 1111 1389 l 1111 1111 l 555 1111 l 555 694 l 833 694 l 833 416 l 555 416 l 555 0 l 138 0 z "},"ғ":{"ha":1250,"x_min":0,"x_max":1111,"o":"m 138 0 l 138 416 l 0 416 l 0 694 l 138 694 l 138 1389 l 1111 1389 l 1111 1111 l 555 1111 l 555 694 l 833 694 l 833 416 l 555 416 l 555 0 l 138 0 z "},"Җ":{"ha":1805,"x_min":0,"x_max":1666,"o":"m 1389 -277 l 1389 0 l 1111 0 l 1111 416 l 972 416 l 972 0 l 555 0 l 555 416 l 416 416 l 416 0 l 0 0 l 0 694 l 277 694 l 277 833 l 0 833 l 0 1389 l 416 1389 l 416 972 l 555 972 l 555 1389 l 972 1389 l 972 972 l 1111 972 l 1111 1389 l 1527 1389 l 1527 833 l 1250 833 l 1250 694 l 1527 694 l 1527 277 l 1666 277 l 1666 -277 l 1389 -277 z "},"җ":{"ha":1805,"x_min":0,"x_max":1666,"o":"m 1389 -277 l 1389 0 l 1111 0 l 1111 416 l 972 416 l 972 0 l 555 0 l 555 416 l 416 416 l 416 0 l 0 0 l 0 694 l 277 694 l 277 833 l 0 833 l 0 1389 l 416 1389 l 416 972 l 555 972 l 555 1389 l 972 1389 l 972 972 l 1111 972 l 1111 1389 l 1527 1389 l 1527 833 l 1250 833 l 1250 694 l 1527 694 l 1527 277 l 1666 277 l 1666 -277 l 1389 -277 z "},"Ҙ":{"ha":1111,"x_min":0,"x_max":972,"o":"m 277 -555 l 277 -277 l 416 -277 l 416 0 l 0 0 l 0 277 l 555 277 l 555 555 l 138 555 l 138 833 l 555 833 l 555 1111 l 0 1111 l 0 1389 l 972 1389 l 972 833 l 833 833 l 833 694 l 972 694 l 972 0 l 694 0 l 694 -555 l 277 -555 z "},"ҙ":{"ha":1111,"x_min":0,"x_max":972,"o":"m 277 -555 l 277 -277 l 416 -277 l 416 0 l 0 0 l 0 277 l 555 277 l 555 555 l 138 555 l 138 833 l 555 833 l 555 1111 l 0 1111 l 0 1389 l 972 1389 l 972 833 l 833 833 l 833 694 l 972 694 l 972 0 l 694 0 l 694 -555 l 277 -555 z "},"Қ":{"ha":1250,"x_min":0,"x_max":1111,"o":"m 833 -277 l 833 0 l 555 0 l 555 416 l 416 416 l 416 0 l 0 0 l 0 1389 l 416 1389 l 416 972 l 555 972 l 555 1389 l 972 1389 l 972 833 l 694 833 l 694 694 l 972 694 l 972 277 l 1111 277 l 1111 -277 l 833 -277 z "},"қ":{"ha":1250,"x_min":0,"x_max":1111,"o":"m 833 -277 l 833 0 l 555 0 l 555 416 l 416 416 l 416 0 l 0 0 l 0 1389 l 416 1389 l 416 972 l 555 972 l 555 1389 l 972 1389 l 972 833 l 694 833 l 694 694 l 972 694 l 972 277 l 1111 277 l 1111 -277 l 833 -277 z "},"Ҟ":{"ha":1389,"x_min":0,"x_max":1250,"o":"m 138 0 l 138 1111 l 0 1111 l 0 1250 l 138 1250 l 138 1389 l 555 1389 l 555 1250 l 694 1250 l 694 1111 l 555 1111 l 555 972 l 833 972 l 833 1389 l 1250 1389 l 1250 833 l 972 833 l 972 694 l 1250 694 l 1250 0 l 833 0 l 833 416 l 555 416 l 555 0 l 138 0 z "},"ҟ":{"ha":1389,"x_min":0,"x_max":1250,"o":"m 138 0 l 138 1111 l 0 1111 l 0 1250 l 138 1250 l 138 1389 l 555 1389 l 555 1250 l 694 1250 l 694 1111 l 555 1111 l 555 972 l 833 972 l 833 1389 l 1250 1389 l 1250 833 l 972 833 l 972 694 l 1250 694 l 1250 0 l 833 0 l 833 416 l 555 416 l 555 0 l 138 0 z "},"Ҡ":{"ha":1666,"x_min":0,"x_max":1527,"o":"m 555 0 l 555 1111 l 0 1111 l 0 1389 l 972 1389 l 972 972 l 1111 972 l 1111 1389 l 1527 1389 l 1527 833 l 1250 833 l 1250 694 l 1527 694 l 1527 0 l 1111 0 l 1111 416 l 972 416 l 972 0 l 555 0 z "},"ҡ":{"ha":1666,"x_min":0,"x_max":1527,"o":"m 555 0 l 555 1111 l 0 1111 l 0 1389 l 972 1389 l 972 972 l 1111 972 l 1111 1389 l 1527 1389 l 1527 833 l 1250 833 l 1250 694 l 1527 694 l 1527 0 l 1111 0 l 1111 416 l 972 416 l 972 0 l 555 0 z "},"Ң":{"ha":1250,"x_min":0,"x_max":1111,"o":"m 833 -277 l 833 0 l 555 0 l 555 555 l 416 555 l 416 0 l 0 0 l 0 1389 l 416 1389 l 416 833 l 555 833 l 555 1389 l 972 1389 l 972 277 l 1111 277 l 1111 -277 l 833 -277 z "},"ң":{"ha":1250,"x_min":0,"x_max":1111,"o":"m 833 -277 l 833 0 l 555 0 l 555 555 l 416 555 l 416 0 l 0 0 l 0 1389 l 416 1389 l 416 833 l 555 833 l 555 1389 l 972 1389 l 972 277 l 1111 277 l 1111 -277 l 833 -277 z "},"Ҥ":{"ha":1666,"x_min":0,"x_max":1527,"o":"m 0 0 l 0 1389 l 416 1389 l 416 833 l 555 833 l 555 1389 l 1527 1389 l 1527 1111 l 972 1111 l 972 0 l 555 0 l 555 555 l 416 555 l 416 0 l 0 0 z "},"ҥ":{"ha":1666,"x_min":0,"x_max":1527,"o":"m 0 0 l 0 1389 l 416 1389 l 416 833 l 555 833 l 555 1389 l 1527 1389 l 1527 1111 l 972 1111 l 972 0 l 555 0 l 555 555 l 416 555 l 416 0 l 0 0 z "},"Ҫ":{"ha":1111,"x_min":0,"x_max":972,"o":"m 277 -555 l 277 -277 l 416 -277 l 416 0 l 0 0 l 0 1389 l 972 1389 l 972 1111 l 416 1111 l 416 277 l 972 277 l 972 0 l 694 0 l 694 -555 l 277 -555 z "},"ҫ":{"ha":1111,"x_min":0,"x_max":972,"o":"m 277 -555 l 277 -277 l 416 -277 l 416 0 l 0 0 l 0 1389 l 972 1389 l 972 1111 l 416 1111 l 416 277 l 972 277 l 972 0 l 694 0 l 694 -555 l 277 -555 z "},"Ҭ":{"ha":1111,"x_min":0,"x_max":972,"o":"m 555 -277 l 555 0 l 277 0 l 277 1111 l 0 1111 l 0 1389 l 972 1389 l 972 1111 l 694 1111 l 694 277 l 833 277 l 833 -277 l 555 -277 z "},"ҭ":{"ha":1111,"x_min":0,"x_max":972,"o":"m 555 -277 l 555 0 l 277 0 l 277 1111 l 0 1111 l 0 1389 l 972 1389 l 972 1111 l 694 1111 l 694 277 l 833 277 l 833 -277 l 555 -277 z "},"Ү":{"ha":1111,"x_min":0,"x_max":972,"o":"m 277 0 l 277 694 l 0 694 l 0 1389 l 416 1389 l 416 972 l 555 972 l 555 1389 l 972 1389 l 972 694 l 694 694 l 694 0 l 277 0 z "},"ү":{"ha":1111,"x_min":0,"x_max":972,"o":"m 277 0 l 277 694 l 0 694 l 0 1389 l 416 1389 l 416 972 l 555 972 l 555 1389 l 972 1389 l 972 694 l 694 694 l 694 0 l 277 0 z "},"Ұ":{"ha":1111,"x_min":0,"x_max":972,"o":"m 277 0 l 277 277 l 0 277 l 0 555 l 277 555 l 277 694 l 0 694 l 0 1389 l 416 1389 l 416 972 l 555 972 l 555 1389 l 972 1389 l 972 694 l 694 694 l 694 555 l 972 555 l 972 277 l 694 277 l 694 0 l 277 0 z "},"ұ":{"ha":1111,"x_min":0,"x_max":972,"o":"m 277 0 l 277 277 l 0 277 l 0 555 l 277 555 l 277 694 l 0 694 l 0 1389 l 416 1389 l 416 972 l 555 972 l 555 1389 l 972 1389 l 972 694 l 694 694 l 694 555 l 972 555 l 972 277 l 694 277 l 694 0 l 277 0 z "},"Ҳ":{"ha":1250,"x_min":0,"x_max":1111,"o":"m 833 -277 l 833 0 l 555 0 l 555 416 l 416 416 l 416 0 l 0 0 l 0 694 l 277 694 l 277 833 l 0 833 l 0 1389 l 416 1389 l 416 972 l 555 972 l 555 1389 l 972 1389 l 972 833 l 694 833 l 694 694 l 972 694 l 972 277 l 1111 277 l 1111 -277 l 833 -277 z "},"ҳ":{"ha":1250,"x_min":0,"x_max":1111,"o":"m 833 -277 l 833 0 l 555 0 l 555 416 l 416 416 l 416 0 l 0 0 l 0 694 l 277 694 l 277 833 l 0 833 l 0 1389 l 416 1389 l 416 972 l 555 972 l 555 1389 l 972 1389 l 972 833 l 694 833 l 694 694 l 972 694 l 972 277 l 1111 277 l 1111 -277 l 833 -277 z "},"Ҵ":{"ha":1805,"x_min":0,"x_max":1666,"o":"m 1389 -277 l 1389 0 l 277 0 l 277 1111 l 0 1111 l 0 1389 l 972 1389 l 972 1111 l 694 1111 l 694 277 l 1111 277 l 1111 1389 l 1527 1389 l 1527 277 l 1666 277 l 1666 -277 l 1389 -277 z "},"ҵ":{"ha":1805,"x_min":0,"x_max":1666,"o":"m 1389 -277 l 1389 0 l 277 0 l 277 1111 l 0 1111 l 0 1389 l 972 1389 l 972 1111 l 694 1111 l 694 277 l 1111 277 l 1111 1389 l 1527 1389 l 1527 277 l 1666 277 l 1666 -277 l 1389 -277 z "},"Ҷ":{"ha":1250,"x_min":0,"x_max":1111,"o":"m 833 -277 l 833 0 l 555 0 l 555 555 l 0 555 l 0 1389 l 416 1389 l 416 833 l 555 833 l 555 1389 l 972 1389 l 972 277 l 1111 277 l 1111 -277 l 833 -277 z "},"ҷ":{"ha":1250,"x_min":0,"x_max":1111,"o":"m 833 -277 l 833 0 l 555 0 l 555 555 l 0 555 l 0 1389 l 416 1389 l 416 833 l 555 833 l 555 1389 l 972 1389 l 972 277 l 1111 277 l 1111 -277 l 833 -277 z "},"Һ":{"ha":1111,"x_min":0,"x_max":972,"o":"m 0 0 l 0 1389 l 416 1389 l 416 833 l 972 833 l 972 0 l 555 0 l 555 555 l 416 555 l 416 0 l 0 0 z "},"һ":{"ha":1111,"x_min":0,"x_max":972,"o":"m 0 0 l 0 1389 l 416 1389 l 416 833 l 972 833 l 972 0 l 555 0 l 555 555 l 416 555 l 416 0 l 0 0 z "},"Ӏ":{"ha":555,"x_min":0,"x_max":416,"o":"m 0 0 l 0 1389 l 416 1389 l 416 0 l 0 0 z "},"Ӂ":{"ha":1666,"x_min":0,"x_max":1527,"o":"m 0 0 l 0 694 l 277 694 l 277 833 l 0 833 l 0 1389 l 416 1389 l 416 972 l 555 972 l 555 1389 l 972 1389 l 972 972 l 1111 972 l 1111 1389 l 1527 1389 l 1527 833 l 1250 833 l 1250 694 l 1527 694 l 1527 0 l 1111 0 l 1111 416 l 972 416 l 972 0 l 555 0 l 555 416 l 416 416 l 416 0 l 0 0 m 277 1527 l 277 1944 l 555 1944 l 555 1805 l 972 1805 l 972 1944 l 1250 1944 l 1250 1527 l 277 1527 z "},"ӂ":{"ha":1666,"x_min":0,"x_max":1527,"o":"m 0 0 l 0 694 l 277 694 l 277 833 l 0 833 l 0 1389 l 416 1389 l 416 972 l 555 972 l 555 1389 l 972 1389 l 972 972 l 1111 972 l 1111 1389 l 1527 1389 l 1527 833 l 1250 833 l 1250 694 l 1527 694 l 1527 0 l 1111 0 l 1111 416 l 972 416 l 972 0 l 555 0 l 555 416 l 416 416 l 416 0 l 0 0 m 277 1527 l 277 1944 l 555 1944 l 555 1805 l 972 1805 l 972 1944 l 1250 1944 l 1250 1527 l 277 1527 z "},"Ӆ":{"ha":1389,"x_min":0,"x_max":1250,"o":"m 972 -277 l 972 0 l 694 0 l 694 1111 l 555 1111 l 555 277 l 416 277 l 416 0 l 0 0 l 0 416 l 138 416 l 138 1389 l 1111 1389 l 1111 277 l 1250 277 l 1250 -277 l 972 -277 z "},"ӆ":{"ha":1389,"x_min":0,"x_max":1250,"o":"m 972 -277 l 972 0 l 694 0 l 694 1111 l 555 1111 l 555 277 l 416 277 l 416 0 l 0 0 l 0 416 l 138 416 l 138 1389 l 1111 1389 l 1111 277 l 1250 277 l 1250 -277 l 972 -277 z "},"Ӊ":{"ha":1250,"x_min":0,"x_max":1111,"o":"m 833 -277 l 833 0 l 555 0 l 555 555 l 416 555 l 416 0 l 0 0 l 0 1389 l 416 1389 l 416 833 l 555 833 l 555 1389 l 972 1389 l 972 277 l 1111 277 l 1111 -277 l 833 -277 z "},"ӊ":{"ha":1250,"x_min":0,"x_max":1111,"o":"m 833 -277 l 833 0 l 555 0 l 555 555 l 416 555 l 416 0 l 0 0 l 0 1389 l 416 1389 l 416 833 l 555 833 l 555 1389 l 972 1389 l 972 277 l 1111 277 l 1111 -277 l 833 -277 z "},"Ӌ":{"ha":1250,"x_min":0,"x_max":1111,"o":"m 833 -277 l 833 0 l 555 0 l 555 555 l 0 555 l 0 1389 l 416 1389 l 416 833 l 555 833 l 555 1389 l 972 1389 l 972 277 l 1111 277 l 1111 -277 l 833 -277 z "},"ӌ":{"ha":1250,"x_min":0,"x_max":1111,"o":"m 833 -277 l 833 0 l 555 0 l 555 555 l 0 555 l 0 1389 l 416 1389 l 416 833 l 555 833 l 555 1389 l 972 1389 l 972 277 l 1111 277 l 1111 -277 l 833 -277 z "},"Ӎ":{"ha":1666,"x_min":0,"x_max":1527,"o":"m 1250 -277 l 1250 0 l 972 0 l 972 555 l 833 555 l 833 277 l 555 277 l 555 555 l 416 555 l 416 0 l 0 0 l 0 1389 l 416 1389 l 416 1111 l 555 1111 l 555 833 l 833 833 l 833 1111 l 972 1111 l 972 1389 l 1389 1389 l 1389 277 l 1527 277 l 1527 -277 l 1250 -277 z "},"ӎ":{"ha":1666,"x_min":0,"x_max":1527,"o":"m 1250 -277 l 1250 0 l 972 0 l 972 555 l 833 555 l 833 277 l 555 277 l 555 555 l 416 555 l 416 0 l 0 0 l 0 1389 l 416 1389 l 416 1111 l 555 1111 l 555 833 l 833 833 l 833 1111 l 972 1111 l 972 1389 l 1389 1389 l 1389 277 l 1527 277 l 1527 -277 l 1250 -277 z "},"ӏ":{"ha":555,"x_min":0,"x_max":416,"o":"m 0 0 l 0 1389 l 416 1389 l 416 0 l 0 0 z "},"Ӑ":{"ha":1111,"x_min":0,"x_max":972,"o":"m 625 764 l 625 972 l 555 972 l 555 1042 l 694 1042 l 694 1180 l 555 1180 l 555 1042 l 416 1042 l 416 1180 l 277 1180 l 277 1042 l 416 1042 l 416 972 l 347 972 l 347 764 l 416 764 l 416 833 l 555 833 l 555 764 l 625 764 m 0 0 l 0 1389 l 972 1389 l 972 0 l 555 0 l 555 555 l 416 555 l 416 0 l 0 0 m 0 1527 l 0 1944 l 277 1944 l 277 1805 l 694 1805 l 694 1944 l 972 1944 l 972 1527 l 0 1527 z "},"ӑ":{"ha":1111,"x_min":0,"x_max":972,"o":"m 555 833 l 555 1111 l 416 1111 l 416 833 l 555 833 m 0 0 l 0 1389 l 972 1389 l 972 0 l 555 0 l 555 555 l 416 555 l 416 0 l 0 0 m 0 1527 l 0 1944 l 277 1944 l 277 1805 l 694 1805 l 694 1944 l 972 1944 l 972 1527 l 0 1527 z "},"Ӓ":{"ha":1111,"x_min":0,"x_max":972,"o":"m 625 764 l 625 972 l 555 972 l 555 1042 l 694 1042 l 694 1180 l 555 1180 l 555 1042 l 416 1042 l 416 1180 l 277 1180 l 277 1042 l 416 1042 l 416 972 l 347 972 l 347 764 l 416 764 l 416 833 l 555 833 l 555 764 l 625 764 m 0 0 l 0 1389 l 972 1389 l 972 0 l 555 0 l 555 555 l 416 555 l 416 0 l 0 0 m 138 1527 l 138 1805 l 416 1805 l 416 1527 l 138 1527 m 555 1527 l 555 1805 l 833 1805 l 833 1527 l 555 1527 z "},"ӓ":{"ha":1111,"x_min":0,"x_max":972,"o":"m 555 833 l 555 1111 l 416 1111 l 416 833 l 555 833 m 0 0 l 0 1389 l 972 1389 l 972 0 l 555 0 l 555 555 l 416 555 l 416 0 l 0 0 m 138 1527 l 138 1805 l 416 1805 l 416 1527 l 138 1527 m 555 1527 l 555 1805 l 833 1805 l 833 1527 l 555 1527 z "},"Ӕ":{"ha":1666,"x_min":0,"x_max":1527,"o":"m 625 764 l 625 972 l 555 972 l 555 1042 l 694 1042 l 694 1180 l 555 1180 l 555 1042 l 416 1042 l 416 1180 l 277 1180 l 277 1042 l 416 1042 l 416 972 l 347 972 l 347 764 l 416 764 l 416 833 l 555 833 l 555 764 l 625 764 m 0 0 l 0 1389 l 1527 1389 l 1527 1111 l 972 1111 l 972 833 l 1389 833 l 1389 555 l 972 555 l 972 277 l 1527 277 l 1527 0 l 555 0 l 555 555 l 416 555 l 416 0 l 0 0 z "},"ӕ":{"ha":1666,"x_min":0,"x_max":1527,"o":"m 555 833 l 555 1111 l 416 1111 l 416 833 l 555 833 m 0 0 l 0 1389 l 1527 1389 l 1527 1111 l 972 1111 l 972 833 l 1389 833 l 1389 555 l 972 555 l 972 277 l 1527 277 l 1527 0 l 555 0 l 555 555 l 416 555 l 416 0 l 0 0 z "},"Ӗ":{"ha":1111,"x_min":0,"x_max":972,"o":"m 0 0 l 0 1389 l 972 1389 l 972 1111 l 416 1111 l 416 833 l 833 833 l 833 555 l 416 555 l 416 277 l 972 277 l 972 0 l 0 0 m 0 1527 l 0 1944 l 277 1944 l 277 1805 l 694 1805 l 694 1944 l 972 1944 l 972 1527 l 0 1527 z "},"ӗ":{"ha":1111,"x_min":0,"x_max":972,"o":"m 0 0 l 0 1389 l 972 1389 l 972 1111 l 416 1111 l 416 833 l 833 833 l 833 555 l 416 555 l 416 277 l 972 277 l 972 0 l 0 0 m 0 1527 l 0 1944 l 277 1944 l 277 1805 l 694 1805 l 694 1944 l 972 1944 l 972 1527 l 0 1527 z "},"Ӝ":{"ha":1666,"x_min":0,"x_max":1527,"o":"m 0 0 l 0 694 l 277 694 l 277 833 l 0 833 l 0 1389 l 416 1389 l 416 972 l 555 972 l 555 1389 l 972 1389 l 972 972 l 1111 972 l 1111 1389 l 1527 1389 l 1527 833 l 1250 833 l 1250 694 l 1527 694 l 1527 0 l 1111 0 l 1111 416 l 972 416 l 972 0 l 555 0 l 555 416 l 416 416 l 416 0 l 0 0 m 416 1527 l 416 1805 l 694 1805 l 694 1527 l 416 1527 m 833 1527 l 833 1805 l 1111 1805 l 1111 1527 l 833 1527 z "},"ӝ":{"ha":1666,"x_min":0,"x_max":1527,"o":"m 0 0 l 0 694 l 277 694 l 277 833 l 0 833 l 0 1389 l 416 1389 l 416 972 l 555 972 l 555 1389 l 972 1389 l 972 972 l 1111 972 l 1111 1389 l 1527 1389 l 1527 833 l 1250 833 l 1250 694 l 1527 694 l 1527 0 l 1111 0 l 1111 416 l 972 416 l 972 0 l 555 0 l 555 416 l 416 416 l 416 0 l 0 0 m 416 1527 l 416 1805 l 694 1805 l 694 1527 l 416 1527 m 833 1527 l 833 1805 l 1111 1805 l 1111 1527 l 833 1527 z "},"Ӟ":{"ha":1111,"x_min":0,"x_max":972,"o":"m 0 0 l 0 277 l 555 277 l 555 555 l 138 555 l 138 833 l 555 833 l 555 1111 l 0 1111 l 0 1389 l 972 1389 l 972 833 l 833 833 l 833 694 l 972 694 l 972 0 l 0 0 m 138 1527 l 138 1805 l 416 1805 l 416 1527 l 138 1527 m 555 1527 l 555 1805 l 833 1805 l 833 1527 l 555 1527 z "},"ӟ":{"ha":1111,"x_min":0,"x_max":972,"o":"m 0 0 l 0 277 l 555 277 l 555 555 l 138 555 l 138 833 l 555 833 l 555 1111 l 0 1111 l 0 1389 l 972 1389 l 972 833 l 833 833 l 833 694 l 972 694 l 972 0 l 0 0 m 138 1527 l 138 1805 l 416 1805 l 416 1527 l 138 1527 m 555 1527 l 555 1805 l 833 1805 l 833 1527 l 555 1527 z "},"Ӣ":{"ha":1250,"x_min":0,"x_max":1111,"o":"m 0 0 l 0 1389 l 416 1389 l 416 833 l 555 833 l 555 1111 l 694 1111 l 694 1389 l 1111 1389 l 1111 0 l 694 0 l 694 555 l 555 555 l 555 277 l 416 277 l 416 0 l 0 0 m 138 1527 l 138 1805 l 972 1805 l 972 1527 l 138 1527 z "},"ӣ":{"ha":1250,"x_min":0,"x_max":1111,"o":"m 0 0 l 0 1389 l 416 1389 l 416 833 l 555 833 l 555 1111 l 694 1111 l 694 1389 l 1111 1389 l 1111 0 l 694 0 l 694 555 l 555 555 l 555 277 l 416 277 l 416 0 l 0 0 m 138 1527 l 138 1805 l 972 1805 l 972 1527 l 138 1527 z "},"Ӥ":{"ha":1250,"x_min":0,"x_max":1111,"o":"m 0 0 l 0 1389 l 416 1389 l 416 833 l 555 833 l 555 1111 l 694 1111 l 694 1389 l 1111 1389 l 1111 0 l 694 0 l 694 555 l 555 555 l 555 277 l 416 277 l 416 0 l 0 0 m 208 1527 l 208 1805 l 486 1805 l 486 1527 l 208 1527 m 625 1527 l 625 1805 l 903 1805 l 903 1527 l 625 1527 z "},"ӥ":{"ha":1250,"x_min":0,"x_max":1111,"o":"m 0 0 l 0 1389 l 416 1389 l 416 833 l 555 833 l 555 1111 l 694 1111 l 694 1389 l 1111 1389 l 1111 0 l 694 0 l 694 555 l 555 555 l 555 277 l 416 277 l 416 0 l 0 0 m 208 1527 l 208 1805 l 486 1805 l 486 1527 l 208 1527 m 625 1527 l 625 1805 l 903 1805 l 903 1527 l 625 1527 z "},"Ӧ":{"ha":1111,"x_min":0,"x_max":972,"o":"m 555 277 l 555 1111 l 416 1111 l 416 277 l 555 277 m 0 0 l 0 1389 l 972 1389 l 972 0 l 0 0 m 138 1527 l 138 1805 l 416 1805 l 416 1527 l 138 1527 m 555 1527 l 555 1805 l 833 1805 l 833 1527 l 555 1527 z "},"ӧ":{"ha":1111,"x_min":0,"x_max":972,"o":"m 555 277 l 555 1111 l 416 1111 l 416 277 l 555 277 m 0 0 l 0 1389 l 972 1389 l 972 0 l 0 0 m 138 1527 l 138 1805 l 416 1805 l 416 1527 l 138 1527 m 555 1527 l 555 1805 l 833 1805 l 833 1527 l 555 1527 z "},"Ө":{"ha":1111,"x_min":0,"x_max":972,"o":"m 555 277 l 555 555 l 416 555 l 416 277 l 555 277 m 555 833 l 555 1111 l 416 1111 l 416 833 l 555 833 m 0 0 l 0 1389 l 972 1389 l 972 0 l 0 0 z "},"ө":{"ha":1111,"x_min":0,"x_max":972,"o":"m 555 277 l 555 555 l 416 555 l 416 277 l 555 277 m 555 833 l 555 1111 l 416 1111 l 416 833 l 555 833 m 0 0 l 0 1389 l 972 1389 l 972 0 l 0 0 z "},"Ӫ":{"ha":1111,"x_min":0,"x_max":972,"o":"m 555 277 l 555 555 l 416 555 l 416 277 l 555 277 m 555 833 l 555 1111 l 416 1111 l 416 833 l 555 833 m 0 0 l 0 1389 l 972 1389 l 972 0 l 0 0 m 138 1527 l 138 1805 l 416 1805 l 416 1527 l 138 1527 m 555 1527 l 555 1805 l 833 1805 l 833 1527 l 555 1527 z "},"ӫ":{"ha":1111,"x_min":0,"x_max":972,"o":"m 555 277 l 555 555 l 416 555 l 416 277 l 555 277 m 555 833 l 555 1111 l 416 1111 l 416 833 l 555 833 m 0 0 l 0 1389 l 972 1389 l 972 0 l 0 0 m 138 1527 l 138 1805 l 416 1805 l 416 1527 l 138 1527 m 555 1527 l 555 1805 l 833 1805 l 833 1527 l 555 1527 z "},"Ӭ":{"ha":1111,"x_min":0,"x_max":972,"o":"m 0 0 l 0 277 l 555 277 l 555 555 l 138 555 l 138 833 l 555 833 l 555 1111 l 0 1111 l 0 1389 l 833 1389 l 833 1250 l 972 1250 l 972 138 l 833 138 l 833 0 l 0 0 m 138 1527 l 138 1805 l 416 1805 l 416 1527 l 138 1527 m 555 1527 l 555 1805 l 833 1805 l 833 1527 l 555 1527 z "},"ӭ":{"ha":1111,"x_min":0,"x_max":972,"o":"m 0 0 l 0 277 l 555 277 l 555 555 l 138 555 l 138 833 l 555 833 l 555 1111 l 0 1111 l 0 1389 l 833 1389 l 833 1250 l 972 1250 l 972 138 l 833 138 l 833 0 l 0 0 m 138 1527 l 138 1805 l 416 1805 l 416 1527 l 138 1527 m 555 1527 l 555 1805 l 833 1805 l 833 1527 l 555 1527 z "},"Ӯ":{"ha":1111,"x_min":0,"x_max":972,"o":"m 0 0 l 0 277 l 277 277 l 277 555 l 138 555 l 138 833 l 0 833 l 0 1389 l 416 1389 l 416 833 l 555 833 l 555 1389 l 972 1389 l 972 833 l 833 833 l 833 555 l 694 555 l 694 277 l 555 277 l 555 0 l 0 0 m 138 1527 l 138 1805 l 833 1805 l 833 1527 l 138 1527 z "},"ӯ":{"ha":1111,"x_min":0,"x_max":972,"o":"m 0 0 l 0 277 l 277 277 l 277 555 l 138 555 l 138 833 l 0 833 l 0 1389 l 416 1389 l 416 833 l 555 833 l 555 1389 l 972 1389 l 972 833 l 833 833 l 833 555 l 694 555 l 694 277 l 555 277 l 555 0 l 0 0 m 138 1527 l 138 1805 l 833 1805 l 833 1527 l 138 1527 z "},"Ӱ":{"ha":1111,"x_min":0,"x_max":972,"o":"m 0 0 l 0 277 l 277 277 l 277 555 l 138 555 l 138 833 l 0 833 l 0 1389 l 416 1389 l 416 833 l 555 833 l 555 1389 l 972 1389 l 972 833 l 833 833 l 833 555 l 694 555 l 694 277 l 555 277 l 555 0 l 0 0 m 138 1527 l 138 1805 l 416 1805 l 416 1527 l 138 1527 m 555 1527 l 555 1805 l 833 1805 l 833 1527 l 555 1527 z "},"ӱ":{"ha":1111,"x_min":0,"x_max":972,"o":"m 0 0 l 0 277 l 277 277 l 277 555 l 138 555 l 138 833 l 0 833 l 0 1389 l 416 1389 l 416 833 l 555 833 l 555 1389 l 972 1389 l 972 833 l 833 833 l 833 555 l 694 555 l 694 277 l 555 277 l 555 0 l 0 0 m 138 1527 l 138 1805 l 416 1805 l 416 1527 l 138 1527 m 555 1527 l 555 1805 l 833 1805 l 833 1527 l 555 1527 z "},"Ӳ":{"ha":1111,"x_min":0,"x_max":972,"o":"m 0 0 l 0 277 l 277 277 l 277 555 l 138 555 l 138 833 l 0 833 l 0 1389 l 416 1389 l 416 833 l 555 833 l 555 1389 l 972 1389 l 972 833 l 833 833 l 833 555 l 694 555 l 694 277 l 555 277 l 555 0 l 0 0 m 0 1527 l 0 1805 l 138 1805 l 138 1944 l 416 1944 l 416 1666 l 277 1666 l 277 1527 l 0 1527 m 555 1527 l 555 1805 l 694 1805 l 694 1944 l 972 1944 l 972 1666 l 833 1666 l 833 1527 l 555 1527 z "},"ӳ":{"ha":1111,"x_min":0,"x_max":972,"o":"m 0 0 l 0 277 l 277 277 l 277 555 l 138 555 l 138 833 l 0 833 l 0 1389 l 416 1389 l 416 833 l 555 833 l 555 1389 l 972 1389 l 972 833 l 833 833 l 833 555 l 694 555 l 694 277 l 555 277 l 555 0 l 0 0 m 0 1527 l 0 1805 l 138 1805 l 138 1944 l 416 1944 l 416 1666 l 277 1666 l 277 1527 l 0 1527 m 555 1527 l 555 1805 l 694 1805 l 694 1944 l 972 1944 l 972 1666 l 833 1666 l 833 1527 l 555 1527 z "},"Ӵ":{"ha":1111,"x_min":0,"x_max":972,"o":"m 555 0 l 555 555 l 0 555 l 0 1389 l 416 1389 l 416 833 l 555 833 l 555 1389 l 972 1389 l 972 0 l 555 0 m 138 1527 l 138 1805 l 416 1805 l 416 1527 l 138 1527 m 555 1527 l 555 1805 l 833 1805 l 833 1527 l 555 1527 z "},"ӵ":{"ha":1111,"x_min":0,"x_max":972,"o":"m 555 0 l 555 555 l 0 555 l 0 1389 l 416 1389 l 416 833 l 555 833 l 555 1389 l 972 1389 l 972 0 l 555 0 m 138 1527 l 138 1805 l 416 1805 l 416 1527 l 138 1527 m 555 1527 l 555 1805 l 833 1805 l 833 1527 l 555 1527 z "},"Ӷ":{"ha":1111,"x_min":0,"x_max":972,"o":"m 277 -277 l 277 0 l 0 0 l 0 1389 l 972 1389 l 972 1111 l 416 1111 l 416 277 l 555 277 l 555 -277 l 277 -277 z "},"ӷ":{"ha":1111,"x_min":0,"x_max":972,"o":"m 277 -277 l 277 0 l 0 0 l 0 1389 l 972 1389 l 972 1111 l 416 1111 l 416 277 l 555 277 l 555 -277 l 277 -277 z "},"Ӹ":{"ha":1666,"x_min":0,"x_max":1527,"o":"m 555 277 l 555 555 l 416 555 l 416 277 l 555 277 m 0 0 l 0 1389 l 416 1389 l 416 833 l 972 833 l 972 0 l 0 0 m 1111 0 l 1111 1389 l 1527 1389 l 1527 0 l 1111 0 m 416 1527 l 416 1805 l 694 1805 l 694 1527 l 416 1527 m 833 1527 l 833 1805 l 1111 1805 l 1111 1527 l 833 1527 z "},"ӹ":{"ha":1666,"x_min":0,"x_max":1527,"o":"m 555 277 l 555 555 l 416 555 l 416 277 l 555 277 m 0 0 l 0 1389 l 416 1389 l 416 833 l 972 833 l 972 0 l 0 0 m 1111 0 l 1111 1389 l 1527 1389 l 1527 0 l 1111 0 m 416 1527 l 416 1805 l 694 1805 l 694 1527 l 416 1527 m 833 1527 l 833 1805 l 1111 1805 l 1111 1527 l 833 1527 z "},"Ӻ":{"ha":1250,"x_min":0,"x_max":1111,"o":"m 277 -555 l 277 -277 l 416 -277 l 416 0 l 138 0 l 138 555 l 0 555 l 0 833 l 138 833 l 138 1389 l 1111 1389 l 1111 1111 l 555 1111 l 555 833 l 694 833 l 694 555 l 555 555 l 555 277 l 694 277 l 694 -555 l 277 -555 z "},"ӻ":{"ha":1250,"x_min":0,"x_max":1111,"o":"m 277 -555 l 277 -277 l 416 -277 l 416 0 l 138 0 l 138 555 l 0 555 l 0 833 l 138 833 l 138 1389 l 1111 1389 l 1111 1111 l 555 1111 l 555 833 l 694 833 l 694 555 l 555 555 l 555 277 l 694 277 l 694 -555 l 277 -555 z "},"Ӽ":{"ha":1111,"x_min":0,"x_max":972,"o":"m 416 -416 l 416 -138 l 555 -138 l 555 416 l 416 416 l 416 0 l 0 0 l 0 694 l 277 694 l 277 833 l 0 833 l 0 1389 l 416 1389 l 416 972 l 555 972 l 555 1389 l 972 1389 l 972 833 l 694 833 l 694 694 l 972 694 l 972 -277 l 833 -277 l 833 -416 l 416 -416 z "},"ӽ":{"ha":1111,"x_min":0,"x_max":972,"o":"m 416 -416 l 416 -138 l 555 -138 l 555 416 l 416 416 l 416 0 l 0 0 l 0 694 l 277 694 l 277 833 l 0 833 l 0 1389 l 416 1389 l 416 972 l 555 972 l 555 1389 l 972 1389 l 972 833 l 694 833 l 694 694 l 972 694 l 972 -277 l 833 -277 l 833 -416 l 416 -416 z "},"ẞ":{"ha":1111,"x_min":0,"x_max":972,"o":"m 0 0 l 0 1250 l 138 1250 l 138 1389 l 972 1389 l 972 694 l 833 694 l 833 555 l 972 555 l 972 138 l 833 138 l 833 0 l 555 0 l 555 1111 l 416 1111 l 416 0 l 0 0 z "},"–":{"ha":972,"x_min":0,"x_max":833,"o":"m 0 555 l 0 833 l 833 833 l 833 555 l 0 555 z "},"—":{"ha":1250,"x_min":0,"x_max":1111,"o":"m 0 555 l 0 833 l 1111 833 l 1111 555 l 0 555 z "},"‘":{"ha":555,"x_min":0,"x_max":416,"o":"m 0 694 l 0 1389 l 277 1389 l 277 1111 l 416 1111 l 416 694 l 0 694 z "},"’":{"ha":555,"x_min":0,"x_max":416,"o":"m 138 694 l 138 972 l 0 972 l 0 1389 l 416 1389 l 416 694 l 138 694 z "},"‚":{"ha":555,"x_min":0,"x_max":416,"o":"m 138 -277 l 138 0 l 0 0 l 0 416 l 416 416 l 416 -277 l 138 -277 z "},"‛":{"ha":555,"x_min":0,"x_max":416,"o":"m 0 694 l 0 1389 l 416 1389 l 416 972 l 277 972 l 277 694 l 0 694 z "},"“":{"ha":1111,"x_min":0,"x_max":972,"o":"m 0 694 l 0 1389 l 277 1389 l 277 1111 l 416 1111 l 416 694 l 0 694 m 555 694 l 555 1389 l 833 1389 l 833 1111 l 972 1111 l 972 694 l 555 694 z "},"”":{"ha":1111,"x_min":0,"x_max":972,"o":"m 138 694 l 138 972 l 0 972 l 0 1389 l 416 1389 l 416 694 l 138 694 m 694 694 l 694 972 l 555 972 l 555 1389 l 972 1389 l 972 694 l 694 694 z "},"„":{"ha":1111,"x_min":0,"x_max":972,"o":"m 138 -277 l 138 0 l 0 0 l 0 416 l 416 416 l 416 -277 l 138 -277 m 694 -277 l 694 0 l 555 0 l 555 416 l 972 416 l 972 -277 l 694 -277 z "},"†":{"ha":1389,"x_min":0,"x_max":1250,"o":"m 416 0 l 416 833 l 0 833 l 0 1111 l 416 1111 l 416 1389 l 833 1389 l 833 1111 l 1250 1111 l 1250 833 l 833 833 l 833 0 l 416 0 z "},"•":{"ha":694,"x_min":0,"x_max":555,"o":"m 0 416 l 0 972 l 555 972 l 555 416 l 0 416 z "},"…":{"ha":1666,"x_min":0,"x_max":1527,"o":"m 0 0 l 0 416 l 416 416 l 416 0 l 0 0 m 555 0 l 555 416 l 972 416 l 972 0 l 555 0 m 1111 0 l 1111 416 l 1527 416 l 1527 0 l 1111 0 z "},"‹":{"ha":1111,"x_min":0,"x_max":972,"o":"m 555 208 l 555 347 l 277 347 l 277 486 l 0 486 l 0 903 l 277 903 l 277 1042 l 555 1042 l 555 1180 l 972 1180 l 972 903 l 694 903 l 694 764 l 416 764 l 416 625 l 694 625 l 694 486 l 972 486 l 972 208 l 555 208 z "},"›":{"ha":1111,"x_min":0,"x_max":972,"o":"m 0 208 l 0 486 l 277 486 l 277 625 l 555 625 l 555 764 l 277 764 l 277 903 l 0 903 l 0 1180 l 416 1180 l 416 1042 l 694 1042 l 694 903 l 972 903 l 972 486 l 694 486 l 694 347 l 416 347 l 416 208 l 0 208 z "},"⁄":{"ha":1389,"x_min":0,"x_max":1250,"o":"m 0 0 l 0 416 l 277 416 l 277 694 l 555 694 l 555 1111 l 833 1111 l 833 1389 l 1250 1389 l 1250 972 l 972 972 l 972 694 l 694 694 l 694 277 l 416 277 l 416 0 l 0 0 z "},"€":{"ha":1250,"x_min":0,"x_max":1111,"o":"m 277 0 l 277 138 l 138 138 l 138 555 l 0 555 l 0 833 l 138 833 l 138 1250 l 277 1250 l 277 1389 l 1111 1389 l 1111 1111 l 555 1111 l 555 833 l 972 833 l 972 555 l 555 555 l 555 277 l 1111 277 l 1111 0 l 277 0 z "},"™":{"ha":1944,"x_min":69,"x_max":1874,"o":"m 277 555 l 277 1250 l 69 1250 l 69 1389 l 764 1389 l 764 1250 l 555 1250 l 555 555 l 277 555 m 903 555 l 903 1389 l 1180 1389 l 1180 1250 l 1319 1250 l 1319 1111 l 1458 1111 l 1458 1250 l 1597 1250 l 1597 1389 l 1874 1389 l 1874 555 l 1597 555 l 1597 972 l 1458 972 l 1458 833 l 1319 833 l 1319 972 l 1180 972 l 1180 555 l 903 555 z "},"−":{"ha":972,"x_min":0,"x_max":833,"o":"m 0 555 l 0 833 l 833 833 l 833 555 l 0 555 z "},"∕":{"ha":1389,"x_min":0,"x_max":1250,"o":"m 0 0 l 0 416 l 277 416 l 277 694 l 555 694 l 555 1111 l 833 1111 l 833 1389 l 1250 1389 l 1250 972 l 972 972 l 972 694 l 694 694 l 694 277 l 416 277 l 416 0 l 0 0 z "},"ﬀ":{"ha":2222,"x_min":0,"x_max":2083,"o":"m 0 0 l 0 1389 l 972 1389 l 972 1111 l 416 1111 l 416 833 l 833 833 l 833 555 l 416 555 l 416 0 l 0 0 m 1111 0 l 1111 1389 l 2083 1389 l 2083 1111 l 1527 1111 l 1527 833 l 1944 833 l 1944 555 l 1527 555 l 1527 0 l 1111 0 z "},"ﬁ":{"ha":1666,"x_min":0,"x_max":1527,"o":"m 0 0 l 0 1389 l 972 1389 l 972 1111 l 416 1111 l 416 833 l 833 833 l 833 555 l 416 555 l 416 0 l 0 0 m 1111 0 l 1111 1389 l 1527 1389 l 1527 0 l 1111 0 z "},"ﬂ":{"ha":2222,"x_min":0,"x_max":2083,"o":"m 0 0 l 0 1389 l 972 1389 l 972 1111 l 416 1111 l 416 833 l 833 833 l 833 555 l 416 555 l 416 0 l 0 0 m 1111 0 l 1111 1389 l 1527 1389 l 1527 277 l 2083 277 l 2083 0 l 1111 0 z "},"ﬃ":{"ha":2778,"x_min":0,"x_max":2639,"o":"m 0 0 l 0 1389 l 972 1389 l 972 1111 l 416 1111 l 416 833 l 833 833 l 833 555 l 416 555 l 416 0 l 0 0 m 1111 0 l 1111 1389 l 2083 1389 l 2083 1111 l 1527 1111 l 1527 833 l 1944 833 l 1944 555 l 1527 555 l 1527 0 l 1111 0 m 2222 0 l 2222 1389 l 2639 1389 l 2639 0 l 2222 0 z "},"ﬄ":{"ha":3333,"x_min":0,"x_max":3194,"o":"m 0 0 l 0 1389 l 972 1389 l 972 1111 l 416 1111 l 416 833 l 833 833 l 833 555 l 416 555 l 416 0 l 0 0 m 1111 0 l 1111 1389 l 2083 1389 l 2083 1111 l 1527 1111 l 1527 833 l 1944 833 l 1944 555 l 1527 555 l 1527 0 l 1111 0 m 2222 0 l 2222 1389 l 2639 1389 l 2639 277 l 3194 277 l 3194 0 l 2222 0 z "}}}
